<svg width="540" height="136" viewBox="0 0 540 136" fill="none" xmlns="http://www.w3.org/2000/svg">
<g clip-path="url(#clip0_807_1797)">
<rect width="540" height="136" fill="url(#paint0_linear_807_1797)"/>
<g opacity="0.04">
<path opacity="0.0344828" d="M329.911 72.8598C342.289 34.9789 359.032 0.0648858 376.074 -25.7515C384.598 -38.6656 393.168 -49.2578 401.262 -56.796C409.418 -64.3913 416.795 -68.618 422.999 -69.3398C429.204 -70.0617 434.292 -67.2852 437.933 -61.0621C441.546 -54.8859 443.597 -45.5294 444.023 -33.6565C444.873 -9.92154 439.22 23.7022 426.842 61.5832C414.464 99.4642 397.722 134.378 380.68 160.195C372.156 173.109 363.586 183.701 355.492 191.239C347.336 198.834 339.959 203.061 333.754 203.783C327.55 204.505 322.461 201.728 318.821 195.505C315.208 189.329 313.156 179.972 312.731 168.1C311.881 144.365 317.534 110.741 329.911 72.8598Z" stroke="#256DC9" stroke-width="2"/>
<path opacity="0.0689655" d="M332.564 69.2693C350.046 30.9284 371.286 -4.09186 391.473 -29.7101C401.571 -42.5254 411.373 -52.9455 420.27 -60.243C424.719 -63.8921 428.897 -66.7232 432.727 -68.6812C436.549 -70.6346 439.955 -71.6853 442.947 -71.8689C445.938 -72.0523 448.554 -71.3712 450.763 -69.7879C452.977 -68.2007 454.739 -65.7341 456.021 -62.4367C458.584 -55.8423 459.174 -46.0598 457.831 -33.7818C455.146 -9.23752 444.754 25.1171 427.272 63.458C409.791 101.799 388.551 136.819 368.364 162.437C358.266 175.253 348.464 185.673 339.567 192.97C335.118 196.619 330.94 199.45 327.109 201.409C323.288 203.362 319.882 204.412 316.891 204.596C313.899 204.78 311.283 204.099 309.074 202.515C306.86 200.928 305.097 198.461 303.816 195.164C301.253 188.57 300.662 178.787 302.005 166.509C304.69 141.965 315.082 107.61 332.564 69.2693Z" stroke="#256DC9" stroke-width="2"/>
<path opacity="0.103448" d="M335.58 65.6625C358.034 27.1541 383.609 -7.70483 406.79 -32.9288C418.385 -45.5468 429.346 -55.7146 438.979 -62.7152C443.797 -66.2165 448.232 -68.8885 452.201 -70.6786C456.164 -72.4657 459.562 -73.3311 462.419 -73.3409C465.275 -73.3506 467.676 -72.5047 469.566 -70.7375C471.459 -68.9673 472.791 -66.315 473.537 -62.8324C475.028 -55.8695 474.151 -45.7359 471.049 -33.1468C464.848 -7.98043 449.793 26.8429 427.34 65.3512C404.886 103.86 379.31 138.719 356.13 163.943C344.534 176.561 333.574 186.729 323.941 193.73C319.123 197.231 314.687 199.903 310.717 201.693C306.755 203.48 303.356 204.346 300.5 204.355C297.643 204.365 295.243 203.519 293.353 201.752C291.459 199.982 290.129 197.329 289.383 193.847C287.892 186.884 288.769 176.75 291.871 164.161C298.072 138.995 313.127 104.171 335.58 65.6625Z" stroke="#256DC9" stroke-width="2"/>
<path opacity="0.137931" d="M338.944 62.0595C366.199 23.6772 395.917 -10.755 421.915 -35.3915C434.92 -47.7153 446.956 -57.5518 457.252 -64.2012C462.403 -67.5276 467.063 -70.0206 471.141 -71.6296C475.218 -73.2378 478.581 -73.9133 481.279 -73.7547C483.976 -73.596 486.148 -72.5951 487.705 -70.6559C489.264 -68.7155 490.152 -65.8964 490.355 -62.2552C490.761 -54.9767 488.423 -44.5699 483.585 -31.7662C473.913 -6.1699 454.308 28.8568 427.053 67.2391C399.798 105.621 370.081 140.054 344.083 164.69C331.078 177.014 319.041 186.851 308.745 193.501C303.594 196.827 298.934 199.319 294.855 200.928C290.779 202.536 287.417 203.212 284.719 203.053C282.022 202.895 279.849 201.894 278.291 199.954C276.733 198.014 275.845 195.195 275.642 191.555C275.236 184.276 277.574 173.869 282.413 161.065C292.085 135.469 311.689 100.442 338.944 62.0595Z" stroke="#256DC9" stroke-width="2"/>
<path opacity="0.172414" d="M342.643 58.4829C374.493 20.5196 408.128 -13.222 436.745 -37.0824C451.061 -49.0178 464.081 -58.4484 474.963 -64.6949C480.407 -67.8204 485.257 -70.1142 489.415 -71.53C493.579 -72.9475 496.876 -73.4291 499.394 -73.11C501.911 -72.7909 503.845 -71.6465 505.058 -69.5477C506.27 -67.4514 506.708 -64.4873 506.365 -60.7154C505.681 -53.1767 501.898 -42.5756 495.36 -29.6546C482.289 -3.82401 458.284 31.138 426.434 69.1013C394.585 107.065 360.951 140.806 332.333 164.667C318.018 176.602 304.996 186.033 294.115 192.279C288.67 195.405 283.821 197.698 279.663 199.114C275.5 200.532 272.202 201.013 269.685 200.694C267.167 200.375 265.233 199.231 264.02 197.132C262.809 195.036 262.369 192.072 262.712 188.3C263.396 180.761 267.181 170.16 273.719 157.239C286.789 131.408 310.794 96.4463 342.643 58.4829Z" stroke="#256DC9" stroke-width="2"/>
<path opacity="0.206897" d="M346.658 54.953C382.86 17.6983 420.156 -15.0956 451.176 -37.997C466.692 -49.4527 480.6 -58.4039 491.983 -64.1988C497.68 -67.0987 502.682 -69.1761 506.889 -70.388C511.11 -71.6039 514.317 -71.8906 516.638 -71.4205C518.96 -70.9504 520.646 -69.6731 521.504 -67.4289C522.36 -65.192 522.345 -62.1049 521.459 -58.231C519.689 -50.4898 514.486 -39.776 506.297 -26.8368C489.926 -0.969394 461.703 33.6613 425.502 70.9161C389.3 108.171 352.004 140.965 320.984 163.866C305.468 175.321 291.562 184.273 280.179 190.067C274.482 192.967 269.479 195.045 265.272 196.256C261.051 197.472 257.845 197.759 255.523 197.289C253.202 196.819 251.515 195.542 250.656 193.297C249.801 191.06 249.817 187.974 250.703 184.1C252.473 176.358 257.674 165.645 265.863 152.706C282.233 126.838 310.457 92.2078 346.658 54.953Z" stroke="#256DC9" stroke-width="2"/>
<path opacity="0.241379" d="M350.965 51.4907C391.244 15.2285 431.917 -16.3672 465.102 -38.1344C481.702 -49.0224 496.389 -57.4247 508.187 -62.7226C514.092 -65.3741 519.208 -67.219 523.432 -68.2175C527.681 -69.2219 530.773 -69.3141 532.887 -68.7034C535.002 -68.0926 536.436 -66.6931 536.931 -64.3187C537.423 -61.9579 536.953 -58.7714 535.529 -54.8254C532.685 -46.9414 526.104 -36.1975 516.327 -23.339C496.781 2.36748 464.553 36.4025 424.275 72.6647C383.996 108.927 343.324 140.522 310.138 162.289C293.539 173.177 278.852 181.58 267.054 186.878C261.15 189.529 256.032 191.374 251.808 192.372C247.56 193.377 244.469 193.469 242.354 192.858C240.24 192.248 238.805 190.848 238.309 188.473C237.817 186.113 238.289 182.926 239.712 178.981C242.557 171.096 249.136 160.352 258.913 147.494C278.46 121.787 310.687 87.7527 350.965 51.4907Z" stroke="#256DC9" stroke-width="2"/>
<path opacity="0.275862" d="M355.539 48.1132C399.588 13.1203 443.328 -17.0354 478.426 -37.5015C495.982 -47.7386 511.336 -55.528 523.458 -60.2875C529.526 -62.6698 534.718 -64.2667 538.927 -65.044C543.17 -65.8277 546.126 -65.7286 548.028 -64.9873C549.93 -64.246 551.106 -62.7337 551.233 -60.2462C551.358 -57.7794 550.434 -54.5181 548.484 -50.5308C544.587 -42.5646 536.677 -31.8729 525.386 -19.1933C502.812 6.15572 466.827 39.3349 422.778 74.3279C378.729 109.321 334.989 139.476 299.891 159.943C282.335 170.18 266.981 177.969 254.859 182.729C248.792 185.111 243.599 186.708 239.391 187.485C235.147 188.269 232.191 188.17 230.289 187.428C228.388 186.687 227.211 185.175 227.085 182.687C226.96 180.22 227.883 176.959 229.834 172.972C233.731 165.006 241.64 154.314 252.932 141.634C275.505 116.285 311.49 83.1062 355.539 48.1132Z" stroke="#256DC9" stroke-width="2"/>
<path opacity="0.310345" d="M360.357 44.8378C407.84 11.3809 454.314 -17.1048 491.057 -36.1132C509.436 -45.6211 525.34 -52.7366 537.693 -56.9206C543.876 -59.0149 549.103 -60.3518 553.264 -60.9014C557.469 -61.4568 560.272 -61.1714 561.96 -60.3078C563.648 -59.444 564.561 -57.8276 564.315 -55.2465C564.071 -52.6926 562.703 -49.3811 560.24 -45.3832C555.319 -37.3963 546.14 -26.8393 533.421 -14.4357C507.992 10.3621 468.523 42.4323 421.039 75.8892C373.556 109.346 327.082 137.832 290.339 156.84C271.96 166.348 256.057 173.464 243.704 177.648C237.521 179.742 232.293 181.079 228.132 181.628C223.927 182.184 221.125 181.898 219.437 181.034C217.749 180.17 216.835 178.554 217.081 175.973C217.325 173.42 218.694 170.108 221.157 166.111C226.078 158.124 235.256 147.566 247.975 135.163C273.404 110.365 312.873 78.2947 360.357 44.8378Z" stroke="#256DC9" stroke-width="2"/>
<path opacity="0.344828" d="M365.393 41.6786C415.949 10.0129 464.804 -16.5847 502.91 -33.99C521.971 -42.696 538.302 -49.0838 550.79 -52.6596C557.041 -54.4495 562.263 -55.5151 566.343 -55.8325C570.473 -56.1536 573.109 -55.687 574.586 -54.7062C576.063 -53.7254 576.709 -52.0127 576.09 -49.3599C575.479 -46.7388 573.674 -43.404 570.717 -39.4266C564.81 -31.4809 554.434 -21.1391 540.383 -9.10601C512.293 14.9509 469.641 45.6677 419.085 77.3334C368.529 108.999 319.675 135.597 281.568 153.002C262.507 161.708 246.175 168.095 233.687 171.671C227.437 173.461 222.216 174.527 218.136 174.844C214.006 175.165 211.369 174.699 209.892 173.718C208.415 172.737 207.77 171.024 208.389 168.371C209 165.75 210.803 162.415 213.76 158.438C219.667 150.492 230.045 140.151 244.095 128.118C272.185 104.061 314.837 73.3444 365.393 41.6786Z" stroke="#256DC9" stroke-width="2"/>
<path opacity="0.37931" d="M370.622 38.6514C423.865 9.01827 474.727 -15.489 513.907 -31.158C533.504 -38.9955 550.137 -44.6053 562.664 -47.5449C568.934 -49.0164 574.109 -49.8027 578.077 -49.8853C582.095 -49.9688 584.554 -49.3284 585.823 -48.2325C587.092 -47.1366 587.462 -45.3337 586.476 -42.6323C585.502 -39.9646 583.275 -36.6324 579.848 -32.7063C573 -24.8634 561.505 -14.8168 546.23 -3.24632C515.694 19.8859 470.183 49.0139 416.94 78.647C363.696 108.28 312.835 132.788 273.655 148.457C254.058 156.295 237.425 161.903 224.899 164.843C218.628 166.314 213.454 167.101 209.486 167.184C205.468 167.267 203.009 166.627 201.74 165.531C200.471 164.435 200.1 162.632 201.087 159.931C202.061 157.263 204.287 153.93 207.714 150.004C214.562 142.161 226.058 132.116 241.332 120.545C271.868 97.4132 317.378 68.2846 370.622 38.6514Z" stroke="#256DC9" stroke-width="2"/>
<path opacity="0.413793" d="M376.016 35.7678C431.542 8.39308 484.022 -13.8364 523.975 -27.6495C543.96 -34.5586 560.767 -39.3476 573.235 -41.6283C579.476 -42.77 584.563 -43.2702 588.387 -43.1173C592.257 -42.9625 594.529 -42.1549 595.591 -40.9432C596.653 -39.7316 596.741 -37.8468 595.396 -35.1209C594.067 -32.4278 591.437 -29.1241 587.565 -25.2799C579.829 -17.6004 567.303 -7.92663 550.922 3.09293C518.172 25.1236 470.152 52.4419 414.626 79.8166C359.101 107.191 306.621 129.421 266.667 143.234C246.683 150.143 229.875 154.931 217.407 157.212C211.167 158.354 206.08 158.854 202.257 158.701C198.387 158.547 196.114 157.739 195.051 156.528C193.989 155.316 193.903 153.431 195.248 150.705C196.577 148.012 199.205 144.708 203.077 140.864C210.813 133.184 223.339 123.511 239.721 112.491C272.471 90.4608 320.491 63.1425 376.016 35.7678Z" stroke="#256DC9" stroke-width="2"/>
<path opacity="0.448276" d="M381.553 33.0416C438.937 8.13392 492.636 -11.6491 533.057 -23.5007C553.276 -29.4288 570.128 -33.3589 582.441 -34.9632C588.604 -35.7663 593.563 -35.9773 597.213 -35.5903C600.901 -35.1992 602.98 -34.2314 603.832 -32.9022C604.683 -31.573 604.479 -29.6143 602.788 -26.8881C601.115 -24.1906 598.103 -20.9408 593.816 -17.2083C585.254 -9.75174 571.794 -0.525484 554.431 9.8589C519.717 30.6198 469.553 55.9189 412.169 80.8266C354.785 105.734 301.086 125.517 260.665 137.369C240.446 143.297 223.594 147.228 211.282 148.832C205.119 149.635 200.159 149.846 196.51 149.459C192.821 149.067 190.743 148.099 189.891 146.77C189.04 145.441 189.243 143.482 190.934 140.756C192.607 138.059 195.62 134.81 199.906 131.077C208.469 123.621 221.928 114.394 239.291 104.009C274.005 83.2485 324.169 57.9493 381.553 33.0416Z" stroke="#256DC9" stroke-width="2"/>
<path opacity="0.482759" d="M387.207 30.488C446.012 8.23705 500.519 -8.948 541.1 -18.7479C561.398 -23.6498 578.166 -26.6925 590.228 -27.6083C596.265 -28.0667 601.058 -27.9867 604.505 -27.3689C607.981 -26.7459 609.857 -25.6223 610.49 -24.1751C611.123 -22.7278 610.623 -20.7056 608.602 -18.0024C606.598 -15.3218 603.227 -12.1527 598.56 -8.56087C589.236 -1.38478 574.947 7.32406 556.735 16.9942C520.324 36.3268 468.398 59.4144 409.593 81.6654C350.788 103.916 296.281 121.101 255.7 130.901C235.402 135.803 218.634 138.846 206.572 139.762C200.535 140.22 195.742 140.14 192.295 139.522C188.819 138.899 186.943 137.776 186.31 136.328C185.677 134.881 186.177 132.859 188.198 130.156C190.202 127.475 193.573 124.306 198.24 120.714C207.564 113.538 221.853 104.829 240.065 95.1592C276.476 75.8266 328.402 52.739 387.207 30.488Z" stroke="#256DC9" stroke-width="2"/>
<path opacity="0.517241" d="M392.954 28.1219C452.731 8.69707 507.632 -5.75952 548.062 -13.4332C568.285 -17.2716 584.839 -19.4027 596.558 -19.6236C602.423 -19.7341 607.012 -19.3648 610.231 -18.5212C613.468 -17.6726 615.129 -16.3988 615.532 -14.8357C615.935 -13.2726 615.137 -11.2002 612.804 -8.54176C610.485 -5.89858 606.781 -2.83358 601.77 0.590013C591.758 7.43037 576.75 15.5548 557.827 24.4368C519.997 42.1937 466.707 62.8939 406.929 82.3187C347.152 101.743 292.252 116.2 251.822 123.873C231.599 127.712 215.045 129.844 203.326 130.065C197.461 130.175 192.872 129.805 189.653 128.961C186.416 128.113 184.755 126.84 184.352 125.277C183.949 123.714 184.747 121.641 187.08 118.982C189.399 116.339 193.104 113.274 198.114 109.851C208.126 103.011 223.134 94.8855 242.057 86.0034C279.887 68.2466 333.176 47.5466 392.954 28.1219Z" stroke="#256DC9" stroke-width="2"/>
<path opacity="0.551724" d="M398.76 25.9547C459.055 9.50398 513.929 -2.11352 553.899 -7.60284C573.892 -10.3487 590.106 -11.5535 601.391 -11.0784C607.039 -10.8407 611.39 -10.1844 614.355 -9.12177C617.331 -8.05557 618.765 -6.63763 618.925 -4.96466C619.085 -3.29175 617.988 -1.18367 615.364 1.41028C612.748 3.99585 608.741 6.93333 603.425 10.1623C592.803 16.6144 577.19 24.0925 557.702 32.1189C518.743 48.1646 464.495 66.3201 404.201 82.7708C343.906 99.2216 289.032 110.839 249.062 116.328C229.069 119.074 212.856 120.28 201.571 119.804C195.923 119.567 191.572 118.91 188.607 117.847C185.632 116.781 184.197 115.364 184.037 113.691C183.877 112.018 184.973 109.909 187.598 107.315C190.215 104.729 194.222 101.793 199.537 98.5638C210.159 92.1116 225.771 84.633 245.259 76.6067C284.218 60.5609 338.466 42.4055 398.76 25.9547Z" stroke="#256DC9" stroke-width="2"/>
<path opacity="0.586207" d="M404.6 24.0004C464.951 10.6487 519.38 1.95847 558.585 -1.30523C578.196 -2.9378 593.944 -3.20813 604.709 -2.04164C610.096 -1.45795 614.175 -0.520105 616.866 0.753225C619.56 2.02803 620.754 3.58403 620.659 5.35708C620.564 7.13009 619.173 9.25809 616.277 11.7695C613.384 14.278 609.105 17.0644 603.526 20.0739C592.377 26.0886 576.28 32.8642 556.376 39.9736C516.586 54.1863 461.794 69.6584 401.443 83.0101C341.091 96.3618 286.662 105.053 247.458 108.317C227.846 109.949 212.098 110.219 201.333 109.052C195.947 108.468 191.867 107.531 189.176 106.258C186.483 104.983 185.289 103.427 185.383 101.654C185.478 99.8812 186.869 97.7533 189.765 95.2418C192.658 92.7333 196.937 89.9462 202.516 86.9367C213.665 80.9219 229.762 74.1472 249.666 67.0377C289.456 52.825 344.248 37.3522 404.6 24.0004Z" stroke="#256DC9" stroke-width="2"/>
<path opacity="0.62069" d="M410.435 22.2704C470.383 12.1191 523.951 6.42137 562.091 5.40734C581.17 4.9001 596.333 5.56687 606.496 7.41489C611.581 8.3394 615.359 9.54934 617.755 11.0236C620.15 12.4971 621.089 14.1842 620.729 16.0443C620.369 17.9042 618.692 20.0338 615.546 22.4454C612.399 24.8585 607.88 27.4741 602.082 30.2414C590.491 35.773 574.035 41.7941 553.867 47.9326C513.55 60.2042 458.633 72.8759 398.685 83.0272C338.737 93.1786 285.168 98.8773 247.027 99.8913C227.949 100.399 212.786 99.7317 202.623 97.8837C197.538 96.9592 193.761 95.7483 191.365 94.274C188.97 92.8006 188.03 91.1143 188.39 89.2543C188.749 87.3943 190.428 85.264 193.574 82.8522C196.722 80.4393 201.239 77.8244 207.037 75.0572C218.627 69.5255 235.084 63.5046 255.252 57.366C295.569 45.0944 350.486 32.4218 410.435 22.2704Z" stroke="#256DC9" stroke-width="2"/>
<path opacity="0.655172" d="M416.239 20.7704C475.327 13.8963 527.626 11.2337 564.411 12.476C582.812 13.0975 597.273 14.6946 606.757 17.2088C611.501 18.4663 614.949 19.9402 617.033 21.6043C619.113 23.2656 619.786 25.0735 619.155 27.0048C618.523 28.9361 616.57 31.0493 613.196 33.3452C609.817 35.6449 605.095 38.0699 599.123 40.5741C587.181 45.581 570.491 50.802 550.214 55.9233C509.678 66.1608 455.055 75.9371 395.967 82.8113C336.879 89.6854 284.579 92.3482 247.794 91.1058C229.393 90.4843 214.932 88.8872 205.448 86.373C200.704 85.1154 197.256 83.6409 195.173 81.9767C193.092 80.3154 192.42 78.5076 193.051 76.5763C193.682 74.645 195.636 72.5316 199.009 70.2359C202.388 67.9362 207.11 65.5118 213.083 63.0077C225.024 58.0008 241.714 52.7798 261.991 47.6585C302.527 37.4209 357.151 27.6446 416.239 20.7704Z" stroke="#256DC9" stroke-width="2"/>
<path opacity="0.689655" d="M421.97 19.509C479.748 15.9638 530.379 16.3555 565.527 19.8436C583.11 21.5885 596.76 24.1026 605.493 27.2627C609.86 28.8428 612.953 30.5689 614.71 32.4106C616.462 34.248 616.855 36.1664 615.95 38.1516C615.045 40.1366 612.83 42.2145 609.253 44.3788C605.667 46.5484 600.777 48.7643 594.676 50.9867C582.475 55.4313 565.681 59.8135 545.449 63.8787C505.005 72.0051 451.092 78.8115 393.314 82.3568C335.537 85.902 284.906 85.5102 249.757 82.0222C232.175 80.2773 218.525 77.7631 209.791 74.603C205.424 73.0229 202.331 71.2968 200.574 69.4551C198.822 67.6178 198.428 65.7 199.333 63.7149C200.238 61.7298 202.454 59.6514 206.031 57.4869C209.617 55.3174 214.508 53.1014 220.608 50.879C232.809 46.4344 249.604 42.0522 269.835 37.987C310.279 29.8607 364.192 23.0542 421.97 19.509Z" stroke="#256DC9" stroke-width="2"/>
<path opacity="0.724138" d="M427.6 18.4915C483.626 18.3015 532.204 21.7433 565.448 27.4491C582.078 30.3033 594.812 33.7142 602.73 37.4947C610.707 41.3039 613.518 45.3481 611.16 49.3918C608.802 53.4354 601.255 57.5148 588.795 61.3934C576.428 65.2427 559.658 68.7537 539.628 71.7322C499.584 77.6866 446.793 81.4723 390.766 81.6624C334.739 81.8525 286.162 78.4106 252.918 72.7048C236.288 69.8506 223.554 66.4398 215.636 62.6593C207.659 58.85 204.848 54.8058 207.206 50.7621C209.564 46.7185 217.111 42.6391 229.571 38.7606C241.937 34.9112 258.708 31.4003 278.738 28.4217C318.781 22.4673 371.573 18.6816 427.6 18.4915Z" stroke="#256DC9" stroke-width="2"/>
<path opacity="0.758621" d="M433.093 17.7163C486.942 20.8819 533.094 27.3462 564.182 35.2244C579.733 39.1654 591.457 43.4459 598.5 47.8171C605.582 52.2126 607.72 56.5602 604.83 60.6302C601.94 64.7002 594.046 68.458 581.539 71.702C569.102 74.928 552.482 77.5423 532.804 79.4123C493.468 83.1506 442.202 83.8879 388.353 80.7224C334.504 77.5568 288.352 71.0925 257.264 63.2143C241.713 59.2733 229.989 54.9928 222.946 50.6216C215.864 46.2261 213.726 41.8785 216.616 37.8085C219.506 33.7385 227.4 29.9807 239.907 26.7367C252.344 23.5107 268.964 20.8964 288.642 19.0264C327.978 15.2881 379.245 14.5508 433.093 17.7163Z" stroke="#256DC9" stroke-width="2"/>
<path opacity="0.793103" d="M438.419 17.1855C489.679 23.6815 533.056 33.1179 561.751 43.1068C576.105 48.1036 586.73 53.2194 592.847 58.147C598.987 63.094 600.43 67.7166 597.024 71.7763C593.618 75.8361 585.442 79.2397 572.979 81.8292C560.564 84.4085 544.222 86.1069 525.049 86.8549C486.719 88.3503 437.367 86.0357 386.106 79.5397C334.846 73.0438 291.468 63.6073 262.773 53.6183C248.419 48.6216 237.795 43.5058 231.678 38.5782C225.538 33.6313 224.095 29.0087 227.501 24.9489C230.907 20.8892 239.083 17.4856 251.546 14.8961C263.961 12.3168 280.302 10.6182 299.475 9.87019C337.805 8.37484 387.158 10.6896 438.419 17.1855Z" stroke="#256DC9" stroke-width="2"/>
<path opacity="0.827586" d="M443.548 16.895C491.831 26.6707 532.103 39.0057 558.189 51.0276C571.237 57.0412 580.684 62.9521 585.83 68.398C590.989 73.8582 591.715 78.7243 587.816 82.7367C583.917 86.749 575.527 89.7688 563.198 91.6881C550.9 93.6024 534.96 94.374 516.436 93.9952C479.404 93.238 432.341 87.8907 384.058 78.1151C335.775 68.3394 295.503 56.0044 269.417 43.9824C256.369 37.9689 246.922 32.0574 241.777 26.6114C236.618 21.1513 235.891 16.2856 239.79 12.2733C243.689 8.26097 252.079 5.24064 264.409 3.32132C276.706 1.40702 292.646 0.636041 311.17 1.0148C348.202 1.77202 395.265 7.11932 443.548 16.895Z" stroke="#256DC9" stroke-width="2"/>
<path opacity="0.862069" d="M448.45 16.8424C493.389 29.822 530.253 44.9596 553.533 58.9214C565.177 65.9051 573.375 72.5663 577.512 78.489C581.657 84.4212 581.655 89.4954 577.292 93.4235C572.929 97.3517 564.395 99.962 552.286 101.2C540.197 102.436 524.778 102.275 507.045 100.774C471.591 97.7714 427.175 89.4337 382.236 76.454C337.297 63.4743 300.435 48.3364 277.155 34.3746C265.511 27.391 257.312 20.7303 253.175 14.8077C249.031 8.87533 249.033 3.80068 253.396 -0.127465C257.759 -4.05547 266.293 -6.66541 278.402 -7.90337C290.491 -9.1393 305.91 -8.97933 323.643 -7.47763C359.097 -4.47537 403.512 3.86279 448.45 16.8424Z" stroke="#256DC9" stroke-width="2"/>
<path opacity="0.896552" d="M453.101 17.0185C494.355 33.1024 527.53 50.9265 547.83 66.721C557.984 74.6211 564.875 81.9806 567.975 88.3351C571.077 94.6955 570.337 99.9405 565.544 103.748C560.751 107.556 552.146 109.735 540.345 110.284C528.555 110.834 513.772 109.744 496.962 107.131C463.355 101.908 421.921 90.6445 380.667 74.5607C339.413 58.4767 306.237 40.6527 285.937 24.8582C275.784 16.9583 268.894 9.59884 265.794 3.24447C262.691 -3.11598 263.43 -8.36128 268.224 -12.169C273.017 -15.9767 281.622 -18.1551 293.424 -18.7049C305.214 -19.2541 319.996 -18.1643 336.805 -15.552C370.413 -10.3292 411.846 0.934598 453.101 17.0185Z" stroke="#256DC9" stroke-width="2"/>
<path opacity="0.931035" d="M457.472 17.4196C494.731 36.4848 523.969 56.8592 541.139 74.366C549.726 83.1223 555.258 91.1245 557.298 97.8629C559.339 104.605 557.861 109.98 552.678 113.632C547.494 117.284 538.89 119.013 527.481 118.872C516.077 118.731 502.042 116.721 486.282 113.018C454.772 105.616 416.633 91.5127 379.375 72.4475C342.116 53.3823 312.878 33.0079 295.708 15.5011C287.121 6.74489 281.589 -1.25739 279.549 -7.9958C277.508 -14.7376 278.986 -20.1127 284.169 -23.7649C289.353 -27.4172 297.956 -29.1456 309.366 -29.0047C320.77 -28.8639 334.805 -26.8536 350.565 -23.1511C382.075 -15.7487 420.214 -1.64561 457.472 17.4196Z" stroke="#256DC9" stroke-width="2"/>
<path opacity="0.965517" d="M461.545 18.0318C494.527 39.9334 519.609 62.7037 533.52 81.7906C540.478 91.337 544.611 99.9217 545.577 106.994C546.543 114.068 544.334 119.529 538.804 122.993C533.275 126.456 524.745 127.721 513.809 126.891C502.877 126.062 489.692 123.147 475.099 118.382C445.923 108.857 411.365 92.0214 378.383 70.1197C345.402 48.2181 320.318 25.4483 306.407 6.36139C299.45 -3.1849 295.316 -11.7697 294.35 -18.8417C293.384 -25.9155 295.594 -31.3774 301.123 -34.8408C306.653 -38.3042 315.183 -39.569 326.118 -38.7394C337.051 -37.91 350.236 -34.9946 364.828 -30.2304C394.004 -20.7049 428.563 -3.86983 461.545 18.0318Z" stroke="#256DC9" stroke-width="2"/>
<path d="M465.297 18.846C493.753 43.4184 514.493 68.4125 525.042 88.9362C530.319 99.2011 533.024 108.305 532.909 115.658C532.794 123.012 529.866 128.516 524.039 131.759C518.212 135.002 509.827 135.794 499.445 134.282C489.064 132.771 476.827 128.972 463.51 123.182C436.885 111.605 406.167 92.1648 377.711 67.5926C349.254 43.0202 328.514 18.0266 317.965 -2.4971C312.688 -12.762 309.984 -21.8656 310.099 -29.2185C310.214 -36.5727 313.142 -42.0765 318.969 -45.3196C324.796 -48.5628 333.181 -49.3551 343.563 -47.8432C353.944 -46.3316 366.18 -42.5331 379.497 -36.7431C406.122 -25.1664 436.84 -5.72626 465.297 18.846Z" stroke="#256DC9" stroke-width="2"/>
</g>
</g>
<defs>
<linearGradient id="paint0_linear_807_1797" x1="270" y1="0" x2="270" y2="136" gradientUnits="userSpaceOnUse">
<stop stop-color="#011328"/>
<stop offset="1" stop-color="#000C1B"/>
</linearGradient>
<clipPath id="clip0_807_1797">
<rect width="540" height="136" fill="white"/>
</clipPath>
</defs>
</svg>
