<svg width="264" height="240" viewBox="0 0 264 240" fill="none" xmlns="http://www.w3.org/2000/svg">
<g clip-path="url(#clip0_1023_2225)">
<rect width="264" height="240" fill="url(#paint0_linear_1023_2225)"/>
<rect width="264" height="240" fill="url(#paint1_linear_1023_2225)" fill-opacity="0.8"/>
<g opacity="0.1">
<path opacity="0.0344828" d="M187.9 102.253C178.117 78.6926 171.681 54.7501 169.174 35.1067C167.92 25.2776 167.657 16.5784 168.426 9.57741C169.204 2.49344 170.989 -2.45576 173.532 -5.23844C176.075 -8.02108 179.571 -8.85042 183.908 -7.36307C188.194 -5.89317 193.063 -2.23367 198.205 3.34126C208.482 14.4827 219.741 33.1485 229.524 56.709C239.308 80.2697 245.743 104.213 248.25 123.857C249.504 133.686 249.767 142.385 248.998 149.386C248.22 156.47 246.435 161.42 243.892 164.202C241.349 166.985 237.853 167.814 233.516 166.327C229.23 164.857 224.361 161.197 219.218 155.622C208.942 144.481 197.684 125.814 187.9 102.253Z" stroke="#38F07F" stroke-width="2"/>
<path opacity="0.0689655" d="M187.707 99.4104C180.197 73.4845 175.888 47.6016 174.982 26.7325C174.529 16.2904 174.931 7.15721 176.184 -0.0658113C176.812 -3.67795 177.642 -6.75522 178.653 -9.24892C179.66 -11.7331 180.815 -13.5664 182.093 -14.8209C183.372 -16.0751 184.842 -16.8179 186.524 -16.9723C188.212 -17.1272 190.063 -16.6809 192.042 -15.6259C195.999 -13.5161 200.343 -9.03914 204.801 -2.52613C213.709 10.4904 222.983 31.5013 230.493 57.4272C238.002 83.353 242.311 109.235 243.217 130.104C243.67 140.546 243.269 149.68 242.015 156.903C241.388 160.515 240.557 163.592 239.546 166.086C238.539 168.57 237.385 170.402 236.107 171.657C234.828 172.911 233.357 173.655 231.675 173.809C229.987 173.964 228.136 173.518 226.157 172.463C222.2 170.353 217.856 165.876 213.399 159.363C204.49 146.346 195.216 125.336 187.707 99.4104Z" stroke="#38F07F" stroke-width="2"/>
<path opacity="0.103448" d="M187.681 96.4099C182.504 68.316 180.356 40.6914 181.059 18.7558C181.411 7.78006 182.475 -1.71821 184.206 -9.10857C185.072 -12.8057 186.091 -15.9149 187.236 -18.3859C188.377 -20.85 189.595 -22.5823 190.867 -23.693C192.138 -24.8037 193.569 -25.3865 195.176 -25.3237C196.787 -25.2606 198.51 -24.5478 200.31 -23.1795C203.906 -20.4443 207.69 -15.1817 211.429 -7.77959C218.9 7.01393 226.117 30.2091 231.294 58.303C236.471 86.3969 238.619 114.022 237.916 135.957C237.564 146.933 236.5 156.431 234.769 163.822C233.903 167.518 232.884 170.627 231.74 173.098C230.599 175.562 229.379 177.295 228.108 178.406C226.837 179.517 225.407 180.099 223.8 180.036C222.188 179.973 220.464 179.261 218.665 177.892C215.068 175.157 211.284 169.895 207.546 162.493C200.075 147.699 192.858 124.504 187.681 96.4099Z" stroke="#38F07F" stroke-width="2"/>
<path opacity="0.137931" d="M187.827 93.2682C185.022 63.2205 185.054 34.0643 187.361 11.2297C188.516 -0.195737 190.236 -9.98747 192.432 -17.4887C193.531 -21.2424 194.731 -24.3592 196.001 -26.7898C197.27 -29.2183 198.539 -30.8357 199.788 -31.797C201.037 -32.7583 202.418 -33.1812 203.939 -32.9009C205.462 -32.6203 207.044 -31.6451 208.649 -29.973C211.857 -26.6316 215.052 -20.6235 218.042 -12.3884C224.016 4.07008 229.121 29.2728 231.925 59.3205C234.729 89.3686 234.698 118.525 232.39 141.36C231.235 152.785 229.515 162.577 227.319 170.078C226.22 173.832 225.02 176.949 223.75 179.379C222.482 181.808 221.212 183.425 219.963 184.386C218.715 185.347 217.334 185.771 215.812 185.49C214.289 185.21 212.707 184.235 211.102 182.563C207.894 179.221 204.7 173.213 201.71 164.978C195.735 148.52 190.631 123.316 187.827 93.2682Z" stroke="#38F07F" stroke-width="2"/>
<path opacity="0.172414" d="M188.143 90.0025C187.733 58.2295 189.944 27.7638 193.84 4.20467C195.79 -7.58298 198.154 -17.5921 200.799 -25.1463C202.123 -28.9276 203.495 -32.0293 204.882 -34.4018C206.271 -36.7789 207.579 -38.2679 208.791 -39.0773C210.003 -39.8866 211.327 -40.1553 212.753 -39.6579C214.176 -39.1614 215.604 -37.9294 217.002 -35.9657C219.795 -32.0425 222.374 -25.3343 224.591 -16.3289C229.023 1.66944 231.974 28.6882 232.384 60.4612C232.793 92.2344 230.583 122.701 226.686 146.26C224.737 158.048 222.373 168.057 219.728 175.611C218.404 179.392 217.032 182.493 215.646 184.866C214.257 187.243 212.949 188.732 211.737 189.541C210.524 190.351 209.2 190.619 207.774 190.122C206.351 189.625 204.923 188.394 203.525 186.43C200.732 182.507 198.152 175.799 195.935 166.794C191.503 148.795 188.552 121.776 188.143 90.0025Z" stroke="#38F07F" stroke-width="2"/>
<path opacity="0.206897" d="M188.628 86.6317C190.617 53.3755 194.992 21.8324 200.448 -2.27112C203.177 -14.331 206.167 -24.4809 209.242 -32.0296C210.782 -35.8092 212.316 -38.8719 213.809 -41.1687C215.31 -43.478 216.644 -44.8277 217.808 -45.4863C218.972 -46.1449 220.232 -46.2638 221.552 -45.5509C222.865 -44.8418 224.128 -43.3623 225.308 -41.1213C227.663 -36.6455 229.606 -29.2872 231.034 -19.5801C233.887 -0.178907 234.663 28.4497 232.674 61.7058C230.685 94.962 226.31 126.506 220.854 150.609C218.124 162.669 215.134 172.819 212.06 180.368C210.52 184.147 208.986 187.21 207.493 189.507C205.992 191.816 204.658 193.166 203.494 193.825C202.33 194.483 201.069 194.602 199.749 193.889C198.436 193.18 197.173 191.701 195.994 189.46C193.639 184.984 191.696 177.626 190.268 167.918C187.414 148.517 186.639 119.888 188.628 86.6317Z" stroke="#38F07F" stroke-width="2"/>
<path opacity="0.241379" d="M189.281 83.1762C193.654 48.6905 200.16 16.3106 207.134 -8.15283C210.624 -20.3924 214.217 -30.6046 217.698 -38.089C219.441 -41.8369 221.128 -44.8365 222.716 -47.0402C224.319 -49.2652 225.667 -50.4687 226.775 -50.9811C227.882 -51.4935 229.074 -51.4654 230.278 -50.5398C231.47 -49.6228 232.558 -47.9073 233.509 -45.4061C235.408 -40.4115 236.698 -32.4594 237.325 -22.1247C238.578 -1.46873 237.171 28.5514 232.798 63.037C228.425 97.5228 221.919 129.903 214.945 154.367C211.455 166.606 207.862 176.819 204.381 184.303C202.638 188.051 200.951 191.051 199.363 193.254C197.76 195.479 196.412 196.683 195.304 197.195C194.197 197.708 193.005 197.68 191.801 196.754C190.609 195.837 189.52 194.121 188.57 191.62C186.671 186.626 185.381 178.673 184.754 168.339C183.501 147.683 184.908 117.662 189.281 83.1762Z" stroke="#38F07F" stroke-width="2"/>
<path opacity="0.275862" d="M190.093 79.6552C196.817 44.2031 205.404 11.2343 213.844 -13.4018C218.066 -25.7275 222.237 -35.9237 226.098 -43.2854C228.032 -46.9725 229.857 -49.8861 231.528 -51.9797C233.223 -54.1021 234.575 -55.1541 235.622 -55.5274C236.668 -55.9005 237.787 -55.7299 238.864 -54.5966C239.927 -53.4784 240.831 -51.538 241.545 -48.7956C242.972 -43.3201 243.6 -34.8359 243.421 -23.9526C243.063 -2.19951 239.483 28.9831 232.759 64.4352C226.035 99.8875 217.448 132.857 209.008 157.493C204.786 169.819 200.614 180.015 196.753 187.377C194.819 191.064 192.995 193.977 191.323 196.071C189.629 198.193 188.278 199.245 187.231 199.618C186.185 199.992 185.065 199.821 183.987 198.688C182.925 197.57 182.021 195.629 181.307 192.887C179.88 187.411 179.252 178.927 179.431 168.044C179.789 146.291 183.369 115.108 190.093 79.6552Z" stroke="#38F07F" stroke-width="2"/>
<path opacity="0.310345" d="M191.06 76.0863C200.083 39.938 210.688 6.63153 220.529 -17.9884C225.453 -30.3057 230.169 -40.4072 234.381 -47.5886C236.49 -51.1854 238.438 -53.9889 240.181 -55.9557C241.953 -57.9566 243.299 -58.8562 244.285 -59.0989C245.272 -59.3415 246.316 -59.0296 247.256 -57.6955C248.181 -56.3843 248.892 -54.2348 249.365 -51.2727C250.307 -45.3585 250.267 -36.4069 249.283 -25.0582C247.316 -2.37444 241.592 29.7324 232.568 65.8806C223.545 102.029 212.94 135.336 203.099 159.956C198.175 172.273 193.459 182.374 189.248 189.556C187.138 193.153 185.19 195.957 183.447 197.924C181.674 199.925 180.328 200.824 179.341 201.067C178.355 201.309 177.312 200.997 176.371 199.663C175.447 198.352 174.736 196.202 174.264 193.24C173.321 187.326 173.361 178.375 174.345 167.026C176.311 144.342 182.036 112.235 191.06 76.0863Z" stroke="#38F07F" stroke-width="2"/>
<path opacity="0.344828" d="M192.173 72.4859C203.427 35.9173 215.967 2.5281 227.135 -21.887C232.722 -34.1018 237.947 -44.0299 242.477 -50.9747C244.745 -54.4533 246.802 -57.1253 248.601 -58.9495C250.436 -60.8102 251.771 -61.5587 252.703 -61.6781C253.635 -61.7975 254.599 -61.3434 255.393 -59.8194C256.171 -58.3253 256.685 -55.9825 256.911 -52.8233C257.361 -46.5163 256.654 -37.1667 254.873 -25.4395C251.312 -1.9986 243.484 30.7871 232.229 67.3557C220.975 103.924 208.436 137.313 197.268 161.728C191.681 173.943 186.456 183.871 181.927 190.816C179.658 194.295 177.6 196.967 175.801 198.791C173.966 200.652 172.631 201.4 171.699 201.52C170.767 201.639 169.803 201.185 169.009 199.661C168.231 198.167 167.718 195.824 167.492 192.665C167.042 186.358 167.749 177.008 169.531 165.281C173.091 141.84 180.918 109.054 192.173 72.4859Z" stroke="#38F07F" stroke-width="2"/>
<path opacity="0.37931" d="M193.427 68.8712C206.827 32.1611 221.206 -1.05599 233.615 -25.0793C239.823 -37.0981 245.517 -46.7762 250.329 -53.4299C252.739 -56.7628 254.889 -59.2815 256.731 -60.9482C258.611 -62.6496 259.928 -63.2496 260.813 -63.2502C261.698 -63.2506 262.577 -62.6519 263.216 -60.9525C263.842 -59.2874 264.153 -56.7704 264.131 -53.439C264.086 -46.7884 262.716 -37.1132 260.151 -25.0968C255.023 -1.07826 245.154 32.1359 231.754 68.846C218.354 105.556 203.974 138.773 191.566 162.797C185.358 174.815 179.663 184.493 174.852 191.147C172.441 194.48 170.292 196.999 168.45 198.665C166.57 200.367 165.253 200.967 164.368 200.967C163.483 200.968 162.603 200.369 161.965 198.67C161.339 197.005 161.027 194.488 161.05 191.156C161.095 184.506 162.464 174.83 165.03 162.814C170.157 138.795 180.027 105.581 193.427 68.8712Z" stroke="#38F07F" stroke-width="2"/>
<path opacity="0.413793" d="M194.813 65.2563C210.256 28.6849 226.366 -4.10605 239.92 -27.5536C246.701 -39.2842 252.821 -48.6372 257.877 -54.9478C260.41 -58.1088 262.634 -60.4535 264.504 -61.9494C266.41 -63.4751 267.707 -63.9307 268.552 -63.8126C269.397 -63.6944 270.186 -62.9473 270.663 -61.0881C271.132 -59.2653 271.239 -56.5947 270.968 -53.1173C270.429 -46.1752 268.407 -36.2491 265.077 -24.0359C258.422 0.376244 246.586 33.7649 231.143 70.3362C215.7 106.908 199.59 139.699 186.036 163.146C179.255 174.877 173.135 184.23 168.079 190.54C165.546 193.702 163.321 196.046 161.452 197.542C159.545 199.068 158.248 199.523 157.403 199.405C156.558 199.287 155.769 198.54 155.292 196.681C154.824 194.858 154.717 192.187 154.988 188.71C155.528 181.768 157.549 171.842 160.879 159.629C167.534 135.216 179.37 101.828 194.813 65.2563Z" stroke="#38F07F" stroke-width="2"/>
<path opacity="0.448276" d="M196.328 61.6554C213.696 25.5017 231.413 -6.61306 246.009 -29.3052C253.312 -40.6578 259.809 -49.613 265.07 -55.5312C267.706 -58.4956 269.987 -60.6477 271.87 -61.9608C273.784 -63.2965 275.056 -63.6103 275.866 -63.3691C276.676 -63.1277 277.366 -62.2294 277.679 -60.2295C277.986 -58.264 277.887 -55.4611 277.371 -51.8651C276.341 -44.6858 273.683 -34.5864 269.615 -22.2698C261.483 2.34897 247.772 35.6575 230.403 71.8113C213.035 107.965 195.317 140.081 180.721 162.773C173.419 174.126 166.922 183.081 161.66 188.999C159.025 191.963 156.743 194.115 154.861 195.428C152.946 196.764 151.674 197.078 150.864 196.836C150.054 196.595 149.364 195.697 149.052 193.697C148.745 191.732 148.843 188.929 149.359 185.333C150.39 178.154 153.047 168.054 157.115 155.737C165.247 131.119 178.959 97.8093 196.328 61.6554Z" stroke="#38F07F" stroke-width="2"/>
<path opacity="0.482759" d="M197.966 58.0863C217.127 22.626 236.316 -8.56688 251.842 -30.33C259.61 -41.2183 266.434 -49.7073 271.859 -55.1874C274.576 -57.9321 276.897 -59.8746 278.777 -60.9947C280.683 -62.1302 281.928 -62.302 282.702 -61.9299C283.476 -61.5576 284.06 -60.5071 284.206 -58.3862C284.35 -56.2938 284.047 -53.3813 283.29 -49.6949C281.777 -42.3347 278.505 -32.1391 273.729 -19.813C264.183 4.82372 248.7 37.7971 229.539 73.2574C210.378 108.718 191.189 139.911 175.663 161.675C167.895 172.563 161.071 181.052 155.646 186.532C152.929 189.277 150.608 191.219 148.728 192.339C146.823 193.475 145.578 193.647 144.804 193.275C144.029 192.903 143.445 191.852 143.299 189.731C143.156 187.638 143.458 184.726 144.215 181.04C145.728 173.679 149 163.484 153.776 151.158C163.322 126.521 178.805 93.5468 197.966 58.0863Z" stroke="#38F07F" stroke-width="2"/>
<path opacity="0.517241" d="M199.725 54.5641C220.532 20.0675 241.047 -9.9659 257.383 -30.6336C265.557 -40.974 272.655 -48.9316 278.201 -53.9312C280.979 -56.4348 283.321 -58.1527 285.183 -59.0716C287.064 -59.9993 288.277 -60.029 289.01 -59.5178C289.744 -59.0065 290.214 -57.8042 290.193 -55.5803C290.173 -53.3776 289.67 -50.3787 288.677 -46.6313C286.694 -39.1479 282.832 -28.9356 277.386 -16.6947C266.5 7.77139 249.364 40.1589 228.557 74.6555C207.75 109.152 187.237 139.185 170.9 159.852C162.726 170.193 155.629 178.15 150.082 183.15C147.304 185.654 144.963 187.371 143.1 188.29C141.219 189.218 140.007 189.248 139.273 188.736C138.539 188.225 138.07 187.023 138.09 184.799C138.11 182.596 138.614 179.597 139.606 175.85C141.589 168.367 145.451 158.154 150.897 145.913C161.783 121.447 178.919 89.0605 199.725 54.5641Z" stroke="#38F07F" stroke-width="2"/>
<path opacity="0.551724" d="M201.597 51.1069C223.891 17.8374 245.572 -10.806 262.594 -30.2202C271.111 -39.9339 278.427 -47.2983 284.052 -51.7794C286.869 -54.023 289.213 -55.5049 291.044 -56.216C292.885 -56.931 294.06 -56.8138 294.743 -56.1564C295.427 -55.4989 295.776 -54.1504 295.591 -51.8419C295.408 -49.546 294.706 -46.4839 293.487 -42.7045C291.051 -35.1562 286.631 -25.0054 280.555 -12.9433C268.413 11.1647 249.756 42.7172 227.462 75.9867C205.168 109.256 183.487 137.9 166.464 157.315C157.948 167.028 150.631 174.393 145.006 178.874C142.19 181.117 139.846 182.599 138.014 183.31C136.173 184.025 134.999 183.908 134.315 183.251C133.632 182.593 133.282 181.245 133.467 178.936C133.651 176.64 134.352 173.578 135.571 169.799C138.008 162.251 142.428 152.1 148.503 140.038C160.645 115.93 179.302 84.3765 201.597 51.1069Z" stroke="#38F07F" stroke-width="2"/>
<path opacity="0.586207" d="M203.571 47.7359C227.182 15.9471 249.864 -11.0886 267.441 -29.1015C276.235 -38.1142 283.715 -44.8299 289.374 -48.7586C292.206 -50.7251 294.535 -51.959 296.321 -52.4575C298.111 -52.9569 299.239 -52.6892 299.861 -51.881C300.482 -51.0728 300.704 -49.5854 300.358 -47.2093C300.013 -44.8376 299.121 -41.7365 297.684 -37.9553C294.814 -30.4009 289.87 -20.3895 283.213 -8.59854C269.908 14.9668 249.873 45.4442 226.262 77.2331C202.651 109.022 179.968 136.058 162.392 154.071C153.597 163.084 146.118 169.799 140.459 173.728C137.627 175.694 135.299 176.928 133.512 177.427C131.723 177.927 130.594 177.66 129.972 176.851C129.351 176.043 129.129 174.555 129.475 172.179C129.821 169.807 130.712 166.706 132.149 162.924C135.019 155.37 139.963 145.359 146.62 133.568C159.925 110.003 179.96 79.5249 203.571 47.7359Z" stroke="#38F07F" stroke-width="2"/>
<path opacity="0.62069" d="M205.639 44.4705C230.386 14.4046 253.896 -10.817 271.892 -27.2913C280.897 -35.5343 288.48 -41.5494 294.129 -44.8967C296.956 -46.5717 299.251 -47.5494 300.98 -47.8322C302.707 -48.1147 303.78 -47.6933 304.327 -46.7332C304.874 -45.7732 304.963 -44.1567 304.459 -41.7286C303.955 -39.2985 302.88 -36.1819 301.238 -32.4277C297.958 -24.9258 292.529 -15.1317 285.341 -3.7022C270.975 19.1404 249.716 48.3104 224.969 78.3764C200.222 108.443 176.712 133.665 158.716 150.139C149.711 158.382 142.128 164.397 136.479 167.744C133.652 169.419 131.357 170.397 129.628 170.68C127.901 170.962 126.829 170.54 126.282 169.58C125.734 168.62 125.645 167.004 126.148 164.576C126.653 162.146 127.728 159.029 129.37 155.275C132.65 147.773 138.079 137.979 145.267 126.55C159.632 103.707 180.892 74.5367 205.639 44.4705Z" stroke="#38F07F" stroke-width="2"/>
<path opacity="0.655172" d="M207.788 41.3261C233.483 13.2119 257.641 -10.0039 275.918 -24.8144C285.063 -32.225 292.692 -37.4951 298.288 -40.2364C301.087 -41.6078 303.332 -42.3225 304.99 -42.3876C306.643 -42.4525 307.649 -41.872 308.11 -40.7625C308.571 -39.653 308.525 -37.921 307.868 -35.457C307.208 -32.9864 305.958 -29.8775 304.124 -26.1799C300.46 -18.7883 294.588 -9.28685 286.925 1.6937C271.611 23.6389 249.29 51.2797 223.596 79.3939C197.902 107.508 173.744 130.724 155.467 145.534C146.321 152.945 138.693 158.215 133.097 160.956C130.298 162.328 128.053 163.043 126.395 163.108C124.741 163.173 123.735 162.592 123.274 161.483C122.814 160.373 122.86 158.642 123.517 156.178C124.176 153.707 125.427 150.598 127.26 146.9C130.925 139.508 136.796 130.007 144.459 119.026C159.774 97.0811 182.094 69.4404 207.788 41.3261Z" stroke="#38F07F" stroke-width="2"/>
<path opacity="0.689655" d="M210.004 38.3247C236.448 12.3764 261.069 -8.65682 279.487 -21.6914C288.703 -28.2134 296.318 -32.6982 301.818 -34.8142C304.568 -35.8724 306.746 -36.3213 308.322 -36.1685C309.892 -36.0163 310.82 -35.2745 311.183 -34.0211C311.546 -32.7678 311.363 -30.9355 310.557 -28.4518C309.747 -25.9583 308.331 -22.8806 306.321 -19.2676C302.301 -12.0427 296.033 -2.90573 287.955 7.54209C271.809 28.4224 248.598 54.3234 222.154 80.2716C195.709 106.22 171.089 127.252 152.671 140.287C143.455 146.809 135.84 151.295 130.34 153.411C127.59 154.469 125.413 154.917 123.837 154.764C122.267 154.612 121.338 153.871 120.975 152.617C120.612 151.364 120.795 149.531 121.602 147.047C122.411 144.554 123.827 141.477 125.837 137.864C129.857 130.639 136.125 121.501 144.204 111.053C160.349 90.1732 183.559 64.2728 210.004 38.3247Z" stroke="#38F07F" stroke-width="2"/>
<path opacity="0.724138" d="M212.274 35.4803C239.267 11.8957 264.16 -6.79487 282.578 -17.9552C291.793 -23.5395 299.337 -27.2073 304.699 -28.6835C310.124 -30.1773 313.016 -29.352 313.528 -26.5716C314.041 -23.7909 312.213 -18.8418 307.818 -11.7553C303.475 -4.75194 296.859 3.95168 288.427 13.7873C271.575 33.4435 247.653 57.4067 220.661 80.9914C193.668 104.576 168.774 123.267 150.356 134.427C141.141 140.011 133.597 143.679 128.236 145.155C122.811 146.649 119.918 145.824 119.406 143.043C118.894 140.263 120.722 135.313 125.116 128.227C129.459 121.224 136.075 112.52 144.507 102.684C161.359 83.0281 185.282 59.0652 212.274 35.4803Z" stroke="#38F07F" stroke-width="2"/>
<path opacity="0.758621" d="M214.581 32.8092C241.915 11.7669 266.892 -4.43975 285.168 -13.6424C294.312 -18.2471 301.726 -21.0706 306.909 -21.8977C312.137 -22.7321 314.847 -21.5029 315.13 -18.48C315.412 -15.457 313.279 -10.4994 308.606 -3.7118C303.974 3.01717 297.062 11.2205 288.342 20.3685C270.914 38.6514 246.463 60.4957 219.129 81.5381C191.794 102.581 166.817 118.787 148.541 127.99C139.397 132.594 131.983 135.419 126.8 136.246C121.572 137.08 118.862 135.851 118.579 132.828C118.297 129.805 120.43 124.848 125.103 118.06C129.735 111.331 136.647 103.127 145.367 93.9787C162.795 75.6957 187.247 53.8517 214.581 32.8092Z" stroke="#38F07F" stroke-width="2"/>
<path opacity="0.793103" d="M216.91 30.325C244.377 11.9845 269.246 -1.61572 287.24 -8.79261C296.243 -12.3835 303.471 -14.3443 308.437 -14.518C313.434 -14.6927 315.938 -13.0595 315.98 -9.818C316.021 -6.57653 313.602 -1.6554 308.686 4.78841C303.8 11.1931 296.646 18.836 287.704 27.2274C269.833 43.9987 245.042 63.5582 217.575 81.8987C190.108 100.239 165.239 113.84 147.244 121.017C138.241 124.608 131.013 126.569 126.047 126.742C121.051 126.917 118.546 125.284 118.505 122.042C118.463 118.801 120.883 113.88 125.798 107.436C130.684 101.031 137.838 93.3885 146.78 84.9969C164.651 68.2255 189.443 48.6656 216.91 30.325Z" stroke="#38F07F" stroke-width="2"/>
<path opacity="0.827586" d="M219.246 28.0382C246.636 12.5379 271.207 1.64495 288.783 -3.4539C297.577 -6.00495 304.564 -7.0892 309.277 -6.60985C314.008 -6.12854 316.283 -4.09537 316.077 -0.66272C315.872 2.76993 313.186 7.6105 308.064 13.6681C302.962 19.7014 295.619 26.7267 286.525 34.2984C268.349 49.4321 243.405 66.5593 216.015 82.0596C188.625 97.5598 164.054 108.454 146.478 113.553C137.684 116.104 130.696 117.188 125.984 116.709C121.252 116.228 118.978 114.194 119.183 110.762C119.388 107.329 122.074 102.489 127.197 96.4311C132.299 90.3977 139.642 83.3722 148.736 75.8003C166.912 60.6666 191.856 43.5385 219.246 28.0382Z" stroke="#38F07F" stroke-width="2"/>
<path opacity="0.862069" d="M221.572 25.9606C248.677 13.4168 272.763 5.31186 289.787 2.32707C298.305 0.833762 305 0.631849 309.425 1.75903C313.86 2.88904 315.884 5.31343 315.428 8.90683C314.972 12.5003 312.043 17.2169 306.75 22.8488C301.471 28.4668 293.995 34.8231 284.818 41.5188C266.475 54.9019 241.569 69.4699 214.464 82.0137C187.36 94.5574 163.273 102.662 146.249 105.647C137.731 107.14 131.037 107.342 126.612 106.215C122.177 105.085 120.154 102.66 120.609 99.0669C121.065 95.4735 123.994 90.757 129.287 85.125C134.566 79.5071 142.041 73.151 151.218 66.4555C169.561 53.0724 194.467 38.5043 221.572 25.9606Z" stroke="#38F07F" stroke-width="2"/>
<path opacity="0.896552" d="M223.872 24.0988C250.486 14.6052 273.906 9.34701 290.251 8.49634C298.428 8.07077 304.781 8.75155 308.885 10.5169C312.995 12.2847 314.746 15.0881 314.041 18.8095C313.335 22.5309 310.188 27.0816 304.763 32.2508C299.345 37.4126 291.793 43.0529 282.603 48.8227C264.231 60.3563 239.552 72.257 212.938 81.7506C186.325 91.2442 162.906 96.5011 146.561 97.3518C138.384 97.7774 132.031 97.0974 127.927 95.3322C123.817 93.5644 122.066 90.7608 122.771 87.0395C123.477 83.3181 126.623 78.7675 132.049 73.5983C137.467 68.4363 145.018 62.7954 154.209 57.0254C172.581 45.492 197.259 33.5924 223.872 24.0988Z" stroke="#38F07F" stroke-width="2"/>
<path opacity="0.931035" d="M226.133 22.4616C252.054 16.0882 274.631 13.7147 290.175 15.0022C297.951 15.6463 303.916 17.2022 307.67 19.5917C311.427 21.9828 312.886 25.148 311.934 28.9622C310.982 32.7765 307.648 37.1201 302.128 41.792C296.612 46.4607 289.039 51.3461 279.904 56.1482C261.642 65.7476 237.376 74.8914 211.454 81.2647C185.533 87.6379 162.956 90.0116 147.412 88.724C139.636 88.0799 133.672 86.5228 129.918 84.1334C126.161 81.7422 124.701 78.5774 125.653 74.7631C126.606 70.9488 129.94 66.6049 135.46 61.933C140.976 57.2645 148.548 52.3799 157.683 47.578C175.945 37.9786 200.212 28.8349 226.133 22.4616Z" stroke="#38F07F" stroke-width="2"/>
<path opacity="0.965517" d="M228.338 21.0511C253.372 17.8449 274.936 18.3724 289.564 21.7869C296.881 23.495 302.414 25.9143 305.791 28.9096C309.169 31.9059 310.322 35.4094 309.131 39.28C307.939 43.1508 304.447 47.2498 298.872 51.3928C293.298 55.5345 285.761 59.6279 276.748 63.4273C258.732 71.0226 235.06 77.3436 210.026 80.5499C184.992 83.7561 163.427 83.2287 148.799 79.8142C141.482 78.1061 135.948 75.6868 132.571 72.6915C129.193 69.6951 128.041 66.1909 129.233 62.3202C130.424 58.4495 133.916 54.3512 139.491 50.2083C145.065 46.0666 152.602 41.9732 161.615 38.1738C179.631 30.5784 203.303 24.2573 228.338 21.0511Z" stroke="#38F07F" stroke-width="2"/>
<path d="M230.471 19.8726C254.43 19.8568 274.822 23.2797 288.426 28.7949C295.23 31.5537 300.292 34.8179 303.267 38.3967C306.243 41.9764 307.074 45.7925 305.655 49.6823C304.235 53.5721 300.616 57.3903 295.025 60.9756C289.435 64.5602 281.988 67.8334 273.165 70.6026C255.528 76.1383 232.627 79.5888 208.667 79.6046C184.708 79.6203 164.315 76.1984 150.712 70.6832C143.907 67.9243 138.846 64.6594 135.871 61.0805C132.895 57.5008 132.063 53.6855 133.483 49.7958C134.903 45.9059 138.521 42.0869 144.113 38.5015C149.703 34.917 157.15 31.6447 165.972 28.8755C183.61 23.3397 206.511 19.8884 230.471 19.8726Z" stroke="#38F07F" stroke-width="2"/>
</g>
</g>
<defs>
<linearGradient id="paint0_linear_1023_2225" x1="132" y1="0" x2="132" y2="240" gradientUnits="userSpaceOnUse">
<stop stop-color="#011328"/>
<stop offset="1" stop-color="#000C1B"/>
</linearGradient>
<linearGradient id="paint1_linear_1023_2225" x1="12" y1="233" x2="252" y2="21" gradientUnits="userSpaceOnUse">
<stop stop-color="#0F6B1A" stop-opacity="0"/>
<stop offset="1" stop-color="#0F6B28" stop-opacity="0.8"/>
</linearGradient>
<clipPath id="clip0_1023_2225">
<rect width="264" height="240" fill="white"/>
</clipPath>
</defs>
</svg>
