<svg width="264" height="240" viewBox="0 0 264 240" fill="none" xmlns="http://www.w3.org/2000/svg">
<g clip-path="url(#clip0_807_2112)">
<rect width="264" height="240" fill="url(#paint0_linear_807_2112)"/>
<rect width="264" height="240" fill="url(#paint1_linear_807_2112)" fill-opacity="0.8"/>
<g opacity="0.1">
<path opacity="0.0344828" d="M187.9 102.253C178.117 78.6926 171.681 54.7501 169.174 35.1067C167.92 25.2776 167.657 16.5784 168.426 9.57741C169.204 2.49344 170.989 -2.45576 173.532 -5.23844C176.075 -8.02108 179.571 -8.85042 183.908 -7.36307C188.194 -5.89317 193.063 -2.23367 198.205 3.34126C208.482 14.4827 219.741 33.1485 229.524 56.709C239.308 80.2697 245.743 104.213 248.25 123.857C249.504 133.686 249.767 142.385 248.998 149.386C248.22 156.47 246.435 161.42 243.892 164.202C241.349 166.985 237.853 167.814 233.516 166.327C229.23 164.857 224.361 161.197 219.218 155.622C208.942 144.481 197.684 125.814 187.9 102.253Z" stroke="#F08838" stroke-width="2"/>
<path opacity="0.0689655" d="M187.708 99.4104C180.198 73.4845 175.889 47.6016 174.983 26.7325C174.53 16.2904 174.932 7.15721 176.185 -0.0658113C176.812 -3.67795 177.643 -6.75522 178.654 -9.24892C179.661 -11.7331 180.816 -13.5664 182.094 -14.8209C183.373 -16.0751 184.843 -16.8179 186.525 -16.9723C188.213 -17.1272 190.064 -16.6809 192.043 -15.6259C196 -13.5161 200.344 -9.03914 204.802 -2.52613C213.71 10.4904 222.984 31.5013 230.494 57.4272C238.003 83.353 242.312 109.235 243.218 130.104C243.671 140.546 243.27 149.68 242.016 156.903C241.389 160.515 240.558 163.592 239.547 166.086C238.54 168.57 237.386 170.402 236.108 171.657C234.829 172.911 233.358 173.655 231.676 173.809C229.988 173.964 228.137 173.518 226.158 172.463C222.201 170.353 217.857 165.876 213.4 159.363C204.491 146.346 195.217 125.336 187.708 99.4104Z" stroke="#F08838" stroke-width="2"/>
<path opacity="0.103448" d="M187.682 96.4099C182.505 68.316 180.357 40.6914 181.06 18.7558C181.412 7.78006 182.476 -1.71821 184.207 -9.10857C185.073 -12.8057 186.092 -15.9149 187.237 -18.3859C188.378 -20.85 189.596 -22.5823 190.868 -23.693C192.139 -24.8037 193.57 -25.3865 195.177 -25.3237C196.788 -25.2606 198.511 -24.5478 200.311 -23.1795C203.907 -20.4443 207.691 -15.1817 211.43 -7.77959C218.901 7.01393 226.118 30.2091 231.295 58.303C236.472 86.3969 238.62 114.022 237.917 135.957C237.565 146.933 236.501 156.431 234.77 163.822C233.904 167.518 232.885 170.627 231.741 173.098C230.6 175.562 229.38 177.295 228.109 178.406C226.838 179.517 225.408 180.099 223.801 180.036C222.189 179.973 220.465 179.261 218.666 177.892C215.069 175.157 211.285 169.895 207.547 162.493C200.076 147.699 192.859 124.504 187.682 96.4099Z" stroke="#F08838" stroke-width="2"/>
<path opacity="0.137931" d="M187.827 93.2682C185.022 63.2205 185.054 34.0643 187.361 11.2297C188.516 -0.195737 190.236 -9.98747 192.432 -17.4887C193.531 -21.2424 194.731 -24.3592 196.001 -26.7898C197.27 -29.2183 198.539 -30.8357 199.788 -31.797C201.037 -32.7583 202.418 -33.1812 203.939 -32.9009C205.462 -32.6203 207.044 -31.6451 208.649 -29.973C211.857 -26.6316 215.052 -20.6235 218.042 -12.3884C224.016 4.07008 229.121 29.2728 231.925 59.3205C234.729 89.3686 234.698 118.525 232.39 141.36C231.235 152.785 229.515 162.577 227.319 170.078C226.22 173.832 225.02 176.949 223.75 179.379C222.482 181.808 221.212 183.425 219.963 184.386C218.715 185.347 217.334 185.771 215.812 185.49C214.289 185.21 212.707 184.235 211.102 182.563C207.894 179.221 204.7 173.213 201.71 164.978C195.735 148.52 190.631 123.316 187.827 93.2682Z" stroke="#F08838" stroke-width="2"/>
<path opacity="0.172414" d="M188.143 90.0025C187.733 58.2295 189.944 27.7638 193.84 4.20467C195.79 -7.58298 198.154 -17.5921 200.799 -25.1463C202.123 -28.9276 203.495 -32.0293 204.882 -34.4018C206.271 -36.7789 207.579 -38.2679 208.791 -39.0773C210.003 -39.8866 211.327 -40.1553 212.753 -39.6579C214.176 -39.1614 215.604 -37.9294 217.002 -35.9657C219.795 -32.0425 222.374 -25.3343 224.591 -16.3289C229.023 1.66944 231.974 28.6882 232.384 60.4612C232.793 92.2344 230.583 122.701 226.686 146.26C224.737 158.048 222.373 168.057 219.728 175.611C218.404 179.392 217.032 182.493 215.646 184.866C214.257 187.243 212.949 188.732 211.737 189.541C210.524 190.351 209.2 190.619 207.774 190.122C206.351 189.625 204.923 188.394 203.525 186.43C200.732 182.507 198.152 175.799 195.935 166.794C191.503 148.795 188.552 121.776 188.143 90.0025Z" stroke="#F08838" stroke-width="2"/>
<path opacity="0.206897" d="M188.629 86.6317C190.618 53.3755 194.993 21.8324 200.449 -2.27112C203.178 -14.331 206.168 -24.4809 209.243 -32.0296C210.782 -35.8092 212.317 -38.8719 213.81 -41.1687C215.311 -43.478 216.645 -44.8277 217.809 -45.4863C218.973 -46.1449 220.233 -46.2638 221.553 -45.5509C222.866 -44.8418 224.129 -43.3623 225.309 -41.1213C227.664 -36.6455 229.607 -29.2872 231.035 -19.5801C233.888 -0.178907 234.664 28.4497 232.675 61.7058C230.686 94.962 226.311 126.506 220.855 150.609C218.125 162.669 215.135 172.819 212.061 180.368C210.521 184.147 208.987 187.21 207.494 189.507C205.993 191.816 204.659 193.166 203.495 193.825C202.331 194.483 201.07 194.602 199.75 193.889C198.437 193.18 197.174 191.701 195.995 189.46C193.64 184.984 191.697 177.626 190.269 167.918C187.415 148.517 186.64 119.888 188.629 86.6317Z" stroke="#F08838" stroke-width="2"/>
<path opacity="0.241379" d="M189.282 83.1762C193.655 48.6905 200.161 16.3106 207.135 -8.15283C210.625 -20.3924 214.218 -30.6046 217.699 -38.089C219.442 -41.8369 221.129 -44.8365 222.717 -47.0402C224.32 -49.2652 225.668 -50.4687 226.776 -50.9811C227.883 -51.4935 229.075 -51.4654 230.279 -50.5398C231.471 -49.6228 232.559 -47.9073 233.51 -45.4061C235.409 -40.4115 236.699 -32.4594 237.326 -22.1247C238.579 -1.46873 237.172 28.5514 232.799 63.037C228.426 97.5228 221.92 129.903 214.946 154.367C211.456 166.606 207.863 176.819 204.382 184.303C202.639 188.051 200.952 191.051 199.364 193.254C197.761 195.479 196.413 196.683 195.305 197.195C194.198 197.708 193.006 197.68 191.802 196.754C190.61 195.837 189.521 194.121 188.571 191.62C186.672 186.626 185.382 178.673 184.755 168.339C183.502 147.683 184.909 117.662 189.282 83.1762Z" stroke="#F08838" stroke-width="2"/>
<path opacity="0.275862" d="M190.094 79.6552C196.818 44.2031 205.405 11.2343 213.845 -13.4018C218.067 -25.7275 222.238 -35.9237 226.099 -43.2854C228.033 -46.9725 229.858 -49.8861 231.529 -51.9797C233.224 -54.1021 234.576 -55.1541 235.623 -55.5274C236.669 -55.9005 237.788 -55.7299 238.865 -54.5966C239.928 -53.4784 240.832 -51.538 241.546 -48.7956C242.973 -43.3201 243.601 -34.8359 243.422 -23.9526C243.064 -2.19951 239.484 28.9831 232.76 64.4352C226.036 99.8875 217.449 132.857 209.009 157.493C204.787 169.819 200.615 180.015 196.754 187.377C194.82 191.064 192.996 193.977 191.324 196.071C189.63 198.193 188.279 199.245 187.232 199.618C186.186 199.992 185.066 199.821 183.988 198.688C182.926 197.57 182.022 195.629 181.308 192.887C179.881 187.411 179.253 178.927 179.432 168.044C179.79 146.291 183.37 115.108 190.094 79.6552Z" stroke="#F08838" stroke-width="2"/>
<path opacity="0.310345" d="M191.06 76.0863C200.083 39.938 210.688 6.63153 220.529 -17.9884C225.453 -30.3057 230.169 -40.4072 234.381 -47.5886C236.49 -51.1854 238.438 -53.9889 240.181 -55.9557C241.953 -57.9566 243.299 -58.8562 244.285 -59.0989C245.272 -59.3415 246.316 -59.0296 247.256 -57.6955C248.181 -56.3843 248.892 -54.2348 249.365 -51.2727C250.307 -45.3585 250.267 -36.4069 249.283 -25.0582C247.316 -2.37444 241.592 29.7324 232.568 65.8806C223.545 102.029 212.94 135.336 203.099 159.956C198.175 172.273 193.459 182.374 189.248 189.556C187.138 193.153 185.19 195.957 183.447 197.924C181.674 199.925 180.328 200.824 179.341 201.067C178.355 201.309 177.312 200.997 176.371 199.663C175.447 198.352 174.736 196.202 174.264 193.24C173.321 187.326 173.361 178.375 174.345 167.026C176.311 144.342 182.036 112.235 191.06 76.0863Z" stroke="#F08838" stroke-width="2"/>
<path opacity="0.344828" d="M192.174 72.4859C203.428 35.9173 215.968 2.5281 227.136 -21.887C232.723 -34.1018 237.948 -44.0299 242.477 -50.9747C244.746 -54.4533 246.803 -57.1253 248.602 -58.9495C250.437 -60.8102 251.772 -61.5587 252.704 -61.6781C253.636 -61.7975 254.6 -61.3434 255.394 -59.8194C256.172 -58.3253 256.686 -55.9825 256.912 -52.8233C257.362 -46.5163 256.655 -37.1667 254.873 -25.4395C251.313 -1.9986 243.485 30.7871 232.23 67.3557C220.976 103.924 208.437 137.313 197.269 161.728C191.682 173.943 186.457 183.871 181.928 190.816C179.659 194.295 177.601 196.967 175.802 198.791C173.966 200.652 172.632 201.4 171.7 201.52C170.768 201.639 169.804 201.185 169.01 199.661C168.232 198.167 167.719 195.824 167.493 192.665C167.043 186.358 167.75 177.008 169.531 165.281C173.092 141.84 180.919 109.054 192.174 72.4859Z" stroke="#F08838" stroke-width="2"/>
<path opacity="0.37931" d="M193.427 68.8712C206.827 32.1611 221.206 -1.05599 233.615 -25.0793C239.823 -37.0981 245.517 -46.7762 250.329 -53.4299C252.739 -56.7628 254.889 -59.2815 256.731 -60.9482C258.611 -62.6496 259.928 -63.2496 260.813 -63.2502C261.698 -63.2506 262.577 -62.6519 263.216 -60.9525C263.842 -59.2874 264.153 -56.7704 264.131 -53.439C264.086 -46.7884 262.716 -37.1132 260.151 -25.0968C255.023 -1.07826 245.154 32.1359 231.754 68.846C218.354 105.556 203.974 138.773 191.566 162.797C185.358 174.815 179.663 184.493 174.852 191.147C172.441 194.48 170.292 196.999 168.45 198.665C166.57 200.367 165.253 200.967 164.368 200.967C163.483 200.968 162.603 200.369 161.965 198.67C161.339 197.005 161.027 194.488 161.05 191.156C161.095 184.506 162.464 174.83 165.03 162.814C170.157 138.795 180.027 105.581 193.427 68.8712Z" stroke="#F08838" stroke-width="2"/>
<path opacity="0.413793" d="M194.813 65.2564C210.256 28.6851 226.366 -4.10593 239.92 -27.5534C246.701 -39.2841 252.821 -48.6371 257.877 -54.9477C260.41 -58.1086 262.634 -60.4534 264.504 -61.9493C266.41 -63.475 267.707 -63.9306 268.552 -63.8125C269.397 -63.6943 270.186 -62.9472 270.663 -61.088C271.132 -59.2652 271.239 -56.5946 270.968 -53.1172C270.429 -46.1751 268.407 -36.2489 265.077 -24.0358C258.422 0.376366 246.586 33.765 231.143 70.3363C215.7 106.908 199.59 139.699 186.036 163.146C179.255 174.877 173.135 184.23 168.079 190.541C165.546 193.702 163.321 196.046 161.452 197.542C159.545 199.068 158.248 199.523 157.403 199.405C156.558 199.287 155.769 198.54 155.292 196.681C154.824 194.858 154.717 192.187 154.988 188.71C155.528 181.768 157.549 171.842 160.879 159.629C167.534 135.217 179.37 101.828 194.813 65.2564Z" stroke="#F08838" stroke-width="2"/>
<path opacity="0.448276" d="M196.328 61.6556C213.697 25.5018 231.414 -6.61294 246.01 -29.305C253.313 -40.6577 259.81 -49.6129 265.071 -55.5311C267.707 -58.4955 269.988 -60.6476 271.871 -61.9606C273.785 -63.2964 275.057 -63.6101 275.867 -63.369C276.677 -63.1275 277.367 -62.2292 277.68 -60.2294C277.987 -58.2638 277.888 -55.461 277.372 -51.8649C276.342 -44.6857 273.684 -34.5862 269.616 -22.2697C261.484 2.34909 247.773 35.6577 230.404 71.8114C213.036 107.965 195.318 140.081 180.722 162.773C173.42 174.126 166.923 183.081 161.661 188.999C159.026 191.963 156.744 194.115 154.862 195.429C152.947 196.764 151.675 197.078 150.865 196.837C150.055 196.595 149.365 195.697 149.053 193.697C148.746 191.732 148.844 188.929 149.36 185.333C150.391 178.154 153.048 168.054 157.116 155.738C165.248 131.119 178.96 97.8095 196.328 61.6556Z" stroke="#F08838" stroke-width="2"/>
<path opacity="0.482759" d="M197.966 58.0863C217.127 22.626 236.316 -8.56688 251.842 -30.33C259.61 -41.2183 266.434 -49.7073 271.859 -55.1874C274.576 -57.9321 276.897 -59.8746 278.777 -60.9947C280.683 -62.1302 281.928 -62.302 282.702 -61.9299C283.476 -61.5576 284.06 -60.5071 284.206 -58.3862C284.35 -56.2938 284.047 -53.3813 283.29 -49.6949C281.777 -42.3347 278.505 -32.1391 273.729 -19.813C264.183 4.82372 248.7 37.7971 229.539 73.2574C210.378 108.718 191.189 139.911 175.663 161.675C167.895 172.563 161.071 181.052 155.646 186.532C152.929 189.277 150.608 191.219 148.728 192.339C146.823 193.475 145.578 193.647 144.804 193.275C144.029 192.903 143.445 191.852 143.299 189.731C143.156 187.638 143.458 184.726 144.215 181.04C145.728 173.679 149 163.484 153.776 151.158C163.322 126.521 178.805 93.5468 197.966 58.0863Z" stroke="#F08838" stroke-width="2"/>
<path opacity="0.517241" d="M199.725 54.5642C220.532 20.0676 241.047 -9.96578 257.383 -30.6335C265.557 -40.9739 272.655 -48.9315 278.201 -53.9311C280.979 -56.4347 283.321 -58.1525 285.183 -59.0714C287.064 -59.9992 288.277 -60.0288 289.01 -59.5176C289.744 -59.0064 290.214 -57.8041 290.193 -55.5802C290.173 -53.3775 289.67 -50.3786 288.677 -46.6312C286.694 -39.1478 282.832 -28.9354 277.386 -16.6946C266.5 7.77151 249.364 40.1591 228.557 74.6557C207.75 109.152 187.237 139.185 170.9 159.852C162.726 170.193 155.629 178.15 150.082 183.15C147.304 185.654 144.963 187.371 143.1 188.29C141.219 189.218 140.007 189.248 139.273 188.737C138.539 188.225 138.07 187.023 138.09 184.799C138.11 182.596 138.614 179.598 139.606 175.85C141.589 168.367 145.451 158.154 150.897 145.914C161.783 121.448 178.919 89.0606 199.725 54.5642Z" stroke="#F08838" stroke-width="2"/>
<path opacity="0.551724" d="M201.597 51.107C223.891 17.8375 245.572 -10.8059 262.594 -30.2201C271.111 -39.9338 278.427 -47.2982 284.052 -51.7793C286.869 -54.0229 289.213 -55.5048 291.044 -56.2159C292.885 -56.9308 294.06 -56.8137 294.743 -56.1563C295.427 -55.4988 295.776 -54.1503 295.591 -51.8418C295.408 -49.5458 294.706 -46.4837 293.487 -42.7044C291.051 -35.1561 286.631 -25.0053 280.555 -12.9431C268.413 11.1648 249.756 42.7174 227.462 75.9868C205.168 109.256 183.487 137.9 166.464 157.315C157.948 167.029 150.631 174.393 145.006 178.874C142.19 181.118 139.846 182.599 138.014 183.311C136.173 184.026 134.999 183.908 134.315 183.251C133.632 182.594 133.282 181.245 133.467 178.937C133.651 176.641 134.352 173.578 135.571 169.799C138.008 162.251 142.428 152.1 148.503 140.038C160.645 115.93 179.302 84.3766 201.597 51.107Z" stroke="#F08838" stroke-width="2"/>
<path opacity="0.586207" d="M203.571 47.736C227.182 15.9472 249.864 -11.0885 267.441 -29.1013C276.235 -38.1141 283.715 -44.8298 289.374 -48.7585C292.206 -50.725 294.535 -51.9588 296.321 -52.4574C298.111 -52.9567 299.239 -52.6891 299.861 -51.8809C300.482 -51.0727 300.704 -49.5853 300.358 -47.2091C300.013 -44.8375 299.121 -41.7364 297.684 -37.9552C294.814 -30.4008 289.87 -20.3894 283.213 -8.59842C269.908 14.967 249.873 45.4443 226.262 77.2332C202.651 109.022 179.968 136.058 162.392 154.071C153.597 163.084 146.118 169.799 140.459 173.728C137.627 175.694 135.299 176.929 133.512 177.427C131.723 177.927 130.594 177.66 129.972 176.852C129.351 176.043 129.129 174.555 129.475 172.179C129.821 169.807 130.712 166.706 132.149 162.924C135.019 155.37 139.963 145.359 146.62 133.568C159.925 110.003 179.96 79.525 203.571 47.736Z" stroke="#F08838" stroke-width="2"/>
<path opacity="0.62069" d="M205.639 44.4706C230.386 14.4047 253.896 -10.8169 271.892 -27.2911C280.897 -35.5342 288.48 -41.5493 294.129 -44.8966C296.956 -46.5716 299.251 -47.5493 300.98 -47.8321C302.707 -48.1146 303.78 -47.6932 304.327 -46.7331C304.874 -45.773 304.963 -44.1565 304.459 -41.7285C303.955 -39.2984 302.88 -36.1818 301.238 -32.4276C297.958 -24.9257 292.529 -15.1316 285.341 -3.70208C270.975 19.1405 249.716 48.3106 224.969 78.3765C200.222 108.443 176.712 133.665 158.716 150.139C149.711 158.382 142.128 164.397 136.479 167.745C133.652 169.419 131.357 170.397 129.628 170.68C127.901 170.962 126.829 170.54 126.282 169.58C125.734 168.62 125.645 167.004 126.148 164.576C126.653 162.146 127.728 159.03 129.37 155.276C132.65 147.774 138.079 137.98 145.267 126.55C159.632 103.707 180.892 74.5368 205.639 44.4706Z" stroke="#F08838" stroke-width="2"/>
<path opacity="0.655172" d="M207.788 41.3261C233.483 13.2119 257.641 -10.0039 275.918 -24.8144C285.063 -32.225 292.692 -37.4951 298.288 -40.2364C301.087 -41.6078 303.332 -42.3225 304.99 -42.3876C306.643 -42.4525 307.649 -41.872 308.11 -40.7625C308.571 -39.653 308.525 -37.921 307.868 -35.457C307.208 -32.9864 305.958 -29.8775 304.124 -26.1799C300.46 -18.7883 294.588 -9.28685 286.925 1.6937C271.611 23.6389 249.29 51.2797 223.596 79.3939C197.902 107.508 173.744 130.724 155.467 145.534C146.321 152.945 138.693 158.215 133.097 160.956C130.298 162.328 128.053 163.043 126.395 163.108C124.741 163.173 123.735 162.592 123.274 161.483C122.814 160.373 122.86 158.642 123.517 156.178C124.176 153.707 125.427 150.598 127.26 146.9C130.925 139.508 136.796 130.007 144.459 119.026C159.774 97.0811 182.094 69.4404 207.788 41.3261Z" stroke="#F08838" stroke-width="2"/>
<path opacity="0.689655" d="M210.004 38.3248C236.448 12.3766 261.069 -8.6567 279.487 -21.6912C288.703 -28.2132 296.318 -32.6981 301.818 -34.8141C304.568 -35.8722 306.746 -36.3212 308.322 -36.1684C309.892 -36.0162 310.82 -35.2743 311.183 -34.021C311.546 -32.7677 311.363 -30.9354 310.557 -28.4517C309.747 -25.9581 308.331 -22.8805 306.321 -19.2674C302.301 -12.0426 296.033 -2.90561 287.955 7.54221C271.809 28.4225 248.598 54.3235 222.154 80.2718C195.709 106.22 171.089 127.253 152.671 140.287C143.455 146.809 135.84 151.295 130.34 153.411C127.59 154.469 125.413 154.917 123.837 154.764C122.267 154.612 121.338 153.871 120.975 152.618C120.612 151.364 120.795 149.532 121.602 147.048C122.411 144.554 123.827 141.477 125.837 137.864C129.857 130.639 136.125 121.502 144.204 111.054C160.349 90.1734 183.559 64.2729 210.004 38.3248Z" stroke="#F08838" stroke-width="2"/>
<path opacity="0.724138" d="M212.275 35.4804C239.268 11.8958 264.161 -6.79475 282.579 -17.9551C291.794 -23.5394 299.338 -27.2071 304.7 -28.6834C310.125 -30.1771 313.017 -29.3519 313.529 -26.5714C314.042 -23.7908 312.214 -18.8417 307.819 -11.7552C303.476 -4.75182 296.86 3.95181 288.428 13.7874C271.576 33.4436 247.654 57.4068 220.662 80.9916C193.669 104.576 168.775 123.267 150.357 134.427C141.142 140.011 133.598 143.679 128.237 145.155C122.812 146.649 119.919 145.824 119.407 143.043C118.895 140.263 120.723 135.313 125.117 128.227C129.46 121.224 136.076 112.52 144.508 102.685C161.36 83.0282 185.283 59.0653 212.275 35.4804Z" stroke="#F08838" stroke-width="2"/>
<path opacity="0.758621" d="M214.582 32.8093C241.916 11.767 266.893 -4.43963 285.169 -13.6423C294.313 -18.2469 301.727 -21.0704 306.91 -21.8976C312.138 -22.732 314.848 -21.5028 315.131 -18.4798C315.413 -15.4569 313.28 -10.4993 308.607 -3.71168C303.975 3.0173 297.063 11.2206 288.343 20.3686C270.915 38.6515 246.464 60.4959 219.13 81.5382C191.795 102.581 166.818 118.787 148.542 127.99C139.398 132.594 131.984 135.419 126.801 136.246C121.573 137.08 118.863 135.851 118.58 132.828C118.298 129.805 120.431 124.848 125.104 118.06C129.736 111.331 136.648 103.127 145.368 93.9788C162.796 75.6958 187.248 53.8518 214.582 32.8093Z" stroke="#F08838" stroke-width="2"/>
<path opacity="0.793103" d="M216.911 30.325C244.378 11.9845 269.247 -1.61572 287.241 -8.79261C296.244 -12.3835 303.472 -14.3443 308.438 -14.518C313.435 -14.6927 315.939 -13.0595 315.981 -9.818C316.022 -6.57653 313.603 -1.6554 308.687 4.78841C303.801 11.1931 296.647 18.836 287.705 27.2274C269.834 43.9987 245.043 63.5582 217.576 81.8987C190.109 100.239 165.24 113.84 147.245 121.017C138.242 124.608 131.014 126.569 126.048 126.742C121.052 126.917 118.547 125.284 118.506 122.042C118.464 118.801 120.884 113.88 125.799 107.436C130.685 101.031 137.839 93.3885 146.781 84.9969C164.652 68.2255 189.444 48.6656 216.911 30.325Z" stroke="#F08838" stroke-width="2"/>
<path opacity="0.827586" d="M219.246 28.0383C246.636 12.538 271.207 1.64508 288.783 -3.45377C297.577 -6.00483 304.564 -7.08907 309.277 -6.60973C314.008 -6.12842 316.283 -4.09525 316.077 -0.662598C315.872 2.77005 313.186 7.61062 308.064 13.6682C302.962 19.7015 295.619 26.7268 286.525 34.2985C268.349 49.4322 243.405 66.5594 216.015 82.0597C188.625 97.56 164.054 108.454 146.478 113.553C137.684 116.104 130.696 117.189 125.984 116.709C121.252 116.228 118.978 114.195 119.183 110.762C119.388 107.329 122.074 102.489 127.197 96.4312C132.299 90.3978 139.642 83.3723 148.736 75.8004C166.912 60.6667 191.856 43.5386 219.246 28.0383Z" stroke="#F08838" stroke-width="2"/>
<path opacity="0.862069" d="M221.573 25.9607C248.678 13.4169 272.764 5.31198 289.788 2.32719C298.306 0.833884 305.001 0.631971 309.426 1.75915C313.861 2.88916 315.885 5.31355 315.429 8.90695C314.973 12.5004 312.044 17.217 306.751 22.8489C301.472 28.4669 293.996 34.8232 284.819 41.5189C266.476 54.902 241.57 69.4701 214.465 82.0138C187.361 94.5575 163.274 102.663 146.25 105.647C137.732 107.141 131.038 107.342 126.613 106.215C122.178 105.085 120.154 102.661 120.61 99.0671C121.066 95.4736 123.995 90.7571 129.288 85.1251C134.567 79.5072 142.042 73.1511 151.219 66.4556C169.562 53.0725 194.468 38.5044 221.573 25.9607Z" stroke="#F08838" stroke-width="2"/>
<path opacity="0.896552" d="M223.872 24.0988C250.486 14.6052 273.906 9.34701 290.251 8.49634C298.428 8.07077 304.781 8.75155 308.885 10.5169C312.995 12.2847 314.746 15.0881 314.041 18.8095C313.335 22.5309 310.188 27.0816 304.763 32.2508C299.345 37.4126 291.793 43.0529 282.603 48.8227C264.231 60.3563 239.552 72.257 212.938 81.7506C186.325 91.2442 162.906 96.5011 146.561 97.3518C138.384 97.7774 132.031 97.0974 127.927 95.3322C123.817 93.5644 122.066 90.7608 122.771 87.0395C123.477 83.3181 126.623 78.7675 132.049 73.5983C137.467 68.4363 145.018 62.7954 154.209 57.0254C172.581 45.492 197.259 33.5924 223.872 24.0988Z" stroke="#F08838" stroke-width="2"/>
<path opacity="0.931035" d="M226.133 22.4617C252.054 16.0884 274.631 13.7148 290.175 15.0023C297.951 15.6464 303.916 17.2023 307.67 19.5918C311.427 21.9829 312.886 25.1481 311.934 28.9623C310.982 32.7766 307.648 37.1203 302.128 41.7922C296.612 46.4608 289.039 51.3462 279.904 56.1484C261.642 65.7478 237.376 74.8915 211.454 81.2648C185.533 87.6381 162.956 90.0117 147.412 88.7241C139.636 88.08 133.672 86.5229 129.918 84.1335C126.161 81.7423 124.701 78.5776 125.653 74.7632C126.606 70.9489 129.94 66.605 135.46 61.9331C140.976 57.2646 148.548 52.3801 157.683 47.5781C175.945 37.9787 200.212 28.835 226.133 22.4617Z" stroke="#F08838" stroke-width="2"/>
<path opacity="0.965517" d="M228.338 21.0512C253.372 17.8451 274.936 18.3726 289.564 21.787C296.881 23.4951 302.414 25.9144 305.791 28.9098C309.169 31.906 310.322 35.4095 309.131 39.2801C307.939 43.1509 304.447 47.2499 298.872 51.393C293.298 55.5346 285.761 59.628 276.748 63.4275C258.732 71.0227 235.06 77.3437 210.026 80.55C184.992 83.7562 163.427 83.2288 148.799 79.8143C141.482 78.1062 135.948 75.687 132.571 72.6916C129.193 69.6952 128.041 66.1911 129.233 62.3203C130.424 58.4496 133.916 54.3513 139.491 50.2084C145.065 46.0667 152.602 41.9733 161.615 38.1739C179.631 30.5786 203.303 24.2575 228.338 21.0512Z" stroke="#F08838" stroke-width="2"/>
<path d="M230.472 19.8726C254.431 19.8568 274.823 23.2797 288.427 28.7949C295.231 31.5537 300.292 34.8179 303.268 38.3967C306.244 41.9764 307.075 45.7925 305.656 49.6823C304.236 53.5721 300.617 57.3903 295.026 60.9756C289.436 64.5602 281.989 67.8334 273.166 70.6026C255.529 76.1383 232.628 79.5888 208.668 79.6046C184.709 79.6203 164.316 76.1984 150.713 70.6832C143.908 67.9243 138.847 64.6594 135.872 61.0805C132.896 57.5008 132.064 53.6855 133.484 49.7958C134.904 45.9059 138.522 42.0869 144.114 38.5015C149.704 34.917 157.151 31.6447 165.973 28.8755C183.611 23.3397 206.512 19.8884 230.472 19.8726Z" stroke="#F08838" stroke-width="2"/>
</g>
</g>
<defs>
<linearGradient id="paint0_linear_807_2112" x1="132" y1="0" x2="132" y2="240" gradientUnits="userSpaceOnUse">
<stop stop-color="#011328"/>
<stop offset="1" stop-color="#000C1B"/>
</linearGradient>
<linearGradient id="paint1_linear_807_2112" x1="12" y1="233" x2="252" y2="21" gradientUnits="userSpaceOnUse">
<stop stop-color="#6B3A0F" stop-opacity="0"/>
<stop offset="1" stop-color="#6B3A0F" stop-opacity="0.8"/>
</linearGradient>
<clipPath id="clip0_807_2112">
<rect width="264" height="240" fill="white"/>
</clipPath>
</defs>
</svg>
