<svg width="264" height="240" viewBox="0 0 264 240" fill="none" xmlns="http://www.w3.org/2000/svg">
<g clip-path="url(#clip0_807_2013)">
<rect width="264" height="240" fill="url(#paint0_linear_807_2013)"/>
<rect width="264" height="240" fill="url(#paint1_linear_807_2013)" fill-opacity="0.8"/>
<g opacity="0.1">
<path opacity="0.0344828" d="M187.9 102.253C178.117 78.6926 171.681 54.7501 169.174 35.1067C167.92 25.2776 167.657 16.5784 168.426 9.57741C169.204 2.49344 170.989 -2.45576 173.532 -5.23844C176.075 -8.02108 179.571 -8.85042 183.908 -7.36307C188.194 -5.89317 193.063 -2.23367 198.205 3.34126C208.482 14.4827 219.741 33.1485 229.524 56.709C239.308 80.2697 245.743 104.213 248.25 123.857C249.504 133.686 249.767 142.385 248.998 149.386C248.22 156.47 246.435 161.42 243.892 164.202C241.349 166.985 237.853 167.814 233.516 166.327C229.23 164.857 224.361 161.197 219.218 155.622C208.942 144.481 197.684 125.814 187.9 102.253Z" stroke="#C94DFE" stroke-width="2"/>
<path opacity="0.0689655" d="M187.707 99.4104C180.197 73.4845 175.888 47.6016 174.982 26.7325C174.529 16.2904 174.931 7.15721 176.184 -0.0658113C176.812 -3.67795 177.642 -6.75522 178.653 -9.24892C179.66 -11.7331 180.815 -13.5664 182.093 -14.8209C183.372 -16.0751 184.842 -16.8179 186.524 -16.9723C188.212 -17.1272 190.063 -16.6809 192.042 -15.6259C195.999 -13.5161 200.343 -9.03914 204.801 -2.52613C213.709 10.4904 222.983 31.5013 230.493 57.4272C238.002 83.353 242.311 109.235 243.217 130.104C243.67 140.546 243.269 149.68 242.015 156.903C241.388 160.515 240.557 163.592 239.546 166.086C238.539 168.57 237.385 170.402 236.107 171.657C234.828 172.911 233.357 173.655 231.675 173.809C229.987 173.964 228.136 173.518 226.157 172.463C222.2 170.353 217.856 165.876 213.399 159.363C204.49 146.346 195.216 125.336 187.707 99.4104Z" stroke="#C94DFE" stroke-width="2"/>
<path opacity="0.103448" d="M187.681 96.4099C182.504 68.316 180.356 40.6914 181.059 18.7558C181.411 7.78006 182.475 -1.71821 184.206 -9.10857C185.072 -12.8057 186.091 -15.9149 187.236 -18.3859C188.377 -20.85 189.595 -22.5823 190.867 -23.693C192.138 -24.8037 193.569 -25.3865 195.176 -25.3237C196.787 -25.2606 198.51 -24.5478 200.31 -23.1795C203.906 -20.4443 207.69 -15.1817 211.429 -7.77959C218.9 7.01393 226.117 30.2091 231.294 58.303C236.471 86.3969 238.619 114.022 237.916 135.957C237.564 146.933 236.5 156.431 234.769 163.822C233.903 167.518 232.884 170.627 231.74 173.098C230.599 175.562 229.379 177.295 228.108 178.406C226.837 179.517 225.407 180.099 223.8 180.036C222.188 179.973 220.464 179.261 218.665 177.892C215.068 175.157 211.284 169.895 207.546 162.493C200.075 147.699 192.858 124.504 187.681 96.4099Z" stroke="#C94DFE" stroke-width="2"/>
<path opacity="0.137931" d="M187.826 93.2682C185.021 63.2205 185.053 34.0643 187.36 11.2297C188.515 -0.195737 190.235 -9.98747 192.431 -17.4887C193.53 -21.2424 194.73 -24.3592 196 -26.7898C197.269 -29.2183 198.538 -30.8357 199.787 -31.797C201.036 -32.7583 202.417 -33.1812 203.938 -32.9009C205.461 -32.6203 207.043 -31.6451 208.649 -29.973C211.856 -26.6316 215.051 -20.6235 218.041 -12.3884C224.015 4.07008 229.12 29.2728 231.924 59.3205C234.728 89.3686 234.697 118.525 232.389 141.36C231.234 152.785 229.514 162.577 227.318 170.078C226.219 173.832 225.019 176.949 223.749 179.379C222.481 181.808 221.211 183.425 219.962 184.386C218.714 185.347 217.333 185.771 215.811 185.49C214.288 185.21 212.706 184.235 211.101 182.563C207.893 179.221 204.699 173.213 201.709 164.978C195.734 148.52 190.63 123.316 187.826 93.2682Z" stroke="#C94DFE" stroke-width="2"/>
<path opacity="0.172414" d="M188.142 90.0025C187.732 58.2295 189.943 27.7638 193.839 4.20467C195.789 -7.58298 198.153 -17.5921 200.798 -25.1463C202.122 -28.9276 203.494 -32.0293 204.881 -34.4018C206.27 -36.7789 207.578 -38.2679 208.79 -39.0773C210.002 -39.8866 211.326 -40.1553 212.752 -39.6579C214.175 -39.1614 215.603 -37.9294 217.001 -35.9657C219.794 -32.0425 222.373 -25.3343 224.59 -16.3289C229.022 1.66944 231.974 28.6882 232.383 60.4612C232.792 92.2344 230.582 122.701 226.685 146.26C224.736 158.048 222.372 168.057 219.727 175.611C218.403 179.392 217.031 182.493 215.645 184.866C214.256 187.243 212.948 188.732 211.736 189.541C210.523 190.351 209.199 190.619 207.773 190.122C206.35 189.625 204.922 188.394 203.524 186.43C200.731 182.507 198.151 175.799 195.934 166.794C191.502 148.795 188.551 121.776 188.142 90.0025Z" stroke="#C94DFE" stroke-width="2"/>
<path opacity="0.206897" d="M188.628 86.6317C190.617 53.3755 194.992 21.8324 200.448 -2.27112C203.177 -14.331 206.167 -24.4809 209.242 -32.0296C210.782 -35.8092 212.316 -38.8719 213.809 -41.1687C215.31 -43.478 216.644 -44.8277 217.808 -45.4863C218.972 -46.1449 220.232 -46.2638 221.552 -45.5509C222.865 -44.8418 224.128 -43.3623 225.308 -41.1213C227.663 -36.6455 229.606 -29.2872 231.034 -19.5801C233.887 -0.178907 234.663 28.4497 232.674 61.7058C230.685 94.962 226.31 126.506 220.854 150.609C218.124 162.669 215.134 172.819 212.06 180.368C210.52 184.147 208.986 187.21 207.493 189.507C205.992 191.816 204.658 193.166 203.494 193.825C202.33 194.483 201.069 194.602 199.749 193.889C198.436 193.18 197.173 191.701 195.994 189.46C193.639 184.984 191.696 177.626 190.268 167.918C187.414 148.517 186.639 119.888 188.628 86.6317Z" stroke="#C94DFE" stroke-width="2"/>
<path opacity="0.241379" d="M189.281 83.1762C193.654 48.6905 200.16 16.3106 207.134 -8.15283C210.624 -20.3924 214.217 -30.6046 217.698 -38.089C219.441 -41.8369 221.128 -44.8365 222.716 -47.0402C224.319 -49.2652 225.667 -50.4687 226.775 -50.9811C227.882 -51.4935 229.074 -51.4654 230.278 -50.5398C231.47 -49.6228 232.558 -47.9073 233.509 -45.4061C235.408 -40.4115 236.698 -32.4594 237.325 -22.1247C238.578 -1.46873 237.171 28.5514 232.798 63.037C228.425 97.5228 221.919 129.903 214.945 154.367C211.455 166.606 207.862 176.819 204.381 184.303C202.638 188.051 200.951 191.051 199.363 193.254C197.76 195.479 196.412 196.683 195.304 197.195C194.197 197.708 193.005 197.68 191.801 196.754C190.609 195.837 189.52 194.121 188.57 191.62C186.671 186.626 185.381 178.673 184.754 168.339C183.501 147.683 184.908 117.662 189.281 83.1762Z" stroke="#C94DFE" stroke-width="2"/>
<path opacity="0.275862" d="M190.093 79.6552C196.817 44.2031 205.404 11.2343 213.844 -13.4018C218.066 -25.7275 222.237 -35.9237 226.098 -43.2854C228.032 -46.9725 229.857 -49.8861 231.528 -51.9797C233.223 -54.1021 234.575 -55.1541 235.622 -55.5274C236.668 -55.9005 237.787 -55.7299 238.864 -54.5966C239.927 -53.4784 240.831 -51.538 241.545 -48.7956C242.972 -43.3201 243.6 -34.8359 243.421 -23.9526C243.063 -2.19951 239.483 28.9831 232.759 64.4352C226.035 99.8875 217.448 132.857 209.008 157.493C204.786 169.819 200.614 180.015 196.753 187.377C194.819 191.064 192.995 193.977 191.323 196.071C189.629 198.193 188.278 199.245 187.231 199.618C186.185 199.992 185.065 199.821 183.987 198.688C182.925 197.57 182.021 195.629 181.307 192.887C179.88 187.411 179.252 178.927 179.431 168.044C179.789 146.291 183.369 115.108 190.093 79.6552Z" stroke="#C94DFE" stroke-width="2"/>
<path opacity="0.310345" d="M191.059 76.0863C200.082 39.938 210.687 6.63153 220.528 -17.9884C225.452 -30.3057 230.168 -40.4072 234.38 -47.5886C236.489 -51.1854 238.437 -53.9889 240.18 -55.9557C241.952 -57.9566 243.298 -58.8562 244.285 -59.0989C245.271 -59.3415 246.315 -59.0296 247.256 -57.6955C248.18 -56.3843 248.891 -54.2348 249.364 -51.2727C250.306 -45.3585 250.266 -36.4069 249.282 -25.0582C247.316 -2.37444 241.591 29.7324 232.567 65.8806C223.544 102.029 212.939 135.336 203.098 159.956C198.174 172.273 193.458 182.374 189.247 189.556C187.137 193.153 185.189 195.957 183.446 197.924C181.674 199.925 180.327 200.824 179.34 201.067C178.354 201.309 177.311 200.997 176.37 199.663C175.446 198.352 174.735 196.202 174.263 193.24C173.32 187.326 173.36 178.375 174.344 167.026C176.31 144.342 182.035 112.235 191.059 76.0863Z" stroke="#C94DFE" stroke-width="2"/>
<path opacity="0.344828" d="M192.173 72.4859C203.427 35.9173 215.967 2.5281 227.135 -21.887C232.722 -34.1018 237.947 -44.0299 242.477 -50.9747C244.745 -54.4533 246.802 -57.1253 248.601 -58.9495C250.436 -60.8102 251.771 -61.5587 252.703 -61.6781C253.635 -61.7975 254.599 -61.3434 255.393 -59.8194C256.171 -58.3253 256.685 -55.9825 256.911 -52.8233C257.361 -46.5163 256.654 -37.1667 254.873 -25.4395C251.312 -1.9986 243.484 30.7871 232.229 67.3557C220.975 103.924 208.436 137.313 197.268 161.728C191.681 173.943 186.456 183.871 181.927 190.816C179.658 194.295 177.6 196.967 175.801 198.791C173.966 200.652 172.631 201.4 171.699 201.52C170.767 201.639 169.803 201.185 169.009 199.661C168.231 198.167 167.718 195.824 167.492 192.665C167.042 186.358 167.749 177.008 169.531 165.281C173.091 141.84 180.918 109.054 192.173 72.4859Z" stroke="#C94DFE" stroke-width="2"/>
<path opacity="0.37931" d="M193.426 68.8712C206.826 32.1611 221.205 -1.05599 233.614 -25.0793C239.822 -37.0981 245.516 -46.7762 250.328 -53.4299C252.738 -56.7628 254.888 -59.2815 256.73 -60.9482C258.61 -62.6496 259.927 -63.2496 260.812 -63.2502C261.697 -63.2506 262.576 -62.6519 263.215 -60.9525C263.841 -59.2874 264.152 -56.7704 264.13 -53.439C264.085 -46.7884 262.715 -37.1132 260.15 -25.0968C255.022 -1.07826 245.153 32.1359 231.753 68.846C218.353 105.556 203.973 138.773 191.565 162.797C185.357 174.815 179.662 184.493 174.851 191.147C172.44 194.48 170.291 196.999 168.449 198.665C166.569 200.367 165.252 200.967 164.367 200.967C163.482 200.968 162.602 200.369 161.964 198.67C161.338 197.005 161.027 194.488 161.049 191.156C161.094 184.506 162.463 174.83 165.029 162.814C170.156 138.795 180.026 105.581 193.426 68.8712Z" stroke="#C94DFE" stroke-width="2"/>
<path opacity="0.413793" d="M194.812 65.2564C210.255 28.6851 226.365 -4.10593 239.919 -27.5534C246.7 -39.2841 252.82 -48.6371 257.876 -54.9477C260.409 -58.1086 262.633 -60.4534 264.503 -61.9493C266.409 -63.475 267.706 -63.9306 268.551 -63.8125C269.396 -63.6943 270.185 -62.9472 270.662 -61.088C271.131 -59.2652 271.238 -56.5946 270.967 -53.1172C270.428 -46.1751 268.406 -36.2489 265.076 -24.0358C258.421 0.376366 246.585 33.765 231.142 70.3363C215.699 106.908 199.589 139.699 186.035 163.146C179.254 174.877 173.135 184.23 168.078 190.541C165.545 193.702 163.32 196.046 161.451 197.542C159.544 199.068 158.248 199.523 157.402 199.405C156.557 199.287 155.768 198.54 155.291 196.681C154.823 194.858 154.716 192.187 154.987 188.71C155.527 181.768 157.548 171.842 160.878 159.629C167.533 135.217 179.369 101.828 194.812 65.2564Z" stroke="#C94DFE" stroke-width="2"/>
<path opacity="0.448276" d="M196.328 61.6556C213.696 25.5018 231.413 -6.61294 246.009 -29.305C253.312 -40.6577 259.809 -49.6129 265.07 -55.5311C267.706 -58.4955 269.987 -60.6476 271.87 -61.9606C273.784 -63.2964 275.056 -63.6101 275.866 -63.369C276.676 -63.1275 277.366 -62.2292 277.679 -60.2294C277.986 -58.2638 277.887 -55.461 277.371 -51.8649C276.341 -44.6857 273.683 -34.5862 269.615 -22.2697C261.483 2.34909 247.772 35.6577 230.403 71.8114C213.035 107.965 195.317 140.081 180.721 162.773C173.419 174.126 166.922 183.081 161.66 188.999C159.025 191.963 156.743 194.115 154.861 195.429C152.946 196.764 151.674 197.078 150.864 196.837C150.054 196.595 149.364 195.697 149.052 193.697C148.745 191.732 148.843 188.929 149.359 185.333C150.39 178.154 153.047 168.054 157.115 155.738C165.247 131.119 178.959 97.8095 196.328 61.6556Z" stroke="#C94DFE" stroke-width="2"/>
<path opacity="0.482759" d="M197.965 58.0863C217.126 22.626 236.315 -8.56688 251.841 -30.33C259.609 -41.2183 266.433 -49.7073 271.858 -55.1874C274.575 -57.9321 276.896 -59.8746 278.776 -60.9947C280.682 -62.1302 281.927 -62.302 282.701 -61.9299C283.475 -61.5576 284.059 -60.5071 284.205 -58.3862C284.349 -56.2938 284.046 -53.3813 283.289 -49.6949C281.776 -42.3347 278.504 -32.1391 273.728 -19.813C264.182 4.82372 248.699 37.7971 229.538 73.2574C210.377 108.718 191.188 139.911 175.662 161.675C167.894 172.563 161.07 181.052 155.645 186.532C152.928 189.277 150.607 191.219 148.727 192.339C146.822 193.475 145.577 193.647 144.803 193.275C144.028 192.903 143.444 191.852 143.298 189.731C143.155 187.638 143.457 184.726 144.215 181.04C145.727 173.679 148.999 163.484 153.775 151.158C163.321 126.521 178.804 93.5468 197.965 58.0863Z" stroke="#C94DFE" stroke-width="2"/>
<path opacity="0.517241" d="M199.724 54.5642C220.531 20.0676 241.046 -9.96578 257.382 -30.6335C265.556 -40.9739 272.654 -48.9315 278.2 -53.9311C280.978 -56.4347 283.32 -58.1525 285.182 -59.0714C287.063 -59.9992 288.276 -60.0288 289.009 -59.5176C289.743 -59.0064 290.213 -57.8041 290.192 -55.5802C290.172 -53.3775 289.669 -50.3786 288.676 -46.6312C286.693 -39.1478 282.832 -28.9354 277.385 -16.6946C266.499 7.77151 249.363 40.1591 228.556 74.6557C207.749 109.152 187.236 139.185 170.899 159.852C162.725 170.193 155.628 178.15 150.081 183.15C147.303 185.654 144.962 187.371 143.099 188.29C141.219 189.218 140.006 189.248 139.272 188.737C138.538 188.225 138.069 187.023 138.089 184.799C138.109 182.596 138.613 179.598 139.605 175.85C141.588 168.367 145.45 158.154 150.896 145.914C161.782 121.448 178.918 89.0606 199.724 54.5642Z" stroke="#C94DFE" stroke-width="2"/>
<path opacity="0.551724" d="M201.596 51.107C223.89 17.8375 245.571 -10.8059 262.593 -30.2201C271.11 -39.9338 278.427 -47.2982 284.051 -51.7793C286.868 -54.0229 289.212 -55.5048 291.043 -56.2159C292.884 -56.9308 294.059 -56.8137 294.742 -56.1563C295.426 -55.4988 295.775 -54.1503 295.59 -51.8418C295.407 -49.5458 294.705 -46.4837 293.486 -42.7044C291.05 -35.1561 286.63 -25.0053 280.554 -12.9431C268.412 11.1648 249.755 42.7174 227.461 75.9868C205.167 109.256 183.486 137.9 166.463 157.315C157.947 167.029 150.63 174.393 145.005 178.874C142.189 181.118 139.845 182.599 138.013 183.311C136.172 184.026 134.998 183.908 134.314 183.251C133.631 182.594 133.281 181.245 133.466 178.937C133.65 176.641 134.351 173.578 135.57 169.799C138.007 162.251 142.427 152.1 148.502 140.038C160.644 115.93 179.301 84.3766 201.596 51.107Z" stroke="#C94DFE" stroke-width="2"/>
<path opacity="0.586207" d="M203.57 47.736C227.181 15.9472 249.863 -11.0885 267.44 -29.1013C276.234 -38.1141 283.714 -44.8298 289.373 -48.7585C292.205 -50.725 294.534 -51.9588 296.32 -52.4574C298.11 -52.9567 299.238 -52.6891 299.86 -51.8809C300.481 -51.0727 300.703 -49.5853 300.357 -47.2091C300.012 -44.8375 299.12 -41.7364 297.683 -37.9552C294.813 -30.4008 289.869 -20.3894 283.212 -8.59842C269.907 14.967 249.872 45.4443 226.261 77.2332C202.65 109.022 179.967 136.058 162.391 154.071C153.596 163.084 146.117 169.799 140.458 173.728C137.626 175.694 135.298 176.929 133.511 177.427C131.722 177.927 130.593 177.66 129.971 176.852C129.35 176.043 129.128 174.555 129.474 172.179C129.82 169.807 130.711 166.706 132.148 162.924C135.018 155.37 139.962 145.359 146.619 133.568C159.924 110.003 179.959 79.525 203.57 47.736Z" stroke="#C94DFE" stroke-width="2"/>
<path opacity="0.62069" d="M205.638 44.4706C230.385 14.4047 253.895 -10.8169 271.891 -27.2911C280.896 -35.5342 288.479 -41.5493 294.128 -44.8966C296.955 -46.5716 299.25 -47.5493 300.979 -47.8321C302.706 -48.1146 303.779 -47.6932 304.326 -46.7331C304.873 -45.773 304.962 -44.1565 304.458 -41.7285C303.954 -39.2984 302.879 -36.1818 301.237 -32.4276C297.957 -24.9257 292.528 -15.1316 285.34 -3.70208C270.974 19.1405 249.715 48.3106 224.968 78.3765C200.221 108.443 176.711 133.665 158.715 150.139C149.71 158.382 142.127 164.397 136.478 167.745C133.651 169.419 131.356 170.397 129.627 170.68C127.9 170.962 126.828 170.54 126.281 169.58C125.733 168.62 125.644 167.004 126.147 164.576C126.652 162.146 127.727 159.03 129.369 155.276C132.649 147.774 138.078 137.98 145.266 126.55C159.631 103.707 180.891 74.5368 205.638 44.4706Z" stroke="#C94DFE" stroke-width="2"/>
<path opacity="0.655172" d="M207.788 41.3261C233.482 13.2119 257.64 -10.0039 275.917 -24.8144C285.062 -32.225 292.691 -37.4951 298.287 -40.2364C301.086 -41.6078 303.331 -42.3225 304.989 -42.3876C306.642 -42.4525 307.648 -41.872 308.109 -40.7625C308.57 -39.653 308.524 -37.921 307.867 -35.457C307.207 -32.9864 305.957 -29.8775 304.123 -26.1799C300.459 -18.7883 294.587 -9.28685 286.924 1.6937C271.61 23.6389 249.289 51.2797 223.595 79.3939C197.901 107.508 173.743 130.724 155.466 145.534C146.32 152.945 138.692 158.215 133.096 160.956C130.297 162.328 128.052 163.043 126.394 163.108C124.74 163.173 123.734 162.592 123.274 161.483C122.813 160.373 122.859 158.642 123.516 156.178C124.176 153.707 125.426 150.598 127.259 146.9C130.924 139.508 136.795 130.007 144.458 119.026C159.773 97.0811 182.093 69.4404 207.788 41.3261Z" stroke="#C94DFE" stroke-width="2"/>
<path opacity="0.689655" d="M210.003 38.3248C236.447 12.3766 261.068 -8.6567 279.486 -21.6912C288.702 -28.2132 296.317 -32.6981 301.817 -34.8141C304.567 -35.8722 306.745 -36.3212 308.321 -36.1684C309.891 -36.0162 310.819 -35.2743 311.183 -34.021C311.545 -32.7677 311.362 -30.9354 310.556 -28.4517C309.746 -25.9581 308.33 -22.8805 306.32 -19.2674C302.3 -12.0426 296.032 -2.90561 287.954 7.54221C271.808 28.4225 248.597 54.3235 222.153 80.2718C195.708 106.22 171.088 127.253 152.67 140.287C143.454 146.809 135.839 151.295 130.339 153.411C127.589 154.469 125.412 154.917 123.836 154.764C122.266 154.612 121.337 153.871 120.974 152.618C120.611 151.364 120.794 149.532 121.601 147.048C122.41 144.554 123.826 141.477 125.836 137.864C129.856 130.639 136.124 121.502 144.203 111.054C160.348 90.1734 183.558 64.2729 210.003 38.3248Z" stroke="#C94DFE" stroke-width="2"/>
<path opacity="0.724138" d="M212.274 35.4804C239.267 11.8958 264.16 -6.79475 282.578 -17.9551C291.793 -23.5394 299.337 -27.2071 304.699 -28.6834C310.124 -30.1771 313.016 -29.3519 313.528 -26.5714C314.041 -23.7908 312.213 -18.8417 307.818 -11.7552C303.475 -4.75182 296.859 3.95181 288.427 13.7874C271.575 33.4436 247.653 57.4068 220.661 80.9916C193.668 104.576 168.774 123.267 150.356 134.427C141.141 140.011 133.597 143.679 128.236 145.155C122.811 146.649 119.918 145.824 119.406 143.043C118.894 140.263 120.722 135.313 125.116 128.227C129.459 121.224 136.075 112.52 144.507 102.685C161.359 83.0282 185.282 59.0653 212.274 35.4804Z" stroke="#C94DFE" stroke-width="2"/>
<path opacity="0.758621" d="M214.581 32.8093C241.915 11.767 266.892 -4.43963 285.168 -13.6423C294.312 -18.2469 301.726 -21.0704 306.909 -21.8976C312.137 -22.732 314.847 -21.5028 315.13 -18.4798C315.412 -15.4569 313.279 -10.4993 308.606 -3.71168C303.974 3.0173 297.062 11.2206 288.342 20.3686C270.914 38.6515 246.463 60.4959 219.129 81.5382C191.794 102.581 166.817 118.787 148.541 127.99C139.397 132.594 131.983 135.419 126.8 136.246C121.572 137.08 118.862 135.851 118.579 132.828C118.297 129.805 120.43 124.848 125.103 118.06C129.735 111.331 136.647 103.127 145.367 93.9788C162.795 75.6958 187.247 53.8518 214.581 32.8093Z" stroke="#C94DFE" stroke-width="2"/>
<path opacity="0.793103" d="M216.91 30.325C244.377 11.9845 269.246 -1.61572 287.24 -8.79261C296.243 -12.3835 303.471 -14.3443 308.437 -14.518C313.434 -14.6927 315.938 -13.0595 315.98 -9.818C316.021 -6.57653 313.602 -1.6554 308.686 4.78841C303.8 11.1931 296.646 18.836 287.704 27.2274C269.833 43.9987 245.042 63.5582 217.575 81.8987C190.108 100.239 165.239 113.84 147.244 121.017C138.241 124.608 131.013 126.569 126.047 126.742C121.051 126.917 118.546 125.284 118.505 122.042C118.463 118.801 120.883 113.88 125.798 107.436C130.684 101.031 137.838 93.3885 146.78 84.9969C164.651 68.2255 189.443 48.6656 216.91 30.325Z" stroke="#C94DFE" stroke-width="2"/>
<path opacity="0.827586" d="M219.246 28.0383C246.636 12.538 271.207 1.64508 288.783 -3.45377C297.577 -6.00483 304.564 -7.08907 309.277 -6.60973C314.008 -6.12842 316.283 -4.09525 316.077 -0.662598C315.872 2.77005 313.186 7.61062 308.064 13.6682C302.962 19.7015 295.619 26.7268 286.525 34.2985C268.349 49.4322 243.405 66.5594 216.015 82.0597C188.625 97.56 164.054 108.454 146.478 113.553C137.684 116.104 130.696 117.189 125.984 116.709C121.252 116.228 118.978 114.195 119.183 110.762C119.388 107.329 122.074 102.489 127.197 96.4312C132.299 90.3978 139.642 83.3723 148.736 75.8004C166.912 60.6667 191.856 43.5386 219.246 28.0383Z" stroke="#C94DFE" stroke-width="2"/>
<path opacity="0.862069" d="M221.572 25.9607C248.677 13.4169 272.763 5.31198 289.787 2.32719C298.305 0.833884 305 0.631971 309.425 1.75915C313.86 2.88916 315.884 5.31355 315.428 8.90695C314.972 12.5004 312.043 17.217 306.75 22.8489C301.471 28.4669 293.995 34.8232 284.818 41.5189C266.475 54.902 241.569 69.4701 214.464 82.0138C187.36 94.5575 163.273 102.663 146.249 105.647C137.731 107.141 131.037 107.342 126.612 106.215C122.177 105.085 120.154 102.661 120.609 99.0671C121.065 95.4736 123.994 90.7571 129.287 85.1251C134.566 79.5072 142.041 73.1511 151.218 66.4556C169.561 53.0725 194.467 38.5044 221.572 25.9607Z" stroke="#C94DFE" stroke-width="2"/>
<path opacity="0.896552" d="M223.872 24.0989C250.485 14.6053 273.905 9.34713 290.25 8.49646C298.427 8.0709 304.78 8.75168 308.884 10.517C312.994 12.2848 314.745 15.0883 314.04 18.8097C313.334 22.531 310.188 27.0817 304.762 32.2509C299.344 37.4128 291.792 43.053 282.602 48.8228C264.23 60.3564 239.551 72.2571 212.937 81.7507C186.324 91.2443 162.905 96.5013 146.56 97.3519C138.383 97.7775 132.03 97.0975 127.926 95.3323C123.816 93.5645 122.065 90.7609 122.77 87.0396C123.476 83.3182 126.622 78.7676 132.048 73.5984C137.466 68.4365 145.017 62.7955 154.208 57.0255C172.58 45.4921 197.258 33.5925 223.872 24.0989Z" stroke="#C94DFE" stroke-width="2"/>
<path opacity="0.931035" d="M226.132 22.4617C252.053 16.0884 274.63 13.7148 290.174 15.0023C297.95 15.6464 303.915 17.2023 307.669 19.5918C311.426 21.9829 312.885 25.1481 311.933 28.9623C310.981 32.7766 307.647 37.1203 302.127 41.7922C296.611 46.4608 289.038 51.3462 279.903 56.1484C261.641 65.7478 237.375 74.8915 211.453 81.2648C185.532 87.6381 162.955 90.0117 147.411 88.7241C139.635 88.08 133.671 86.5229 129.917 84.1335C126.16 81.7423 124.7 78.5776 125.652 74.7632C126.605 70.9489 129.939 66.605 135.459 61.9331C140.975 57.2646 148.547 52.3801 157.682 47.5781C175.944 37.9787 200.211 28.835 226.132 22.4617Z" stroke="#C94DFE" stroke-width="2"/>
<path opacity="0.965517" d="M228.337 21.0512C253.371 17.8451 274.935 18.3726 289.563 21.787C296.88 23.4951 302.413 25.9144 305.79 28.9098C309.168 31.906 310.321 35.4095 309.13 39.2801C307.938 43.1509 304.446 47.2499 298.871 51.393C293.297 55.5346 285.76 59.628 276.747 63.4275C258.731 71.0227 235.059 77.3437 210.025 80.55C184.991 83.7562 163.426 83.2288 148.798 79.8143C141.481 78.1062 135.947 75.687 132.571 72.6916C129.192 69.6952 128.04 66.1911 129.232 62.3203C130.423 58.4496 133.915 54.3513 139.49 50.2084C145.064 46.0667 152.601 41.9733 161.614 38.1739C179.63 30.5786 203.302 24.2575 228.337 21.0512Z" stroke="#C94DFE" stroke-width="2"/>
<path d="M230.471 19.8726C254.43 19.8568 274.822 23.2797 288.426 28.7949C295.23 31.5537 300.292 34.8179 303.267 38.3967C306.243 41.9764 307.074 45.7925 305.655 49.6823C304.235 53.5721 300.616 57.3903 295.025 60.9756C289.435 64.5602 281.988 67.8334 273.165 70.6026C255.528 76.1383 232.627 79.5888 208.667 79.6046C184.708 79.6203 164.315 76.1984 150.712 70.6832C143.907 67.9243 138.846 64.6594 135.871 61.0805C132.895 57.5008 132.063 53.6855 133.483 49.7958C134.903 45.9059 138.521 42.0869 144.113 38.5015C149.703 34.917 157.15 31.6447 165.972 28.8755C183.61 23.3397 206.511 19.8884 230.471 19.8726Z" stroke="#C94DFE" stroke-width="2"/>
</g>
</g>
<defs>
<linearGradient id="paint0_linear_807_2013" x1="132" y1="0" x2="132" y2="240" gradientUnits="userSpaceOnUse">
<stop stop-color="#011328"/>
<stop offset="1" stop-color="#000C1B"/>
</linearGradient>
<linearGradient id="paint1_linear_807_2013" x1="12" y1="233" x2="252" y2="21" gradientUnits="userSpaceOnUse">
<stop stop-color="#590F6B" stop-opacity="0"/>
<stop offset="1" stop-color="#590F6B" stop-opacity="0.8"/>
</linearGradient>
<clipPath id="clip0_807_2013">
<rect width="264" height="240" fill="white"/>
</clipPath>
</defs>
</svg>
