<svg width="20" height="20" viewBox="0 0 20 20" fill="none" xmlns="http://www.w3.org/2000/svg">
<g clip-path="url(#clip0_2372_16109)">
<path d="M5.05078 0.101566C4.95703 0.156254 4.83984 0.273441 4.78516 0.367191C4.69531 0.523441 4.6875 0.570316 4.6875 1.04688V1.5625H4.06641C3.17969 1.5625 2.69922 1.66797 2.05469 2.00782C1.14062 2.48829 0.382812 3.44141 0.109375 4.45313L0.0195312 4.78516V10.1563V15.5273L0.109375 15.8594C0.492188 17.2891 1.70312 18.4141 3.15625 18.6953C3.51953 18.7656 7.81641 18.7773 7.99609 18.707C8.39062 18.5586 8.59766 18.0039 8.40234 17.6211C8.30078 17.4258 8.07812 17.2344 7.92188 17.2109C7.85156 17.1992 6.83594 17.1836 5.66406 17.1758L3.53516 17.168L3.22656 17.0586C2.83203 16.918 2.625 16.7969 2.33984 16.5313C2.04297 16.2578 1.82031 15.9141 1.6875 15.5273L1.58203 15.2148L1.57031 11.5117L1.55859 7.8125H9.88672H18.2148L18.3828 7.71485C18.4844 7.65625 18.5938 7.54688 18.6523 7.44532L18.75 7.27735V6.14454C18.75 5.32813 18.7344 4.92579 18.6953 4.71875C18.4648 3.52344 17.6758 2.49219 16.5859 1.95313C15.9688 1.65235 15.6992 1.59375 14.8164 1.57422L14.0625 1.55469V1.04297C14.0625 0.570316 14.0547 0.523441 13.9648 0.367191C13.8203 0.121098 13.5938 3.8147e-06 13.2812 3.8147e-06C12.9688 3.8147e-06 12.7422 0.121098 12.5977 0.367191C12.5078 0.523441 12.5 0.570316 12.5 1.04688V1.5625H9.375H6.25V1.04688C6.25 0.570316 6.24219 0.523441 6.15234 0.367191C6.00781 0.121098 5.78125 3.8147e-06 5.46484 3.8147e-06C5.26562 3.8147e-06 5.17969 0.0195351 5.05078 0.101566ZM4.6875 3.64063C4.6875 4.11719 4.69531 4.16407 4.78516 4.32032C4.92969 4.56641 5.15625 4.6875 5.46875 4.6875C5.78125 4.6875 6.00781 4.56641 6.15234 4.32032C6.24219 4.16407 6.25 4.11719 6.25 3.64063V3.125H9.375H12.5V3.64063C12.5 4.11719 12.5078 4.16407 12.5977 4.32032C12.7422 4.56641 12.9688 4.6875 13.2812 4.6875C13.5938 4.6875 13.8203 4.56641 13.9648 4.32032C14.0547 4.16407 14.0625 4.11719 14.0625 3.63282V3.11329L14.6406 3.13672C15.1055 3.15625 15.2812 3.17969 15.5273 3.25782C16.2812 3.4961 16.8867 4.13672 17.0898 4.90235C17.1211 5.03125 17.1602 5.38672 17.1758 5.69141L17.1992 6.25H9.375H1.55078L1.57422 5.66797C1.61328 4.8086 1.76172 4.39454 2.21484 3.90625C2.47266 3.625 2.76562 3.42579 3.11328 3.29688C3.41797 3.17969 3.72266 3.13672 4.28906 3.12891L4.6875 3.125V3.64063Z" fill="#4F8FE1"/>
<path d="M13.5938 9.12108C12.5117 9.3203 11.5352 9.81249 10.7539 10.5586C10.2773 11.0156 9.94141 11.4687 9.64844 12.0391C9.23438 12.8594 9.0625 13.582 9.0625 14.5312C9.0625 15.4805 9.23438 16.2031 9.64844 17.0234C10.4375 18.5703 11.8945 19.6406 13.6289 19.9414C14.0625 20.0195 15.0078 20.0156 15.4531 19.9414C15.9805 19.8516 16.5195 19.668 17.0234 19.4141C18.5703 18.625 19.6406 17.168 19.9414 15.4336C20.0156 15.0078 20.0156 14.0547 19.9414 13.6289C19.8086 12.8594 19.5078 12.1016 19.0781 11.4531C18.7969 11.0351 18.2461 10.457 17.8164 10.1328C17.1719 9.64843 16.2656 9.26171 15.4531 9.12108C15.0234 9.04687 14.0039 9.04687 13.5938 9.12108ZM14.9805 10.6797C15.5156 10.7226 16.2031 10.9766 16.7227 11.332C17.043 11.5469 17.5156 12.0195 17.7305 12.3398C17.9531 12.6641 18.1758 13.1445 18.2891 13.5351C18.3672 13.8086 18.3789 13.9336 18.3789 14.5312C18.3789 15.332 18.3242 15.5859 18.0078 16.2305C17.4219 17.4375 16.1914 18.2891 14.8828 18.3906C13.8906 18.4726 12.9727 18.207 12.1992 17.6211C11.5078 17.1016 11.0234 16.3828 10.7734 15.5273C10.6953 15.2539 10.6836 15.1289 10.6836 14.5312C10.6836 13.9336 10.6953 13.8086 10.7734 13.5351C10.9688 12.8594 11.3086 12.2812 11.793 11.793C12.2852 11.3047 12.8789 10.9609 13.5312 10.7812C13.8281 10.6992 14.4102 10.6289 14.6094 10.6484C14.6641 10.6562 14.832 10.668 14.9805 10.6797Z" fill="#4F8FE1"/>
<path d="M14.1133 12.2891C14.0195 12.3438 13.9023 12.4609 13.8477 12.5547C13.75 12.7227 13.75 12.7227 13.75 13.75V14.7773L13.8477 14.9453C13.9062 15.0469 14.0156 15.1562 14.1172 15.2148L14.2852 15.3125H15.3125H16.3398L16.5078 15.2148C16.7539 15.0703 16.875 14.8438 16.875 14.5312C16.875 14.2188 16.7539 13.9922 16.5078 13.8477C16.3516 13.7578 16.3047 13.75 15.8281 13.75H15.3125V13.2344C15.3125 12.7578 15.3047 12.7109 15.2148 12.5547C15.0703 12.3086 14.8438 12.1875 14.5273 12.1875C14.3281 12.1875 14.2422 12.207 14.1133 12.2891Z" fill="#4F8FE1"/>
<path d="M3.48828 9.47656C3.24609 9.62109 3.125 9.84766 3.125 10.1562C3.125 10.6367 3.42578 10.9375 3.90625 10.9375C4.38672 10.9375 4.6875 10.6367 4.6875 10.1562C4.6875 9.67578 4.38672 9.375 3.90234 9.375C3.70312 9.375 3.61719 9.39453 3.48828 9.47656Z" fill="#4F8FE1"/>
<path d="M6.61328 9.47656C6.37109 9.62109 6.25 9.84766 6.25 10.1562C6.25 10.3516 6.26953 10.4414 6.34766 10.5703C6.49219 10.8164 6.71875 10.9375 7.03125 10.9375C7.34375 10.9375 7.57031 10.8164 7.71484 10.5703C7.85156 10.3359 7.85156 9.97656 7.71484 9.74219C7.57031 9.49609 7.34375 9.375 7.02734 9.375C6.82812 9.375 6.74219 9.39453 6.61328 9.47656Z" fill="#4F8FE1"/>
<path d="M3.48828 12.6016C3.24609 12.7461 3.125 12.9727 3.125 13.2812C3.125 13.5938 3.24609 13.8203 3.49219 13.9648C3.62109 14.043 3.71094 14.0625 3.90625 14.0625C4.21875 14.0625 4.44531 13.9414 4.58984 13.6953C4.72656 13.4609 4.72656 13.1016 4.58984 12.8672C4.44531 12.6211 4.21875 12.5 3.90234 12.5C3.70312 12.5 3.61719 12.5195 3.48828 12.6016Z" fill="#4F8FE1"/>
<path d="M6.61328 12.6016C6.37109 12.7461 6.25 12.9727 6.25 13.2812C6.25 13.4766 6.26953 13.5664 6.34766 13.6953C6.49219 13.9414 6.71875 14.0625 7.03125 14.0625C7.34375 14.0625 7.57031 13.9414 7.71484 13.6953C7.85156 13.4609 7.85156 13.1016 7.71484 12.8672C7.57031 12.6211 7.34375 12.5 7.02734 12.5C6.82812 12.5 6.74219 12.5195 6.61328 12.6016Z" fill="#4F8FE1"/>
</g>
<defs>
<clipPath id="clip0_2372_16109">
<rect width="20" height="20" fill="white"/>
</clipPath>
</defs>
</svg>
