<svg width="64" height="64" viewBox="0 0 64 64" fill="none" xmlns="http://www.w3.org/2000/svg">
<rect width="64" height="64" rx="12" fill="url(#paint0_linear_2241_9300)"/>
<path d="M30.3102 13.223C29.9 13.2559 29.3586 13.3707 29.1043 13.4609C28.4562 13.707 27.8082 14.3141 27.4719 15.0031C27.2176 15.5117 27.2012 15.6184 27.1684 16.5043L27.1437 17.4641L26.9223 17.5215C26.8074 17.5461 26.3645 17.7348 25.9379 17.9398L25.1668 18.3008L24.527 17.6855C23.8543 17.0293 23.4277 16.7914 22.6812 16.652C22.0496 16.5371 21.2539 16.6766 20.6551 17.0129C19.6133 17.6035 17.5051 19.7117 16.9965 20.6797C16.5371 21.5492 16.4879 22.4187 16.8488 23.3785C16.9637 23.7066 17.1852 24.002 17.6445 24.4859L18.2844 25.1504L18.1203 25.4785C17.9234 25.8641 17.5625 26.8566 17.5625 27.0289C17.5625 27.1191 17.3574 27.152 16.5535 27.1684C15.6102 27.2012 15.5117 27.2176 15.0031 27.4719C14.3141 27.8082 13.707 28.4562 13.4609 29.1043C13.0508 30.2035 13.0508 33.7965 13.4609 34.8957C13.707 35.5437 14.3141 36.1918 15.0031 36.5281C15.5117 36.7824 15.6184 36.7988 16.5043 36.8316L17.4641 36.8562L17.5215 37.0777C17.5461 37.1926 17.7348 37.6355 17.9398 38.0621L18.3008 38.8332L17.6527 39.5059C17.1852 39.998 16.9637 40.2934 16.8488 40.6215C16.4879 41.5812 16.5371 42.4508 16.9965 43.3203C17.5051 44.2801 19.6297 46.4129 20.6551 46.9871C21.2621 47.3316 22.0496 47.4629 22.6977 47.348C23.4195 47.2086 23.9363 46.9133 24.568 46.2816L25.134 45.7074L25.5113 45.8961C25.9379 46.1094 26.8566 46.4375 27.0289 46.4375C27.1191 46.4375 27.152 46.6508 27.1684 47.4465C27.2012 48.3898 27.2176 48.4883 27.4719 48.9969C27.8082 49.6859 28.4562 50.293 29.1043 50.5391C30.2035 50.9492 33.7965 50.9492 34.8957 50.5391C35.5437 50.293 36.1918 49.6859 36.5281 48.9969C36.7824 48.4883 36.7988 48.3816 36.8316 47.4957L36.8562 46.5359L37.0777 46.4785C37.1926 46.4539 37.6355 46.2652 38.0621 46.0602L38.8332 45.6992L39.473 46.3145C40.1457 46.9707 40.5723 47.2086 41.3187 47.348C41.9504 47.4629 42.7461 47.3234 43.3449 46.9871C44.3785 46.4047 46.4949 44.2801 47.0035 43.3203C47.4629 42.4508 47.5121 41.5812 47.1512 40.6215C47.0363 40.2934 46.8148 39.998 46.3555 39.5141L45.7156 38.8496L45.8797 38.5215C46.0766 38.1359 46.4375 37.1434 46.4375 36.9711C46.4375 36.8809 46.6426 36.848 47.4465 36.8316C48.3898 36.7988 48.4883 36.7824 48.9969 36.5281C49.6859 36.1918 50.293 35.5437 50.5391 34.8957C50.9492 33.7965 50.9492 30.2035 50.5391 29.1043C50.293 28.4562 49.6859 27.8082 48.9969 27.4719C48.4883 27.2176 48.3816 27.2012 47.4957 27.1684L46.5359 27.1437L46.4785 26.9223C46.4539 26.8074 46.2652 26.3645 46.0602 25.9379L45.6992 25.1668L46.3473 24.4941C47.0281 23.7887 47.2578 23.3457 47.3727 22.55C47.4547 22.025 47.2906 21.2211 47.0035 20.6797C46.4867 19.7035 44.3785 17.5953 43.3449 17.0129C42.7379 16.6684 41.9504 16.5371 41.3023 16.652C40.5805 16.7914 40.0637 17.0785 39.432 17.7102L38.8742 18.2844L38.2672 18.0055C37.9391 17.8496 37.4879 17.6855 37.2664 17.6281L36.8562 17.5379L36.8234 16.5453C36.7988 15.6184 36.7824 15.5117 36.5281 15.0031C36.1918 14.3223 35.5437 13.707 34.9121 13.4691C34.1246 13.1738 32.0738 13.0672 30.3102 13.223ZM32.4348 21.2047C32.5824 21.2621 32.8121 21.4344 32.9434 21.5738C33.1812 21.8281 33.1895 21.8691 33.2305 22.7879L33.2715 23.7312L33.8785 23.8871C35.4617 24.2891 36.6348 25.2324 37.3074 26.6352C37.6848 27.4227 37.7176 27.6852 37.4797 28.1363C37.2582 28.5711 36.9875 28.7844 36.5773 28.85C35.9539 28.9566 35.4617 28.6285 35.1418 27.9148C34.8875 27.3324 34.3133 26.7336 33.7801 26.4957C33.4027 26.3234 33.2059 26.2988 32.0082 26.2742C31.1059 26.2496 30.548 26.2742 30.302 26.348C29.2355 26.6434 28.6613 27.718 28.973 28.8254C29.0797 29.2027 29.5473 29.7441 29.941 29.941C30.1051 30.023 31.2699 30.4332 32.5332 30.8516C33.7965 31.2699 35.0023 31.6965 35.2074 31.8031C36.1754 32.2871 37.0285 33.2633 37.3895 34.3215C37.9719 35.9785 37.5699 37.693 36.3148 38.9316C35.5355 39.7027 34.8055 40.0555 33.6242 40.2441L33.3125 40.2934V40.8594C33.3125 41.7699 33.1895 42.1965 32.8203 42.5328C32.2707 43.025 31.6227 43.0086 31.1141 42.4754C30.8105 42.1637 30.6957 41.7125 30.6875 40.8348C30.6875 40.2605 30.6711 40.2031 30.5316 40.2031C30.4414 40.2031 30.0805 40.1129 29.7195 39.998C28.4316 39.5879 27.3324 38.6445 26.7254 37.4305C26.2906 36.5527 26.266 36.118 26.6105 35.6668C27.2996 34.7645 28.3824 34.9777 28.8746 36.1262C29.1043 36.6594 29.7031 37.2746 30.2199 37.5043C30.5973 37.6766 30.7941 37.7012 31.9918 37.7258C32.8941 37.7504 33.452 37.7258 33.698 37.652C34.7645 37.3566 35.3387 36.282 35.027 35.1746C34.9203 34.7973 34.4527 34.2559 34.059 34.059C33.8949 33.977 32.6973 33.5504 31.3848 33.1156C28.3578 32.1066 27.882 31.8441 27.1355 30.7039C26.6352 29.9492 26.4219 29.3094 26.3645 28.4727C26.2824 27.1684 26.7336 26.0117 27.6852 25.0684C28.4645 24.2973 29.1945 23.9445 30.384 23.7559L30.6875 23.7066V23.1406C30.6875 22.0332 30.9336 21.4672 31.5406 21.2047C31.8687 21.0652 32.1066 21.0652 32.4348 21.2047Z" fill="white"/>
<defs>
<linearGradient id="paint0_linear_2241_9300" x1="22.2529" y1="59.9149" x2="52.7392" y2="46.242" gradientUnits="userSpaceOnUse">
<stop stop-color="#4F8FE1"/>
<stop offset="1" stop-color="#256DC9"/>
</linearGradient>
</defs>
</svg>
