<svg width="100" height="100" viewBox="0 0 100 100" fill="none" xmlns="http://www.w3.org/2000/svg">
<circle cx="50" cy="50" r="50" fill="#ED4B4B" fill-opacity="0.1"/>
<circle cx="50.0002" cy="50.1988" r="42.0354" fill="#ED4B4B" fill-opacity="0.1"/>
<path d="M48.9565 25.0647C47.0449 25.3503 45.2651 26.427 44.2544 27.8992C44.0676 28.1738 39.7939 35.8862 34.7622 45.0488C28.5439 56.3428 25.5227 61.9458 25.3579 62.4622C25.1602 63.0884 25.1162 63.4839 25.1162 64.6045C25.1272 65.802 25.1602 66.0767 25.4128 66.7798C26.2039 68.9661 27.7969 70.5481 29.9282 71.2732L30.8291 71.5808H50.0002H69.1714L70.0723 71.2732C72.2036 70.5481 73.7966 68.9661 74.5876 66.7798C74.8403 66.0767 74.8733 65.802 74.8843 64.6045C74.8843 63.4839 74.8403 63.0884 74.6426 62.4622C74.4778 61.9458 71.4565 56.3428 65.2383 45.0488C60.2065 35.8862 55.9329 28.1738 55.7351 27.8882C54.3398 25.8667 51.4834 24.6692 48.9565 25.0647ZM51.1648 39.1711C51.4614 39.3469 51.7581 39.6545 51.9448 39.9731L52.2524 40.4895L52.2854 45.5432C52.3074 49.1028 52.2854 50.7288 52.1865 51.0474C51.7031 52.8052 49.429 53.3105 48.2754 51.9153C47.6931 51.2122 47.6821 51.0364 47.7151 45.5432L47.748 40.4895L48.0447 39.9731C48.7148 38.8525 50.0332 38.512 51.1648 39.1711ZM50.9451 57.782C51.824 58.1775 52.4172 59.2651 52.2524 60.199C52.1646 60.7373 51.8459 61.2317 51.2856 61.6821C50.8901 62.0007 50.7913 62.0227 50.0002 62.0227C49.2092 62.0227 49.1104 62.0007 48.7148 61.6821C48.4841 61.4954 48.1875 61.1877 48.0557 60.99C47.1108 59.6057 48.2644 57.5732 50.0002 57.5732C50.2749 57.5732 50.6924 57.6721 50.9451 57.782Z" fill="#DF3A45"/>
</svg>
