<svg width="24" height="14" viewBox="0 0 24 14" fill="none" xmlns="http://www.w3.org/2000/svg">
<path d="M12.0005 4.50585C13.2381 4.50585 14.4251 4.99752 15.3003 5.87269C16.1755 6.74786 16.6671 7.93484 16.6671 9.17252C16.6671 10.4102 16.1755 11.5972 15.3003 12.4724C14.4251 13.3475 13.2381 13.8392 12.0005 13.8392C10.7628 13.8392 9.5758 13.3475 8.70063 12.4724C7.82546 11.5972 7.33379 10.4102 7.33379 9.17252C7.33379 7.93484 7.82546 6.74786 8.70063 5.87269C9.5758 4.99752 10.7628 4.50585 12.0005 4.50585ZM12.0005 6.25585C11.2269 6.25585 10.485 6.56315 9.93807 7.11013C9.39109 7.65711 9.08379 8.39897 9.08379 9.17252C9.08379 9.94607 9.39109 10.6879 9.93807 11.2349C10.485 11.7819 11.2269 12.0892 12.0005 12.0892C12.774 12.0892 13.5159 11.7819 14.0629 11.2349C14.6098 10.6879 14.9171 9.94607 14.9171 9.17252C14.9171 8.39897 14.6098 7.65711 14.0629 7.11013C13.5159 6.56315 12.774 6.25585 12.0005 6.25585ZM12.0005 0.416687C17.3823 0.416687 22.0291 4.09169 23.3183 9.24135C23.3748 9.46646 23.3395 9.70477 23.2203 9.90387C23.101 10.103 22.9076 10.2466 22.6825 10.303C22.4574 10.3595 22.219 10.3242 22.0199 10.205C21.8208 10.0857 21.6773 9.89229 21.6208 9.66719C21.0806 7.52457 19.8407 5.62359 18.0975 4.26567C16.3543 2.90776 14.2077 2.17063 11.9981 2.17116C9.7884 2.1717 7.64216 2.90987 5.89965 4.26863C4.15713 5.62739 2.91808 7.52897 2.37896 9.67185C2.35115 9.78339 2.30165 9.88836 2.23328 9.98076C2.1649 10.0732 2.079 10.1512 1.98047 10.2104C1.88194 10.2696 1.77271 10.3088 1.65902 10.3258C1.54534 10.3428 1.42941 10.3372 1.31788 10.3094C1.20634 10.2816 1.10138 10.2321 1.00897 10.1638C0.916566 10.0954 0.838534 10.0095 0.779329 9.91094C0.720124 9.81241 0.680906 9.70319 0.663914 9.5895C0.646921 9.47581 0.652487 9.35989 0.680295 9.24835C1.31244 6.7249 2.76985 4.48511 4.82092 2.88492C6.87198 1.28474 9.39903 0.415975 12.0005 0.416687Z" fill="white"/>
</svg>
