<svg width="72" height="72" viewBox="0 0 72 72" fill="none" xmlns="http://www.w3.org/2000/svg">
<rect width="72" height="72" rx="12" fill="url(#paint0_linear_947_2067)"/>
<path d="M22.5833 53.25C21.5292 53.25 20.6267 52.8747 19.876 52.124C19.1253 51.3733 18.75 50.4708 18.75 49.4167V22.5833C18.75 21.5292 19.1253 20.6267 19.876 19.876C20.6267 19.1253 21.5292 18.75 22.5833 18.75H49.4167C50.4708 18.75 51.3733 19.1253 52.124 19.876C52.8747 20.6267 53.25 21.5292 53.25 22.5833V49.4167C53.25 50.4708 52.8747 51.3733 52.124 52.124C51.3733 52.8747 50.4708 53.25 49.4167 53.25H22.5833ZM22.5833 49.4167H49.4167V26.4167H22.5833V49.4167ZM36 45.5833C33.3806 45.5833 31.0406 44.8726 28.9802 43.451C26.9198 42.0295 25.4264 40.1847 24.5 37.9167C25.4264 35.6486 26.9198 33.8038 28.9802 32.3823C31.0406 30.9608 33.3806 30.25 36 30.25C38.6194 30.25 40.9594 30.9608 43.0198 32.3823C45.0802 33.8038 46.5736 35.6486 47.5 37.9167C46.5736 40.1847 45.0802 42.0295 43.0198 43.451C40.9594 44.8726 38.6194 45.5833 36 45.5833ZM36 42.7083C37.7889 42.7083 39.4181 42.2851 40.8875 41.4385C42.3569 40.592 43.5069 39.4181 44.3375 37.9167C43.5069 36.4153 42.3569 35.2413 40.8875 34.3948C39.4181 33.5483 37.7889 33.125 36 33.125C34.2111 33.125 32.5819 33.5483 31.1125 34.3948C29.6431 35.2413 28.4931 36.4153 27.6625 37.9167C28.4931 39.4181 29.6431 40.592 31.1125 41.4385C32.5819 42.2851 34.2111 42.7083 36 42.7083ZM36 40.7917C36.7986 40.7917 37.4774 40.5122 38.0365 39.9531C38.5955 39.3941 38.875 38.7153 38.875 37.9167C38.875 37.1181 38.5955 36.4392 38.0365 35.8802C37.4774 35.3212 36.7986 35.0417 36 35.0417C35.2014 35.0417 34.5226 35.3212 33.9635 35.8802C33.4045 36.4392 33.125 37.1181 33.125 37.9167C33.125 38.7153 33.4045 39.3941 33.9635 39.9531C34.5226 40.5122 35.2014 40.7917 36 40.7917Z" fill="#E3E3E3"/>
<defs>
<linearGradient id="paint0_linear_947_2067" x1="36" y1="0" x2="36" y2="72" gradientUnits="userSpaceOnUse">
<stop stop-color="#16263B"/>
<stop offset="1" stop-color="#182842"/>
</linearGradient>
</defs>
</svg>
