<svg width="20" height="20" viewBox="0 0 20 20" fill="none" xmlns="http://www.w3.org/2000/svg">
<path fill-rule="evenodd" clip-rule="evenodd" d="M9.99967 6.66668C9.11562 6.66668 8.26777 7.01787 7.64265 7.64299C7.01753 8.26811 6.66634 9.11596 6.66634 10C6.66634 10.8841 7.01753 11.7319 7.64265 12.357C8.26777 12.9822 9.11562 13.3333 9.99967 13.3333C10.8837 13.3333 11.7316 12.9822 12.3567 12.357C12.9818 11.7319 13.333 10.8841 13.333 10C13.333 9.11596 12.9818 8.26811 12.3567 7.64299C11.7316 7.01787 10.8837 6.66668 9.99967 6.66668ZM8.82116 8.8215C9.13372 8.50894 9.55765 8.33334 9.99967 8.33334C10.4417 8.33334 10.8656 8.50894 11.1782 8.8215C11.4907 9.13406 11.6663 9.55798 11.6663 10C11.6663 10.442 11.4907 10.866 11.1782 11.1785C10.8656 11.4911 10.4417 11.6667 9.99967 11.6667C9.55765 11.6667 9.13372 11.4911 8.82116 11.1785C8.5086 10.866 8.33301 10.442 8.33301 10C8.33301 9.55798 8.5086 9.13406 8.82116 8.8215Z" fill="#4F8FE1"/>
<path fill-rule="evenodd" clip-rule="evenodd" d="M9.15051 0.833344C8.77197 0.833344 8.44098 1.08848 8.34462 1.45455L7.92233 3.05888L6.58063 3.62448L5.55358 2.71074C5.22383 2.41737 4.72251 2.43199 4.41042 2.74409L2.74375 4.41075C2.44183 4.71267 2.41696 5.19395 2.68615 5.52538L3.58625 6.63364L3.03429 7.99157L1.47689 8.35516C1.09978 8.4432 0.833008 8.77942 0.833008 9.16668V10.8333C0.833008 11.2091 1.0845 11.5384 1.44702 11.6373L3.05675 12.0764L3.62388 13.4218L2.71106 14.4454C2.41705 14.7751 2.43139 15.2769 2.74375 15.5893L4.41042 17.2559C4.71274 17.5583 5.19482 17.5827 5.52621 17.3126L6.63408 16.4095L7.95863 16.9543L8.35837 18.5374C8.45181 18.9074 8.78468 19.1667 9.16634 19.1667H10.833C11.2145 19.1667 11.5473 18.9076 11.6409 18.5378L12.0416 16.954L13.4105 16.3871C13.5483 16.5026 13.7063 16.6383 13.8635 16.7751C14.0197 16.9112 14.1649 17.0394 14.2711 17.1336C14.3242 17.1807 14.3674 17.2193 14.3973 17.2459L14.4426 17.2864C14.7721 17.5821 15.2759 17.569 15.5889 17.2559L17.2556 15.5893C17.5623 15.2826 17.5825 14.7919 17.3019 14.461L16.3942 13.3906L16.9559 12.0339L18.5426 11.6216C18.9099 11.5261 19.1663 11.1945 19.1663 10.815V9.16668C19.1663 8.78558 18.9078 8.45303 18.5385 8.35907L16.9616 7.95788L16.4013 6.60446L17.3028 5.53797C17.5825 5.20709 17.5619 4.7171 17.2556 4.41075L15.5889 2.74409C15.2813 2.43649 14.7889 2.41724 14.4582 2.69988L13.3996 3.60474L11.9985 3.02867L11.5848 1.45482C11.4885 1.08862 11.1575 0.833344 10.7788 0.833344H9.15051ZM15.5343 14.9535L14.9642 15.5236L14.9579 15.5182C14.6502 15.2502 14.2537 14.9111 14.0302 14.7513C13.7961 14.584 13.4924 14.5492 13.2266 14.6593L11.0175 15.5743C10.7743 15.675 10.593 15.8846 10.5285 16.1398L10.1843 17.5H9.8154L9.47181 16.1393C9.40717 15.8833 9.22504 15.6731 8.98086 15.5727L6.8092 14.6793C6.52642 14.563 6.20264 14.6109 5.96564 14.8041L5.05662 15.5451L4.47877 14.9673L5.21829 14.138C5.43238 13.8979 5.48918 13.556 5.36423 13.2596L4.43507 11.0555C4.33565 10.8196 4.1334 10.6426 3.8865 10.5752L2.49967 10.1969V9.82787L3.8333 9.51652C4.09676 9.45501 4.31396 9.26944 4.41584 9.0188L5.31584 6.80464C5.4303 6.52303 5.38235 6.20143 5.1907 5.96547L4.4536 5.05792L5.03307 4.47845L5.86577 5.21928C6.10583 5.43285 6.44729 5.48938 6.74338 5.36457L8.94755 4.4354C9.18578 4.33497 9.36391 4.12966 9.42972 3.87964L9.79287 2.50001H10.1363L10.4921 3.85354C10.5585 4.10618 10.7395 4.31307 10.9811 4.41241L13.2369 5.33991C13.5262 5.45882 13.8576 5.40581 14.0953 5.20264L14.9553 4.46751L15.5352 5.04735L14.8007 5.91622C14.5995 6.15432 14.548 6.48485 14.6672 6.77291L15.5814 8.98125C15.6819 9.22411 15.8911 9.40531 16.1459 9.47012L17.4997 9.81454V10.1705L16.1351 10.5251C15.8822 10.5909 15.6747 10.7714 15.5747 11.0129L14.6597 13.2229C14.5403 13.5114 14.5921 13.8425 14.7941 14.0806L15.5343 14.9535Z" fill="#4F8FE1"/>
</svg>
