<svg width="20" height="20" viewBox="0 0 20 20" fill="none" xmlns="http://www.w3.org/2000/svg">
<path d="M18.2667 14.4833C18.1821 14.687 18.0203 14.8488 17.8167 14.9333C17.7165 14.976 17.6089 14.9987 17.5 15H13.3334C13.1124 15 12.9004 14.9122 12.7441 14.7559C12.5878 14.5996 12.5 14.3877 12.5 14.1667C12.5 13.9457 12.5878 13.7337 12.7441 13.5774C12.9004 13.4211 13.1124 13.3333 13.3334 13.3333H15.4917L10.8334 8.675L8.0917 11.425C8.01423 11.5031 7.92206 11.5651 7.82051 11.6074C7.71896 11.6497 7.61004 11.6715 7.50003 11.6715C7.39002 11.6715 7.2811 11.6497 7.17955 11.6074C7.078 11.5651 6.98583 11.5031 6.90836 11.425L1.90836 6.425C1.83026 6.34753 1.76826 6.25536 1.72595 6.15381C1.68365 6.05226 1.66187 5.94334 1.66187 5.83333C1.66187 5.72332 1.68365 5.6144 1.72595 5.51285C1.76826 5.4113 1.83026 5.31914 1.90836 5.24167C1.98583 5.16356 2.078 5.10156 2.17955 5.05926C2.2811 5.01695 2.39002 4.99517 2.50003 4.99517C2.61004 4.99517 2.71896 5.01695 2.82051 5.05926C2.92206 5.10156 3.01423 5.16356 3.0917 5.24167L7.50003 9.65833L10.2417 6.90833C10.3192 6.83023 10.4113 6.76823 10.5129 6.72592C10.6144 6.68362 10.7234 6.66183 10.8334 6.66183C10.9434 6.66183 11.0523 6.68362 11.1538 6.72592C11.2554 6.76823 11.3476 6.83023 11.425 6.90833L16.6667 12.1583V10C16.6667 9.77899 16.7545 9.56702 16.9108 9.41074C17.0671 9.25446 17.279 9.16667 17.5 9.16667C17.721 9.16667 17.933 9.25446 18.0893 9.41074C18.2456 9.56702 18.3334 9.77899 18.3334 10V14.1667C18.332 14.2756 18.3094 14.3831 18.2667 14.4833Z" fill="#DF3A45"/>
</svg>
