<svg width="20" height="20" viewBox="0 0 20 20" fill="none" xmlns="http://www.w3.org/2000/svg">
<path d="M18.2667 5.51667C18.1821 5.31304 18.0203 5.15123 17.8167 5.06667C17.7165 5.02397 17.6089 5.00132 17.5 5H13.3334C13.1124 5 12.9004 5.0878 12.7441 5.24408C12.5878 5.40036 12.5 5.61232 12.5 5.83333C12.5 6.05435 12.5878 6.26631 12.7441 6.42259C12.9004 6.57887 13.1124 6.66667 13.3334 6.66667H15.4917L10.8334 11.325L8.0917 8.575C8.01423 8.49689 7.92206 8.4349 7.82051 8.39259C7.71896 8.35028 7.61004 8.3285 7.50003 8.3285C7.39002 8.3285 7.2811 8.35028 7.17955 8.39259C7.078 8.4349 6.98583 8.49689 6.90836 8.575L1.90836 13.575C1.83026 13.6525 1.76826 13.7446 1.72595 13.8462C1.68365 13.9477 1.66187 14.0567 1.66187 14.1667C1.66187 14.2767 1.68365 14.3856 1.72595 14.4871C1.76826 14.5887 1.83026 14.6809 1.90836 14.7583C1.98583 14.8364 2.078 14.8984 2.17955 14.9407C2.2811 14.9831 2.39002 15.0048 2.50003 15.0048C2.61004 15.0048 2.71896 14.9831 2.82051 14.9407C2.92206 14.8984 3.01423 14.8364 3.0917 14.7583L7.50003 10.3417L10.2417 13.0917C10.3192 13.1698 10.4113 13.2318 10.5129 13.2741C10.6144 13.3164 10.7234 13.3382 10.8334 13.3382C10.9434 13.3382 11.0523 13.3164 11.1538 13.2741C11.2554 13.2318 11.3476 13.1698 11.425 13.0917L16.6667 7.84167V10C16.6667 10.221 16.7545 10.433 16.9108 10.5893C17.0671 10.7455 17.279 10.8333 17.5 10.8333C17.721 10.8333 17.933 10.7455 18.0893 10.5893C18.2456 10.433 18.3334 10.221 18.3334 10V5.83333C18.332 5.72444 18.3094 5.61685 18.2667 5.51667Z" fill="#00B676"/>
</svg>
