<svg width="140" height="140" viewBox="0 0 140 140" fill="none" xmlns="http://www.w3.org/2000/svg">
<circle opacity="0.04" cx="70" cy="70" r="70" fill="#4F8FE1"/>
<circle cx="70" cy="70" r="59.5" fill="#4F8FE1" fill-opacity="0.1"/>
<g clip-path="url(#clip0_1457_22282)">
<path d="M59.7459 40.7852C56.9451 40.9024 52.9959 41.418 50.9451 41.9336C46.7967 42.9883 42.9412 46.6446 41.4764 50.9219C40.9139 52.5625 40.4217 56.3711 40.1053 61.3985C39.8123 66.3203 40.1404 75.8008 40.7733 80.043C41.5467 85.3164 44.6756 90.8242 48.2967 93.2969C52.5858 96.2266 58.0936 98.4414 62.7576 99.1328C63.7772 99.2735 64.1873 99.2852 64.867 99.1914C66.6014 98.9219 68.242 97.7969 69.4022 96.0742C69.9529 95.2539 70.6326 93.7188 70.785 92.9571C70.867 92.5235 71.0076 92.4532 72.1678 92.2657C74.0897 91.9727 75.7069 91.3282 77.4178 90.1914C80.1131 88.4102 82.4569 85.2813 83.242 82.4102C83.7225 80.6172 84.3084 75.6016 84.1444 74.6875C84.0389 74.1602 83.4881 73.4922 82.9608 73.2344C82.5037 73.0235 81.5428 72.9883 81.0506 73.1758C80.6522 73.3282 80.1131 73.8203 79.8904 74.2422C79.8084 74.418 79.6444 75.3321 79.5506 76.293C79.3045 78.6953 79.0584 80.4063 78.8358 81.1446C77.9217 84.2032 74.8514 87.0977 71.9451 87.6485L71.4881 87.7305L71.5584 86.4532C71.9451 79.9844 71.91 74.0782 71.4647 67.9961C71.0428 62.3946 70.5272 60.1563 68.8162 56.7461C67.5975 54.2969 65.4998 51.6602 63.8475 50.4883C61.9608 49.1407 58.8201 47.4649 56.3006 46.4571C55.1756 46.0117 54.9061 45.8594 55.1287 45.8125C55.8436 45.6602 57.6014 45.4961 59.7576 45.3672C64.6795 45.0977 71.4412 45.7774 73.574 46.7735C76.3162 48.0625 78.4373 50.7227 79.0233 53.6055C79.1404 54.2149 79.3279 55.5508 79.4334 56.5821C79.6678 58.9961 79.785 59.5235 80.16 60.0157C80.7342 60.7774 81.9295 61.0703 82.8553 60.6836C83.4295 60.4492 83.6873 60.2032 83.9686 59.6289C84.1912 59.2188 84.2029 59.0196 84.1444 57.8711C84.0506 56.125 83.6287 52.9492 83.3475 51.8594C82.3045 47.7461 78.8592 43.8789 74.8865 42.3321C72.0975 41.2539 65.2889 40.5508 59.7459 40.7852Z" fill="#4F8FE1"/>
<path d="M89.5116 56.6875C89.453 56.7227 89.2538 56.7696 89.078 56.8047C88.6444 56.8985 87.9296 57.543 87.7421 58.0117C87.5194 58.5274 87.5311 59.5 87.7655 59.9571C87.871 60.168 88.9139 61.293 90.0741 62.4649L92.2069 64.6094H84.6835C79.703 64.6094 76.9608 64.6563 76.5624 64.7383C74.6757 65.1367 74.16 67.6094 75.7069 68.793L76.1288 69.1211L84.203 69.1797L92.2655 69.2383L90.0858 71.4063C88.8905 72.6016 87.8358 73.7383 87.7421 73.9492C87.5428 74.3946 87.5311 75.3555 87.7069 75.8242C87.871 76.2696 88.3749 76.7969 88.8319 76.9844C89.2772 77.1836 90.2382 77.1953 90.7069 77.0313C91.0819 76.8907 99.578 68.4766 99.8358 67.9844C100.058 67.5508 100.047 66.3321 99.8124 65.8633C99.5546 65.3594 91.6327 57.4024 91.035 57.0508C90.5897 56.7813 89.7694 56.5938 89.5116 56.6875Z" fill="#4F8FE1"/>
</g>
<defs>
<clipPath id="clip0_1457_22282">
<rect width="60" height="60" fill="white" transform="translate(40 40)"/>
</clipPath>
</defs>
</svg>
