<svg width="64" height="64" viewBox="0 0 64 64" fill="none" xmlns="http://www.w3.org/2000/svg">
<rect width="64" height="64" rx="12" fill="url(#paint0_linear_1046_2526)"/>
<path d="M49.879 31.202L32.779 14.102C32.095 13.418 31.145 13 30.1 13H16.8C14.71 13 13 14.71 13 16.8V30.1C13 31.145 13.418 32.095 14.121 32.798L31.221 49.898C31.905 50.582 32.855 51 33.9 51C34.945 51 35.895 50.582 36.579 49.879L49.879 36.579C50.582 35.895 51 34.945 51 33.9C51 32.855 50.563 31.886 49.879 31.202ZM19.65 22.5C18.073 22.5 16.8 21.227 16.8 19.65C16.8 18.073 18.073 16.8 19.65 16.8C21.227 16.8 22.5 18.073 22.5 19.65C22.5 21.227 21.227 22.5 19.65 22.5Z" fill="#E3E3E3"/>
<defs>
<linearGradient id="paint0_linear_1046_2526" x1="22.2529" y1="59.9149" x2="52.7392" y2="46.242" gradientUnits="userSpaceOnUse">
<stop stop-color="#2F8E32"/>
<stop offset="1" stop-color="#2B722C"/>
</linearGradient>
</defs>
</svg>
