<svg width="64" height="64" viewBox="0 0 64 64" fill="none" xmlns="http://www.w3.org/2000/svg">
<rect width="64" height="64" rx="12" fill="url(#paint0_linear_2280_5540)"/>
<path d="M20.655 13.707C19.0308 13.9859 17.4394 14.8062 16.1843 16.0367C15.0769 17.1113 14.355 18.309 13.9039 19.8348C13.6003 20.8684 13.5347 22.7469 13.7726 23.8789C14.1335 25.618 14.839 26.9141 16.1187 28.1937C17.8249 29.9 19.7281 30.6875 22.1562 30.6875C24.4941 30.6875 26.43 29.9082 28.0871 28.3168C29.2273 27.2176 29.9492 26.0281 30.4085 24.4777C30.7121 23.4441 30.7777 21.5656 30.5398 20.4336C30.1789 18.6945 29.4734 17.3984 28.1937 16.1187C26.471 14.3961 24.5597 13.6168 22.1152 13.6332C21.5328 13.6414 20.8683 13.6742 20.655 13.707ZM22.8124 17.8332C23.3785 18.2105 23.4277 18.3992 23.4277 20.1875C23.4277 21.9758 23.3785 22.1645 22.8124 22.5418C22.2382 22.9355 21.4343 22.7141 21.057 22.0742C20.9011 21.8117 20.8847 21.6559 20.8847 20.1875C20.8847 18.7191 20.9011 18.5633 21.057 18.3008C21.3031 17.8824 21.6968 17.6445 22.1562 17.6445C22.4187 17.6445 22.632 17.702 22.8124 17.8332ZM22.796 24.3711C23.8624 25.0191 23.4031 26.668 22.1562 26.668C21.4589 26.668 20.9257 26.1348 20.9257 25.4375C20.9257 24.7402 21.4589 24.207 22.1562 24.207C22.3777 24.207 22.632 24.2727 22.796 24.3711Z" fill="white"/>
<path d="M32.3363 18.998C31.9098 19.0637 31.5488 19.1293 31.5324 19.1457C31.516 19.1621 31.5898 19.5066 31.6883 19.9086C31.8523 20.5402 31.8769 20.8437 31.8687 22.1973C31.8687 23.6164 31.8441 23.8297 31.6473 24.5598C31.1797 26.3152 30.3348 27.7836 29.0551 29.0469C27.759 30.343 26.3152 31.1797 24.5598 31.6473C23.8297 31.8523 23.6164 31.8687 22.1973 31.8687C20.8355 31.8769 20.5484 31.8523 19.9086 31.6883C19.5066 31.5898 19.1621 31.516 19.1457 31.5324C19.1293 31.5488 19.0637 31.9836 18.9898 32.5004C18.793 33.9031 18.8668 36.4461 19.1539 37.7832C20.4746 44.0422 25.2078 48.759 31.5078 50.1125C32.4676 50.3176 32.6644 50.3258 34.625 50.3258C36.5855 50.3258 36.7824 50.3176 37.7422 50.1125C40.9414 49.4234 43.5664 48.0125 45.7894 45.7894C48.7918 42.7871 50.3832 38.907 50.3832 34.625C50.3832 30.3101 48.8082 26.4875 45.7894 23.4605C43.5582 21.2375 40.9332 19.8266 37.7832 19.1539C36.9301 18.9652 36.5527 18.9324 34.9531 18.9078C33.6406 18.8914 32.8859 18.916 32.3363 18.998ZM35.2812 25.7082C35.4371 25.8066 35.634 26.0199 35.7242 26.1758C35.8883 26.4547 35.8965 26.6023 35.9211 29.8836L35.9457 33.3043L39.3664 33.3289C42.6476 33.3535 42.7953 33.3617 43.0742 33.5258C43.9519 34.0426 43.9519 35.2074 43.0742 35.7242C42.7953 35.8883 42.6805 35.8965 38.5625 35.8965C34.4445 35.8965 34.3297 35.8883 34.0508 35.7242C33.657 35.4945 33.4109 35.109 33.3535 34.6004C33.3289 34.3625 33.3125 32.4348 33.3289 30.3184C33.3535 26.6023 33.3617 26.4547 33.5258 26.1758C33.7719 25.7574 34.1656 25.5195 34.625 25.5195C34.8875 25.5195 35.1008 25.5769 35.2812 25.7082Z" fill="white"/>
<defs>
<linearGradient id="paint0_linear_2280_5540" x1="22.2529" y1="59.9149" x2="52.7392" y2="46.242" gradientUnits="userSpaceOnUse">
<stop stop-color="#F18838"/>
<stop offset="1" stop-color="#E79F5B"/>
</linearGradient>
</defs>
</svg>
