<svg width="72" height="72" viewBox="0 0 72 72" fill="none" xmlns="http://www.w3.org/2000/svg">
<rect width="72" height="72" rx="12" fill="url(#paint0_linear_2237_8641)"/>
<path d="M22.5795 18.9142C19.9726 19.5851 17.9791 21.4924 17.1069 24.128C16.896 24.7702 16.8864 24.9715 16.8385 28.3452C16.7906 31.393 16.7618 31.9297 16.6277 32.1789C16.5318 32.3322 15.7459 33.1086 14.8642 33.8945C13.992 34.6804 13.2061 35.4471 13.1294 35.5909C12.9569 35.9359 12.9569 36.7602 13.1294 37.1052C13.2061 37.249 13.992 38.0157 14.8642 38.8017C15.7459 39.5876 16.5318 40.3543 16.6277 40.5172C16.7618 40.7664 16.7906 41.3032 16.8385 44.351C16.8864 47.7247 16.896 47.9259 17.1069 48.5681C17.9791 51.2134 20.0109 53.1398 22.6179 53.7915C23.7009 54.0695 25.6561 54.0695 26.1066 53.7915C27.0363 53.2261 27.0458 51.683 26.1257 51.1175C25.9149 50.9929 25.5507 50.9258 24.7935 50.8779C24.228 50.8492 23.5284 50.7533 23.2409 50.6671C21.8224 50.2549 20.6339 49.0761 20.1547 47.6288C19.9822 47.0921 19.9534 46.7183 19.9055 43.4884L19.848 39.9422L19.4934 39.2042C19.1388 38.4566 18.6979 37.9486 17.4328 36.7985L16.9344 36.3481L17.4328 35.8976C18.6979 34.7475 19.1388 34.2395 19.4934 33.4919L19.848 32.7539L19.9055 29.2077C19.9534 25.9778 19.9822 25.604 20.1547 25.0673C20.6339 23.6201 21.8224 22.4412 23.2409 22.0291C23.5284 21.9428 24.228 21.847 24.7935 21.8182C25.9532 21.7416 26.2887 21.6074 26.605 21.0898C26.8637 20.6585 26.8637 19.8343 26.605 19.403C26.2408 18.8087 25.9436 18.7129 24.5443 18.7225C23.6338 18.7225 23.1067 18.7704 22.5795 18.9142Z" fill="white"/>
<path d="M45.8886 18.9046C44.9589 19.4701 44.9494 21.0131 45.8695 21.5786C46.0899 21.7032 46.4445 21.7703 47.2592 21.8182C47.9397 21.8566 48.5627 21.9524 48.8981 22.0674C50.2974 22.5562 51.4188 23.7063 51.8692 25.1344C52.0034 25.5753 52.0418 26.227 52.0897 29.2077L52.1472 32.7539L52.5018 33.4919C52.8564 34.2395 53.2973 34.7475 54.5624 35.8976L55.0608 36.3481L54.5624 36.7985C53.2973 37.9486 52.8564 38.4566 52.5018 39.2042L52.1472 39.9422L52.0897 43.4884C52.0418 46.4691 52.0034 47.1208 51.8692 47.5617C51.4188 48.9898 50.2974 50.1399 48.8981 50.6287C48.5627 50.7437 47.9397 50.8396 47.2592 50.8779C46.0324 50.9546 45.7161 51.0792 45.3902 51.6063C45.1315 52.0376 45.1315 52.8618 45.3902 53.2931C45.7449 53.8778 46.0516 53.9832 47.4125 53.9832C48.8885 53.9832 49.7607 53.7819 50.9971 53.1685C52.8373 52.258 54.2078 50.6287 54.8883 48.5681C55.0992 47.9355 55.1088 47.7151 55.1567 44.351C55.2046 41.3032 55.2333 40.7664 55.3675 40.5172C55.4634 40.3543 56.2493 39.5876 57.131 38.8016C58.0032 38.0157 58.7891 37.249 58.8658 37.1052C58.9425 36.9519 59 36.6164 59 36.3481C59 36.0797 58.9425 35.7442 58.8658 35.5909C58.7891 35.4471 58.0032 34.6804 57.131 33.8945C56.2493 33.1086 55.4634 32.3322 55.3675 32.1789C55.2333 31.9297 55.2046 31.393 55.1567 28.3451C55.1088 24.9715 55.0992 24.7702 54.8883 24.128C54.0066 21.4732 52.0034 19.5755 49.3773 18.9046C48.2943 18.6266 46.3391 18.6266 45.8886 18.9046Z" fill="white"/>
<path d="M33.6878 22.6904C31.2438 23.1026 28.819 24.2431 26.9213 25.882C24.506 27.981 22.8479 30.9425 22.3399 34.0958C22.1578 35.2076 22.1578 37.4886 22.3399 38.6004C22.6275 40.3639 23.3846 42.3575 24.3335 43.8335C26.4229 47.0825 29.9307 49.3828 33.7453 50.0058C34.8475 50.1879 37.1382 50.1879 38.2499 50.0058C40.2051 49.6895 42.1699 48.894 43.8759 47.7343C45.0165 46.9675 46.6171 45.3669 47.3838 44.2264C48.5435 42.5204 49.339 40.5556 49.6553 38.6004C49.8374 37.4886 49.8374 35.2076 49.6553 34.0958C49.2528 31.5943 48.1314 29.2078 46.4637 27.2717C44.3647 24.8565 41.4032 23.1984 38.2499 22.6904C37.1957 22.5179 34.7133 22.5179 33.6878 22.6904ZM44.4127 28.9682C45.074 29.3707 45.3136 30.3004 44.9206 30.9425C44.4702 31.6709 36.2181 43.0475 35.8634 43.4213C34.9338 44.3989 33.6303 44.6289 32.4322 44.0347C31.6463 43.6513 31.6559 43.6609 29.2119 40.1243C26.8062 36.6356 26.8925 36.7794 26.8925 36.2522C26.8925 35.1213 28.1768 34.4025 29.0969 35.0255C29.2982 35.1692 30.2087 36.3768 31.5409 38.3129C32.7102 39.9997 33.707 41.3703 33.7453 41.3607C33.7836 41.3511 35.7868 38.61 38.1924 35.2746C40.9431 31.4697 42.6971 29.1311 42.8983 28.9873C43.3105 28.719 43.9718 28.6998 44.4127 28.9682Z" fill="white"/>
<defs>
<linearGradient id="paint0_linear_2237_8641" x1="36" y1="0" x2="36" y2="72" gradientUnits="userSpaceOnUse">
<stop stop-color="#16263B"/>
<stop offset="1" stop-color="#182842"/>
</linearGradient>
</defs>
</svg>
