<svg width="29" height="22" viewBox="0 0 29 22" fill="none" xmlns="http://www.w3.org/2000/svg">
<path d="M21.0244 8.67969C24.5453 8.67994 27.3681 11.4535 27.3682 14.8359C27.3682 18.2184 24.5453 20.9919 21.0244 20.9922C17.5033 20.9922 14.6797 18.2185 14.6797 14.8359C14.6797 11.4534 17.5033 8.67969 21.0244 8.67969Z" stroke="#4F8FE1" stroke-width="1.36"/>
<path d="M20.9629 11.1921C21.282 11.1922 21.5526 11.4153 21.5527 11.7048V12.2039C22.1542 12.3195 22.6773 12.6274 22.9434 13.0818C23.0754 13.3077 22.997 13.5734 22.7812 13.7195L22.6807 13.7742C22.394 13.8979 22.0407 13.801 21.8926 13.5476C21.8146 13.4144 21.6509 13.3041 21.4414 13.239C21.2329 13.1743 20.9857 13.1565 20.751 13.2C20.4769 13.2509 20.2564 13.3766 20.1553 13.5291C20.092 13.6248 20.0813 13.7191 20.1182 13.8142C20.1465 13.8872 20.1804 13.9437 20.2236 13.989C20.2669 14.0343 20.3214 14.0706 20.3926 14.1013C20.5371 14.1635 20.7455 14.2015 21.0605 14.2478C21.6857 14.3392 22.577 14.4668 22.9248 15.364C23.0709 15.741 23.0229 16.1425 22.791 16.4919C22.5384 16.873 22.0892 17.1517 21.5527 17.2791V17.7693C21.5526 18.0589 21.282 18.282 20.9629 18.282C20.6438 18.282 20.3741 18.0589 20.374 17.7693V17.3025C19.7721 17.1869 19.2485 16.8794 18.9824 16.4246C18.8316 16.1664 18.9559 15.8578 19.2451 15.7332C19.5319 15.609 19.8845 15.7066 20.0322 15.9597C20.1103 16.0929 20.2748 16.2023 20.4844 16.2673C20.693 16.3321 20.9404 16.3509 21.1748 16.3074C21.4486 16.2564 21.6683 16.1306 21.7695 15.9783C21.833 15.8827 21.8446 15.7874 21.8076 15.6921C21.7792 15.6189 21.7445 15.5628 21.7012 15.5173C21.6578 15.472 21.6035 15.4358 21.5322 15.405C21.3875 15.3425 21.1789 15.3049 20.8633 15.2585C20.2387 15.1671 19.3482 15.0391 19.001 14.1423C18.8549 13.7653 18.9028 13.3639 19.1348 13.0144C19.3874 12.6334 19.8366 12.3547 20.373 12.2273V11.7048C20.3732 11.4152 20.6438 11.1921 20.9629 11.1921Z" fill="#4F8FE1" stroke="#4F8FE1" stroke-width="0.09"/>
<mask id="path-3-inside-1_1143_2066" fill="white">
<rect width="17" height="4.6" rx="1"/>
</mask>
<rect width="17" height="4.6" rx="1" stroke="#4F8FE1" stroke-width="3.2" mask="url(#path-3-inside-1_1143_2066)"/>
<path d="M16.0254 8C15.4705 8.46786 14.9776 9.00577 14.5576 9.59961H5.59961V11H13.7539C13.5238 11.5086 13.3428 12.0436 13.2158 12.5996H5L4.89746 12.5947C4.39335 12.5434 4 12.1173 4 11.5996V9C4 8.44772 4.44772 8 5 8H16.0254Z" fill="#4F8FE1"/>
<path d="M13.1348 16C13.2334 16.5537 13.3847 17.0886 13.585 17.5996H3.59961V19H14.29C14.6558 19.5848 15.0904 20.1216 15.583 20.5996H3L2.89746 20.5947C2.39335 20.5434 2 20.1173 2 19.5996V17C2 16.4477 2.44772 16 3 16H13.1348Z" fill="#4F8FE1"/>
</svg>
