<svg width="64" height="64" viewBox="0 0 64 64" fill="none" xmlns="http://www.w3.org/2000/svg">
<rect width="64" height="64" rx="12" fill="url(#paint0_linear_1148_2165)"/>
<mask id="path-2-inside-1_1148_2165" fill="white">
<rect x="18.9414" y="18" width="24.4396" height="6.61306" rx="1"/>
</mask>
<rect x="18.9414" y="18" width="24.4396" height="6.61306" rx="1" stroke="white" stroke-width="6.61306" mask="url(#path-2-inside-1_1148_2165)"/>
<path d="M48.1318 29.501C48.6841 29.501 49.1318 29.9487 49.1318 30.501V35.1143L49.127 35.2158C49.0794 35.6866 48.7051 36.0605 48.2344 36.1084L48.1318 36.1143H25.6924L25.5898 36.1084C25.1192 36.0604 24.7448 35.6866 24.6973 35.2158L24.6924 35.1143V30.501C24.6924 29.9487 25.1401 29.501 25.6924 29.501H48.1318Z" fill="white"/>
<path d="M45.2559 41.002C45.8079 41.0022 46.2559 41.4498 46.2559 42.002V46.6152L46.251 46.7168C46.2034 47.1874 45.8289 47.5613 45.3584 47.6094L45.2559 47.6152H22.8164L22.7139 47.6094C22.2432 47.5614 21.8689 47.1875 21.8213 46.7168L21.8164 46.6152V42.002C21.8164 41.4497 22.2641 41.002 22.8164 41.002H45.2559Z" fill="white"/>
<defs>
<linearGradient id="paint0_linear_1148_2165" x1="22.2529" y1="59.9149" x2="52.7392" y2="46.242" gradientUnits="userSpaceOnUse">
<stop stop-color="#3BB4A2"/>
<stop offset="1" stop-color="#1C9760"/>
</linearGradient>
</defs>
</svg>
