<svg width="64" height="64" viewBox="0 0 64 64" fill="none" xmlns="http://www.w3.org/2000/svg">
<rect width="64" height="64" rx="12" fill="url(#paint0_linear_1148_2114)"/>
<path d="M42.1621 31.0156C46.8158 31.0158 50.5566 34.6831 50.5566 39.168C50.5566 43.6528 46.8158 47.3201 42.1621 47.3203C37.5083 47.3203 33.7666 43.6529 33.7666 39.168C33.7666 34.683 37.5083 31.0156 42.1621 31.0156Z" stroke="white" stroke-width="1.36"/>
<path d="M42.084 34.4733C42.4909 34.4733 42.832 34.7575 42.832 35.1227V35.778C43.6116 35.9251 44.289 36.3229 44.6318 36.9088C44.8219 37.2344 44.6657 37.6257 44.2979 37.7838C43.9328 37.9413 43.4844 37.8174 43.2969 37.4967C43.1939 37.3206 42.9785 37.177 42.7061 37.0924C42.4347 37.0082 42.113 36.984 41.8076 37.0406C41.4516 37.1068 41.1637 37.2713 41.0303 37.4723C40.9462 37.5994 40.9309 37.7257 40.9805 37.8531C41.0175 37.9485 41.0619 38.0227 41.1191 38.0826C41.1765 38.1426 41.2486 38.1909 41.3418 38.2311C41.5304 38.3123 41.8013 38.3607 42.208 38.4205C43.017 38.5388 44.1603 38.7037 44.6064 39.8551C44.7936 40.3381 44.7321 40.8523 44.4346 41.3004C44.1087 41.7918 43.5275 42.1513 42.832 42.3141V42.9576C42.832 43.3228 42.491 43.6071 42.084 43.6071C41.677 43.607 41.336 43.3228 41.3359 42.9576V42.3444C40.5566 42.1971 39.879 41.8004 39.5361 41.2145C39.3458 40.8888 39.5023 40.497 39.8701 40.3385C40.2351 40.1807 40.683 40.3055 40.8701 40.6256C40.9732 40.8018 41.1892 40.9453 41.4619 41.0299C41.7333 41.1141 42.0544 41.1382 42.3594 41.0817C42.7154 41.0155 43.0033 40.851 43.1367 40.65C43.2207 40.5234 43.237 40.3966 43.1875 40.2692C43.1503 40.1734 43.1053 40.0989 43.0479 40.0387C42.9905 39.9786 42.9183 39.9315 42.8252 39.8912C42.6364 39.8097 42.3651 39.7607 41.958 39.7008C41.1498 39.5825 40.0072 39.4177 39.5615 38.2672C39.3744 37.7842 39.4359 37.27 39.7334 36.8219C40.0593 36.3305 40.6404 35.97 41.3359 35.8073V35.1227C41.336 34.7575 41.677 34.4733 42.084 34.4733Z" fill="white" stroke="white" stroke-width="0.09"/>
<mask id="path-4-inside-1_1148_2114" fill="white">
<rect x="15" y="20" width="21.9638" height="5.94316" rx="1"/>
</mask>
<rect x="15" y="20" width="21.9638" height="5.94316" rx="1" stroke="white" stroke-width="5.94316" mask="url(#path-4-inside-1_1148_2114)"/>
<path d="M35.7041 30.3359C33.9134 31.8459 32.6137 33.9171 32.0742 36.2793H21.168L21.0654 36.2744C20.5947 36.2265 20.2204 35.8517 20.1729 35.3809L20.168 35.2793V31.3359C20.168 30.8183 20.5613 30.3922 21.0654 30.3408L21.168 30.3359H35.7041Z" fill="white"/>
<path d="M31.9697 40.6719C32.3817 42.9849 33.5163 45.0462 35.1338 46.6152H18.583L18.4805 46.6104C18.0099 46.5623 17.6355 46.1875 17.5879 45.7168L17.583 45.6152V41.6719C17.583 41.1543 17.9765 40.7282 18.4805 40.6768L18.583 40.6719H31.9697Z" fill="white"/>
<defs>
<linearGradient id="paint0_linear_1148_2114" x1="22.2529" y1="59.9149" x2="52.7392" y2="46.242" gradientUnits="userSpaceOnUse">
<stop stop-color="#E14F5B"/>
<stop offset="1" stop-color="#C9252A"/>
</linearGradient>
</defs>
</svg>
