<svg width="100" height="100" viewBox="0 0 100 100" fill="none" xmlns="http://www.w3.org/2000/svg">
<circle cx="50" cy="50" r="50" fill="#00B676" fill-opacity="0.12"/>
<path d="M50.0002 16.1458C31.3465 16.1458 16.146 31.3464 16.146 50C16.146 68.6536 31.3465 83.8542 50.0002 83.8542C68.6538 83.8542 83.8543 68.6536 83.8543 50C83.8543 31.3464 68.6538 16.1458 50.0002 16.1458ZM66.1825 42.2135L46.9871 61.4089C46.5132 61.8828 45.87 62.1536 45.1929 62.1536C44.5158 62.1536 43.8726 61.8828 43.3986 61.4089L33.8179 51.8281C32.8361 50.8464 32.8361 49.2214 33.8179 48.2396C34.7996 47.2578 36.4246 47.2578 37.4064 48.2396L45.1929 56.026L62.5939 38.625C63.5757 37.6432 65.2007 37.6432 66.1825 38.625C67.1642 39.6068 67.1642 41.1979 66.1825 42.2135Z" fill="#00B676"/>
</svg>
