<svg width="64" height="64" viewBox="0 0 64 64" fill="none" xmlns="http://www.w3.org/2000/svg">
<rect width="64" height="64" rx="12" fill="url(#paint0_linear_2241_9340)"/>
<path d="M30.5234 13.4281C24.9617 13.9367 20.1957 16.6192 16.9391 21.057C16.3156 21.9102 16.2418 22.0414 16.4469 21.9676C16.6848 21.8774 17.6937 22.0824 18.1777 22.3203C18.9488 22.6895 19.2769 23.034 20.3187 24.5434C20.8602 25.3227 21.3277 25.9953 21.3605 26.0445C21.4016 26.102 21.459 26.0856 21.5246 25.9871C22.5254 24.4367 23.1652 23.6738 24.1578 22.8371C26.3152 21.0242 28.6859 20.0891 31.4832 19.966C34.1164 19.8512 36.5035 20.532 38.7758 22.0414C39.7355 22.6813 41.3187 24.2645 41.9586 25.2242C42.9922 26.7828 43.7469 28.7188 43.9355 30.2938L43.993 30.7695H43.2711C42.4426 30.7695 42.1227 30.9008 41.8437 31.3602C41.6387 31.6965 41.6305 32.2707 41.8273 32.6234C42.2211 33.3371 46.4621 39.3828 46.659 39.5141C46.9953 39.7356 47.75 39.7274 48.0535 39.4977C48.1766 39.4074 49.3414 37.7832 50.6457 35.8965C52.9508 32.5332 53 32.4594 53 32.0656C53 31.5242 52.8195 31.1633 52.434 30.95C52.1715 30.8024 51.9828 30.7695 51.3348 30.7695H50.5637L50.5062 30.0887C50.4242 29.1863 50.1043 27.5457 49.809 26.5859C48.9148 23.6492 47.3316 21.016 45.1332 18.8176C42.3277 16.0121 38.7348 14.191 34.7891 13.584C33.9605 13.4609 31.2781 13.3625 30.5234 13.4281Z" fill="white"/>
<path d="M16.127 24.3957C15.9957 24.4613 15.8234 24.5844 15.7414 24.6664C15.6676 24.7566 14.5684 26.3316 13.3051 28.1774C11.0492 31.4586 11 31.5406 11 31.9344C11 32.4758 11.1805 32.8367 11.566 33.05C11.8285 33.1977 12.0172 33.2305 12.6652 33.2305H13.4363L13.4938 33.9031C13.5758 34.8137 13.8957 36.4543 14.191 37.4141C15.0852 40.3508 16.6684 42.984 18.8668 45.1824C21.6887 48.0125 25.2488 49.8008 29.293 50.4242C30.6055 50.6293 33.3945 50.6293 34.707 50.4242C39.7602 49.6449 44.0586 47.0363 47.0609 42.943C47.6844 42.0899 47.7582 41.9586 47.5531 42.0324C47.3152 42.1227 46.3063 41.9176 45.8223 41.6797C45.0512 41.3106 44.723 40.966 43.6813 39.4566C43.1398 38.6774 42.6723 38.0047 42.6395 37.9555C42.5984 37.8981 42.541 37.9145 42.4754 38.0129C41.4746 39.5633 40.8348 40.3262 39.8422 41.1629C37.6848 42.9758 35.3141 43.9109 32.5168 44.034C29.8836 44.1488 27.4965 43.468 25.2242 41.9586C24.2645 41.327 22.6813 39.7356 22.0414 38.7922C21.016 37.2418 20.2531 35.2813 20.0645 33.6981L20.007 33.2305H20.7289C21.5574 33.2305 21.8773 33.0992 22.1563 32.6399C22.3613 32.3035 22.3695 31.7293 22.1727 31.3766C21.7789 30.6629 17.5379 24.6172 17.341 24.4941C17.0539 24.2973 16.4387 24.2563 16.127 24.3957Z" fill="white"/>
<path d="M31.4258 24.4367C30.9746 24.6582 30.7695 25.0438 30.7695 25.6426V26.1512L30.4578 26.2086C29.9164 26.2906 29.1617 26.7254 28.7598 27.1848C28.1445 27.882 28.0297 28.3004 28.0215 29.7031C28.0215 30.827 28.0379 30.9172 28.243 31.3602C28.5465 32.0082 28.8172 32.3445 29.3176 32.6891C29.941 33.1156 30.1707 33.1731 31.7293 33.2223C33.0582 33.2715 33.1566 33.2797 33.3289 33.4602C33.493 33.6242 33.5176 33.7309 33.5176 34.3051C33.5176 34.9285 33.5012 34.9777 33.2879 35.1664C33.0664 35.3551 33.0008 35.3633 32.0082 35.3633C30.7695 35.3633 30.5809 35.2813 30.4824 34.6824C30.3512 33.9195 29.9574 33.5586 29.2437 33.5586C28.7434 33.5586 28.3414 33.7883 28.1199 34.2148C27.8 34.8219 28.1117 36.077 28.7598 36.8152C29.1617 37.2746 29.9164 37.7094 30.4578 37.7914L30.7695 37.8488V38.3574C30.7695 38.7512 30.8105 38.9316 30.9582 39.1449C31.4504 39.8832 32.5496 39.8832 33.0418 39.1449C33.1894 38.9316 33.2305 38.7512 33.2305 38.3574V37.8488L33.5422 37.7914C34.0836 37.7094 34.8383 37.2746 35.2402 36.8152C35.8555 36.118 35.9703 35.6996 35.9785 34.2969C35.9785 33.1731 35.9621 33.0828 35.757 32.6399C35.4535 31.9918 35.1828 31.6555 34.6824 31.3109C34.059 30.8844 33.8293 30.827 32.2707 30.7777C30.9418 30.7285 30.8434 30.7203 30.6711 30.5399C30.507 30.3758 30.4824 30.2691 30.4824 29.6949C30.4824 29.0715 30.4988 29.0223 30.7121 28.8336C30.9336 28.6449 30.9992 28.6367 31.9918 28.6367C33.2305 28.6367 33.4191 28.7188 33.5176 29.3176C33.6488 30.0805 34.0426 30.4414 34.7562 30.4414C35.2566 30.4414 35.6586 30.2117 35.8801 29.7852C36.2 29.1781 35.8883 27.9231 35.2402 27.1848C34.8383 26.7254 34.0836 26.2906 33.5422 26.2086L33.2305 26.1512V25.6426C33.2305 25.2488 33.1894 25.0684 33.0418 24.8551C32.8203 24.5188 32.3937 24.2891 32 24.2891C31.8441 24.2891 31.5816 24.3547 31.4258 24.4367Z" fill="white"/>
<defs>
<linearGradient id="paint0_linear_2241_9340" x1="22.2529" y1="59.9149" x2="52.7392" y2="46.242" gradientUnits="userSpaceOnUse">
<stop stop-color="#B956DA"/>
<stop offset="1" stop-color="#9B24AB"/>
</linearGradient>
</defs>
</svg>
