<svg width="18" height="18" viewBox="0 0 18 18" fill="none" xmlns="http://www.w3.org/2000/svg">
<path fill-rule="evenodd" clip-rule="evenodd" d="M6.96542 16.8802C3.90542 16.8802 1.29125 16.4177 1.29125 14.5643C1.29125 12.711 3.88875 11.041 6.96542 11.041C10.0254 11.041 12.6388 12.6952 12.6388 14.5477C12.6388 16.4002 10.0421 16.8802 6.96542 16.8802Z" stroke="#A5A7AA" stroke-width="1.5" stroke-linecap="round" stroke-linejoin="round"/>
<path fill-rule="evenodd" clip-rule="evenodd" d="M6.96542 8.39792C8.97375 8.39792 10.6021 6.76959 10.6021 4.76125C10.6021 2.75292 8.97375 1.12459 6.96542 1.12459C4.95708 1.12459 3.32875 2.75292 3.32875 4.76125C3.32125 6.76292 4.93875 8.39125 6.93958 8.39792H6.96542Z" stroke="#A5A7AA" stroke-width="1.5" stroke-linecap="round" stroke-linejoin="round"/>
<path d="M13.001 7.39899C14.1702 7.08649 15.0318 6.02066 15.0318 4.75233C15.0327 3.42899 14.0935 2.32399 12.8452 2.06816" stroke="#A5A7AA" stroke-width="1.5" stroke-linecap="round" stroke-linejoin="round"/>
<path d="M13.5507 10.3779C15.2073 10.3779 16.6223 11.5012 16.6223 12.5037C16.6223 13.0946 16.1348 13.7012 15.3932 13.8754" stroke="#A5A7AA" stroke-width="1.5" stroke-linecap="round" stroke-linejoin="round"/>
</svg>
