<svg width="20" height="22" viewBox="0 0 20 22" fill="none" xmlns="http://www.w3.org/2000/svg">
<path fill-rule="evenodd" clip-rule="evenodd" d="M7.55802 20.4562C3.88602 20.4562 0.749023 19.9012 0.749023 17.6772C0.749023 15.4532 3.86602 13.4492 7.55802 13.4492C11.23 13.4492 14.366 15.4342 14.366 17.6572C14.366 19.8802 11.25 20.4562 7.55802 20.4562Z" stroke="white" stroke-width="1.5" stroke-linecap="round" stroke-linejoin="round"/>
<path fill-rule="evenodd" clip-rule="evenodd" d="M7.55837 10.2775C9.96837 10.2775 11.9224 8.3235 11.9224 5.9135C11.9224 3.5035 9.96837 1.5495 7.55837 1.5495C5.14837 1.5495 3.19437 3.5035 3.19437 5.9135C3.18537 8.3155 5.12637 10.2695 7.52737 10.2775H7.55837Z" stroke="white" stroke-width="1.5" stroke-linecap="round" stroke-linejoin="round"/>
<path d="M14.8003 9.07882C16.2033 8.70382 17.2373 7.42482 17.2373 5.90282C17.2383 4.31482 16.1113 2.98882 14.6133 2.68182" stroke="white" stroke-width="1.5" stroke-linecap="round" stroke-linejoin="round"/>
<path d="M15.46 12.6535C17.448 12.6535 19.146 14.0015 19.146 15.2045C19.146 15.9135 18.561 16.6415 17.671 16.8505" stroke="white" stroke-width="1.5" stroke-linecap="round" stroke-linejoin="round"/>
</svg>
