<svg width="64" height="64" viewBox="0 0 64 64" fill="none" xmlns="http://www.w3.org/2000/svg">
<rect width="64" height="64" rx="12" fill="url(#paint0_linear_2241_9440)"/>
<path d="M31.1633 14.2074C28.768 14.4617 26.5285 16.0121 25.4621 18.1777C24.9043 19.2852 24.6992 20.2121 24.6992 21.541C24.7074 24.8305 26.9223 27.6852 30.1543 28.5629C30.6875 28.7105 31.032 28.7434 32 28.7434C32.968 28.7434 33.3125 28.7105 33.8457 28.5629C37.0777 27.6852 39.2926 24.8305 39.3008 21.541C39.3008 20.5813 39.1941 19.8758 38.9562 19.1703C38.0047 16.3977 35.6422 14.5109 32.7301 14.1992C32.3035 14.1582 31.9262 14.1254 31.877 14.1336C31.8359 14.1336 31.5078 14.1664 31.1633 14.2074Z" fill="white"/>
<path d="M18.3336 20.9996C17.1852 21.1883 16.209 21.6887 15.3395 22.5582C14.3141 23.5836 13.8137 24.7156 13.7317 26.1758C13.5594 29.293 16.0613 31.918 19.2031 31.918C20.5485 31.918 21.8774 31.4012 22.8617 30.4988C24.9125 28.6203 25.2735 25.6918 23.7395 23.3703C23.0504 22.3285 21.8199 21.4508 20.6059 21.1309C19.9824 20.975 18.9078 20.9094 18.3336 20.9996Z" fill="white"/>
<path d="M44.0996 20.975C41.5731 21.3851 39.6946 23.2719 39.3664 25.7328C39.1942 26.9961 39.4977 28.325 40.1949 29.3996C41.7289 31.7457 44.7313 32.5824 47.2168 31.3519C48.3735 30.7777 49.161 29.982 49.727 28.8336C50.1617 27.9312 50.3176 27.1684 50.2684 26.1758C50.1864 24.7156 49.686 23.5836 48.6606 22.5582C47.6352 21.541 46.5278 21.0406 45.1004 20.975C44.6821 20.9586 44.2391 20.9586 44.0996 20.975Z" fill="white"/>
<path d="M27.5047 30.2773C26.0937 30.4742 25.0355 30.9992 23.9937 32.041C23.3785 32.648 23.1816 32.9105 22.8781 33.534C22.1726 34.9285 22.1972 34.6578 22.1972 42.2539C22.1972 48.8328 22.1972 48.9477 22.3613 49.2266C22.4597 49.3824 22.6566 49.5793 22.8125 49.6777C23.0996 49.8418 23.198 49.8418 32 49.8418C40.8019 49.8418 40.9004 49.8418 41.1875 49.6777C41.3433 49.5793 41.5402 49.3824 41.6387 49.2266C41.8027 48.9477 41.8027 48.8328 41.8027 42.2539C41.8027 34.6578 41.8273 34.9285 41.1219 33.534C40.6133 32.5168 39.5879 31.4668 38.5871 30.95C37.2336 30.2527 37.2172 30.2445 32.3281 30.2281C29.9574 30.2199 27.7918 30.2445 27.5047 30.2773Z" fill="white"/>
<path d="M15.9301 33.4848C14.0434 33.8539 12.4848 35.0434 11.6152 36.7742C11 38.0047 10.9918 38.1031 11.0164 42.9184L11.041 47.143L11.3445 47.7582C11.7301 48.5457 12.2715 49.0871 13.0262 49.448C13.8301 49.8336 14.2648 49.8746 17.3902 49.8828H20.0398L19.9742 49.5711C19.9332 49.407 19.9004 46.052 19.9004 42.1309V34.9941L20.0891 34.3215C20.1875 33.9523 20.2941 33.5914 20.3187 33.5258C20.368 33.4109 20.1547 33.3945 18.3336 33.4027C17.2098 33.4109 16.1269 33.4438 15.9301 33.4848Z" fill="white"/>
<path d="M43.6812 33.5176C43.7058 33.5914 43.8125 33.9523 43.9109 34.3215L44.0996 34.9941V42.1309C44.0996 46.052 44.0668 49.407 44.0258 49.5793L43.9601 49.8828H46.6097C49.7351 49.8746 50.1699 49.8336 50.9738 49.448C51.7285 49.0871 52.2699 48.5457 52.6554 47.7582L52.959 47.143L52.9836 42.9184C53.0082 38.1031 53 38.0047 52.3847 36.7742C51.6136 35.2402 50.3832 34.1902 48.6933 33.6324C48.1601 33.4602 47.9468 33.4438 45.8715 33.4109C43.8043 33.3863 43.632 33.3945 43.6812 33.5176Z" fill="white"/>
<defs>
<linearGradient id="paint0_linear_2241_9440" x1="22.2529" y1="59.9149" x2="54.355" y2="48.6929" gradientUnits="userSpaceOnUse">
<stop stop-color="#00BF76"/>
<stop offset="1" stop-color="#5EE8AA"/>
</linearGradient>
</defs>
</svg>
