<svg width="72" height="72" viewBox="0 0 72 72" fill="none" xmlns="http://www.w3.org/2000/svg">
<rect width="72" height="72" rx="12" fill="url(#paint0_linear_2205_6785)"/>
<path d="M34.2031 16.7285C30.9957 17.4473 28.543 19.7563 27.6266 22.9367C27.4469 23.5567 27.4199 23.8442 27.4199 25.2188C27.4199 26.5934 27.4469 26.8809 27.6266 27.5008C28.3453 29.9895 30.0793 32.0379 32.3523 33.0891C33.5113 33.6192 34.1941 33.7719 35.6855 33.8168C36.8176 33.8528 37.168 33.8348 37.8598 33.682C41.0133 32.9813 43.457 30.6633 44.3734 27.5008C44.5531 26.8809 44.5801 26.5934 44.5801 25.2188C44.5801 23.8442 44.5531 23.5567 44.3734 22.9367C43.5109 19.9449 41.3008 17.7258 38.327 16.8543C37.4555 16.6028 35.1016 16.5309 34.2031 16.7285Z" fill="white"/>
<path d="M29.3516 37.4914C25.7309 38.0395 22.7211 39.9172 20.7625 42.8461C19.9809 44.0141 19.3879 45.3797 19.0106 46.907C18.741 47.9582 18.6691 50.2852 18.8848 51.0848C19.316 52.7469 20.3762 54.0586 21.9125 54.8313C23.0984 55.4242 22.6223 55.4063 33.4844 55.3973H43.3223L43.0078 55.1547C41.4356 53.9328 40.2586 52.1629 39.7645 50.2852C39.468 49.1801 39.468 47.2395 39.7645 46.1523C40.7258 42.5766 43.7625 39.9531 47.3383 39.6207C47.8055 39.5848 47.9313 39.5398 47.8594 39.459C47.6707 39.2344 45.6223 38.2551 44.7867 37.9855C43.0977 37.4465 42.882 37.4375 35.9102 37.4465C32.4242 37.4555 29.4773 37.4734 29.3516 37.4914Z" fill="white"/>
<path d="M46.7992 41.0402C46.0356 41.175 44.8047 41.6781 44.1219 42.1363C43.3492 42.6484 42.334 43.6906 41.9117 44.4184C39.3602 48.7668 41.6332 54.1664 46.4938 55.3254C47.5359 55.577 49.2879 55.532 50.2402 55.2266C52.5852 54.4899 54.2742 52.8367 55.0738 50.5098C55.3164 49.8 55.3524 49.5484 55.3883 48.4793C55.4242 47.4551 55.3973 47.1406 55.2356 46.5027C54.8582 44.9844 53.9328 43.502 52.7738 42.5586C52.1449 42.0375 50.8692 41.3817 50.0606 41.166C49.4227 40.9863 47.482 40.9145 46.7992 41.0402ZM48.5781 44.0859C48.8567 44.2387 48.9375 44.6879 48.9375 46.1164V47.5H50.3301C51.9024 47.5 52.3067 47.5988 52.4055 47.9852C52.4324 48.1109 52.4324 48.3266 52.4055 48.4524C52.3067 48.8387 51.9024 48.9375 50.3301 48.9375H48.9375V50.3301C48.9375 51.9024 48.8387 52.3067 48.4524 52.4055C48.3266 52.4324 48.1109 52.4324 47.9852 52.4055C47.5988 52.3067 47.5 51.9024 47.5 50.3301V48.9375H46.1074C44.5352 48.9375 44.1309 48.8387 44.032 48.4524C44.0051 48.3266 44.0051 48.1109 44.032 47.9852C44.1309 47.5988 44.5352 47.5 46.1074 47.5H47.5V46.1164C47.5 44.7149 47.5629 44.3106 47.8324 44.1039C48.0121 43.9781 48.3445 43.9602 48.5781 44.0859Z" fill="white"/>
<defs>
<linearGradient id="paint0_linear_2205_6785" x1="36" y1="0" x2="36" y2="72" gradientUnits="userSpaceOnUse">
<stop stop-color="#16263B"/>
<stop offset="1" stop-color="#182842"/>
</linearGradient>
</defs>
</svg>
