
<svg width="16" height="17" viewBox="0 0 16 17" fill="none" xmlns="http://www.w3.org/2000/svg">
<path d="M3 4.25001C3 4.02899 3.0878 3.81703 3.24408 3.66075C3.40036 3.50447 3.61232 3.41667 3.83333 3.41667C4.05435 3.41667 4.26631 3.50447 4.42259 3.66075C4.57887 3.81703 4.66667 4.02899 4.66667 4.25001C4.66667 4.47102 4.57887 4.68298 4.42259 4.83926C4.26631 4.99554 4.05435 5.08334 3.83333 5.08334C3.61232 5.08334 3.40036 4.99554 3.24408 4.83926C3.0878 4.68298 3 4.47102 3 4.25001ZM5.5 4.25001C5.5 4.02899 5.5878 3.81703 5.74408 3.66075C5.90036 3.50447 6.11232 3.41667 6.33333 3.41667C6.55435 3.41667 6.76631 3.50447 6.92259 3.66075C7.07887 3.81703 7.16667 4.02899 7.16667 4.25001C7.16667 4.47102 7.07887 4.68298 6.92259 4.83926C6.76631 4.99554 6.55435 5.08334 6.33333 5.08334C6.11232 5.08334 5.90036 4.99554 5.74408 4.83926C5.5878 4.68298 5.5 4.47102 5.5 4.25001ZM3.83333 9.25C3.61232 9.25 3.40036 9.3378 3.24408 9.49408C3.0878 9.65036 3 9.86232 3 10.0833C3 10.3044 3.0878 10.5163 3.24408 10.6726C3.40036 10.8289 3.61232 10.9167 3.83333 10.9167C4.05435 10.9167 4.26631 10.8289 4.42259 10.6726C4.57887 10.5163 4.66667 10.3044 4.66667 10.0833C4.66667 9.86232 4.57887 9.65036 4.42259 9.49408C4.26631 9.3378 4.05435 9.25 3.83333 9.25ZM6.33333 9.25C6.11232 9.25 5.90036 9.3378 5.74408 9.49408C5.5878 9.65036 5.5 9.86232 5.5 10.0833C5.5 10.3044 5.5878 10.5163 5.74408 10.6726C5.90036 10.8289 6.11232 10.9167 6.33333 10.9167C6.55435 10.9167 6.76631 10.8289 6.92259 10.6726C7.07887 10.5163 7.16667 10.3044 7.16667 10.0833C7.16667 9.86232 7.07887 9.65036 6.92259 9.49408C6.76631 9.3378 6.55435 9.25 6.33333 9.25Z" fill="#4F8FE1"/>
<path fill-rule="evenodd" clip-rule="evenodd" d="M2.95583 0.708328C2.34805 0.708328 1.76515 0.949771 1.33538 1.37954C0.90561 1.80931 0.664168 2.39221 0.664168 2.99999V5.5C0.664168 6.15666 0.940834 6.74916 1.38333 7.16666C1.15588 7.38054 0.97471 7.63879 0.851014 7.92546C0.727317 8.21213 0.663725 8.52111 0.664168 8.83333V11.3333C0.664168 11.9411 0.90561 12.524 1.33538 12.9538C1.76515 13.3836 2.34805 13.625 2.95583 13.625H7.375V14.875H2.16667C2.00091 14.875 1.84194 14.9408 1.72473 15.0581C1.60752 15.1753 1.54167 15.3342 1.54167 15.5C1.54167 15.6658 1.60752 15.8247 1.72473 15.9419C1.84194 16.0591 2.00091 16.125 2.16667 16.125H13.8333C13.9991 16.125 14.1581 16.0591 14.2753 15.9419C14.3925 15.8247 14.4583 15.6658 14.4583 15.5C14.4583 15.3342 14.3925 15.1753 14.2753 15.0581C14.1581 14.9408 13.9991 14.875 13.8333 14.875H8.625V13.625H12.9558C13.2568 13.625 13.5548 13.5657 13.8328 13.4506C14.1109 13.3354 14.3635 13.1666 14.5763 12.9538C14.7891 12.741 14.9579 12.4883 15.0731 12.2103C15.1882 11.9323 15.2475 11.6343 15.2475 11.3333V8.83333C15.2475 8.17666 14.9717 7.58416 14.5292 7.16666C14.7565 6.95271 14.9375 6.69443 15.061 6.40776C15.1846 6.1211 15.2481 5.81215 15.2475 5.5V2.99999C15.2475 2.69905 15.1882 2.40105 15.0731 2.12301C14.9579 1.84497 14.7891 1.59234 14.5763 1.37954C14.3635 1.16674 14.1109 0.997938 13.8328 0.882771C13.5548 0.767604 13.2568 0.708328 12.9558 0.708328H2.95583ZM2.95583 6.54166H12.9558C13.5308 6.54166 13.9975 6.075 13.9975 5.5V2.99999C13.9975 2.42499 13.5308 1.95833 12.9558 1.95833H2.95583C2.38083 1.95833 1.91417 2.42499 1.91417 2.99999V5.5C1.91417 6.075 2.38083 6.54166 2.95583 6.54166ZM2.95583 7.79166C2.38083 7.79166 1.91417 8.25833 1.91417 8.83333V11.3333C1.91417 11.9083 2.38083 12.375 2.95583 12.375H12.9558C13.5308 12.375 13.9975 11.9083 13.9975 11.3333V8.83333C13.9975 8.25833 13.5308 7.79166 12.9558 7.79166H2.95583Z" fill="#4F8FE1"/>
</svg>
