<svg width="64" height="64" viewBox="0 0 64 64" fill="none" xmlns="http://www.w3.org/2000/svg">
<rect width="64" height="64" rx="12" fill="url(#paint0_linear_1046_2521)"/>
<path d="M20.6 48C18.51 48 16.7208 47.2411 15.2325 45.7234C13.7442 44.2057 13 42.3812 13 40.25V24.75C13 22.6187 13.7442 20.7943 15.2325 19.2766C16.7208 17.7589 18.51 17 20.6 17H43.4C45.49 17 47.2792 17.7589 48.7675 19.2766C50.2558 20.7943 51 22.6187 51 24.75V40.25C51 42.3812 50.2558 44.2057 48.7675 45.7234C47.2792 47.2411 45.49 48 43.4 48H20.6ZM20.6 24.75H43.4C44.0967 24.75 44.7617 24.8307 45.395 24.9922C46.0283 25.1536 46.63 25.412 47.2 25.7672V24.75C47.2 23.6844 46.8279 22.7721 46.0837 22.0133C45.3396 21.2544 44.445 20.875 43.4 20.875H20.6C19.555 20.875 18.6604 21.2544 17.9162 22.0133C17.1721 22.7721 16.8 23.6844 16.8 24.75V25.7672C17.37 25.412 17.9717 25.1536 18.605 24.9922C19.2383 24.8307 19.9033 24.75 20.6 24.75ZM17.085 31.0469L38.2225 36.2781C38.5075 36.3427 38.7925 36.3427 39.0775 36.2781C39.3625 36.2135 39.6317 36.0844 39.885 35.8906L46.4875 30.2719C46.1392 29.7875 45.6958 29.3919 45.1575 29.0852C44.6192 28.7784 44.0333 28.625 43.4 28.625H20.6C19.7767 28.625 19.0562 28.843 18.4387 29.2789C17.8212 29.7148 17.37 30.3042 17.085 31.0469Z" fill="#E3E3E3"/>
<defs>
<linearGradient id="paint0_linear_1046_2521" x1="22.2529" y1="59.9149" x2="52.7392" y2="46.242" gradientUnits="userSpaceOnUse">
<stop stop-color="#5B9E37"/>
<stop offset="1" stop-color="#40AF21"/>
</linearGradient>
</defs>
</svg>
