<svg width="62" height="70" viewBox="0 0 62 70" fill="none" xmlns="http://www.w3.org/2000/svg">
<path d="M9.6709 12.1559L27.2414 2.88211L52.935 16.1627L29.0129 28.5712L9.6709 12.1559Z" fill="#292660"/>
<mask id="mask0_245_7498" style="mask-type:luminance" maskUnits="userSpaceOnUse" x="0" y="17" width="31" height="52">
<path d="M0.711426 49.7274C0.711391 50.2834 0.85476 50.8295 1.12702 51.3105C1.39928 51.7915 1.79076 52.1902 2.26184 52.4664L29.4296 68.3974L30.5505 31.3569L0.711426 17.6728V49.7274Z" fill="white"/>
</mask>
<g mask="url(#mask0_245_7498)">
<path d="M22.7829 4.26189L-21.0166 30.8684L8.47424 81.8087L52.2738 55.2022L22.7829 4.26189Z" fill="url(#paint0_linear_245_7498)"/>
</g>
<path d="M33.6259 34.2469L31.9102 67.1112L29.4296 68.413L29.3483 57.0746L29.2669 45.7545L29.2288 39.933C29.2178 38.3296 28.8054 36.756 28.0311 35.3625C27.2568 33.969 26.1465 32.8023 24.8063 31.974L2.34571 18.6413L0.711426 17.6728L3.10566 16.1627L33.6259 34.2469Z" fill="#292660"/>
<mask id="mask1_245_7498" style="mask-type:luminance" maskUnits="userSpaceOnUse" x="0" y="0" width="62" height="35">
<path d="M29.9229 23.8015L26.0138 21.4922C25.939 21.4471 25.8773 21.3825 25.835 21.3049C25.7927 21.2273 25.7713 21.1396 25.7732 21.0507C25.775 20.9619 25.7999 20.8751 25.8453 20.7994C25.8907 20.7237 25.9551 20.6618 26.0316 20.62L38.4197 13.9055C39.2865 13.442 40.2536 13.2105 41.2311 13.2323C42.2087 13.2542 43.165 13.5287 44.0113 14.0304C44.2494 14.17 44.4463 14.3728 44.5813 14.6174C44.7163 14.862 44.7844 15.1394 44.7784 15.4203C44.7724 15.7012 44.6926 15.9753 44.5473 16.2136C44.402 16.452 44.1966 16.6458 43.9528 16.7746L30.9472 23.8197C30.7911 23.906 30.6161 23.9499 30.4389 23.9473C30.2532 23.9471 30.0709 23.8968 29.9102 23.8015M18.0686 16.7954L14.1621 14.4861C14.0864 14.4422 14.0237 14.3782 13.9806 14.3009C13.9374 14.2235 13.9155 14.1357 13.917 14.0466C13.9186 13.9576 13.9436 13.8706 13.9894 13.7949C14.0352 13.7192 14.1002 13.6575 14.1774 13.6165L26.6315 6.87072C27.4818 6.41809 28.4298 6.19205 29.3879 6.21344C30.346 6.23482 31.2835 6.50294 32.1138 6.99309C32.3564 7.13634 32.5569 7.34381 32.6942 7.59374C32.8316 7.84367 32.9008 8.12686 32.8946 8.41361C32.8883 8.70036 32.8069 8.9801 32.6588 9.22352C32.5107 9.46693 32.3014 9.66505 32.0528 9.79709L19.0904 16.8136C18.939 16.8977 18.7695 16.9416 18.5973 16.9412C18.4116 16.941 18.2293 16.8907 18.0686 16.7954ZM23.9449 1.53348L21.6041 2.78318L7.30217 10.4324L0.36854 14.1398L0 14.3377L6.09997 17.9253L11.2926 20.9741L17.9898 24.9106L23.1799 27.9619L26.6493 30.0005C28.5428 31.1185 30.0286 32.8389 30.8811 34.9003L33.3236 33.6142L40.303 29.9406L42.4304 28.8211L54.7142 22.3513L61.1039 18.9797C60.7634 18.0611 60.2942 17.1981 59.7111 16.4179C59.3732 15.9611 58.9964 15.5359 58.5851 15.1473C58.0381 14.623 57.4344 14.1644 56.7856 13.7805L53.4815 11.8174L48.3219 8.75047L41.6577 4.7931L36.6532 1.82247L36.4956 1.73135C34.5238 0.60001 32.3024 0.00401044 30.0424 2.59926e-07C27.918 -0.000426924 25.8252 0.525704 23.9424 1.53348" fill="white"/>
</mask>
<g mask="url(#mask1_245_7498)">
<path d="M48.119 -25.602L-13.9365 7.418L12.9865 60.5089L75.0421 27.4889L48.119 -25.602Z" fill="url(#paint1_linear_245_7498)"/>
</g>
<path d="M26.418 30.1359C27.9353 31.0295 29.1961 32.3167 30.0737 33.8678C30.9513 35.419 31.4148 37.1794 31.4175 38.9723V68.9545H31.9105V38.9723C31.908 37.0904 31.4219 35.2424 30.501 33.614C29.5802 31.9856 28.257 30.6343 26.6646 29.6959L0.12207 14.1137" fill="white"/>
<mask id="mask2_245_7498" style="mask-type:luminance" maskUnits="userSpaceOnUse" x="30" y="18" width="32" height="52">
<path d="M42.4306 28.8159L30.8813 34.9004C31.3972 36.1564 31.6625 37.5055 31.6616 38.8681V67.9834C31.6618 68.3286 31.7485 68.668 31.9133 68.9691C32.0781 69.2701 32.3155 69.5229 32.6029 69.7031C32.8903 69.8833 33.218 69.985 33.5547 69.9985C33.8914 70.0119 34.2259 69.9367 34.5261 69.7799L42.4306 65.6481L57.4264 57.8141C58.7516 56.9742 59.8455 55.8016 60.6043 54.4074C61.3632 53.0132 61.7618 51.4435 61.7625 49.8472V44.0648L42.4332 54.2498V39.7013L61.7625 29.5215V22.6195C61.7638 21.489 61.5808 20.3662 61.2211 19.2974C61.1855 19.1907 61.1499 19.0865 61.1067 18.9798L42.4306 28.8159Z" fill="white"/>
</mask>
<g mask="url(#mask2_245_7498)">
<path d="M55.1973 6.04585L10.3174 29.9267L37.4396 83.4103L82.3195 59.5295L55.1973 6.04585Z" fill="url(#paint2_linear_245_7498)"/>
</g>
<mask id="mask3_245_7498" style="mask-type:luminance" maskUnits="userSpaceOnUse" x="42" y="37" width="20" height="18">
<path d="M42.4307 39.7012V54.2498L61.7599 44.0648L47.087 37.2487L42.4307 39.7012Z" fill="white"/>
</mask>
<g mask="url(#mask3_245_7498)">
<path d="M61.3222 34.2948L39.958 37.6357L42.8743 57.2036L64.2385 53.8627L61.3222 34.2948Z" fill="url(#paint3_linear_245_7498)"/>
</g>
<mask id="mask4_245_7498" style="mask-type:luminance" maskUnits="userSpaceOnUse" x="7" y="23" width="16" height="40">
<path d="M7.07617 30.4327L11.7274 33.1586V49.0844L7.07617 46.3221V53.4323L22.9259 62.8284V55.6896L18.0409 52.8022V36.8478L22.9259 39.6987V32.5598L7.07617 23.3224V30.4327Z" fill="white"/>
</mask>
<g mask="url(#mask4_245_7498)">
<path d="M22.4387 20.5153L0.410156 24.5428L7.57042 65.6358L29.599 61.6083L22.4387 20.5153Z" fill="url(#paint4_linear_245_7498)"/>
</g>
<mask id="mask5_245_7498" style="mask-type:luminance" maskUnits="userSpaceOnUse" x="18" y="34" width="5" height="6">
<path d="M18.041 36.8478L22.9261 39.6986L22.9312 34.2495L18.041 36.8478Z" fill="white"/>
</mask>
<g mask="url(#mask5_245_7498)">
<path d="M22.6657 33.1221L16.8389 34.5474L18.304 40.8326L24.1309 39.4074L22.6657 33.1221Z" fill="url(#paint5_linear_245_7498)"/>
</g>
<path d="M7.07861 30.4327V23.325L13.4531 27.0429L7.07861 30.4327Z" fill="#292660"/>
<mask id="mask6_245_7498" style="mask-type:luminance" maskUnits="userSpaceOnUse" x="7" y="27" width="12" height="7">
<path d="M7.07617 30.4327L11.7274 33.1586L18.1476 29.7558L13.4506 27.0403L7.07617 30.4327Z" fill="white"/>
</mask>
<g mask="url(#mask6_245_7498)">
<path d="M16.9678 23.5442L5.23486 27.6966L8.25938 36.6637L19.9923 32.5113L16.9678 23.5442Z" fill="url(#paint6_linear_245_7498)"/>
</g>
<mask id="mask7_245_7498" style="mask-type:luminance" maskUnits="userSpaceOnUse" x="11" y="29" width="12" height="21">
<path d="M11.7271 33.1586V49.0844L18.0532 45.7493L18.0405 36.8478L22.9307 34.2495L22.9256 32.5598L18.1473 29.7558L11.7271 33.1586Z" fill="white"/>
</mask>
<g mask="url(#mask7_245_7498)">
<path d="M21.5534 25.9843L5.53076 32.1338L13.109 52.8521L29.1317 46.7026L21.5534 25.9843Z" fill="url(#paint7_linear_245_7498)"/>
</g>
<path d="M7.07861 46.3246V53.4323L18.0459 47.629L18.0535 45.7493L11.7273 49.0844L7.07861 46.3246Z" fill="#292660"/>
<mask id="mask8_245_7498" style="mask-type:luminance" maskUnits="userSpaceOnUse" x="7" y="47" width="16" height="16">
<path d="M7.07617 53.4323L22.9259 62.8285V55.6896L18.0409 52.8022L18.0434 47.629L7.07617 53.4323Z" fill="white"/>
</mask>
<g mask="url(#mask8_245_7498)">
<path d="M19.7386 41.1195L1.12939 50.686L10.2668 69.3364L28.876 59.7699L19.7386 41.1195Z" fill="url(#paint8_linear_245_7498)"/>
</g>
<defs>
<linearGradient id="paint0_linear_245_7498" x1="15.6964" y1="44.2597" x2="39.1328" y2="82.8407" gradientUnits="userSpaceOnUse">
<stop stop-color="#3872B7"/>
<stop offset="0.22" stop-color="#3460A3"/>
<stop offset="1" stop-color="#272560"/>
</linearGradient>
<linearGradient id="paint1_linear_245_7498" x1="19.6589" y1="-1.24369" x2="45.3543" y2="47.0464" gradientUnits="userSpaceOnUse">
<stop stop-color="#F1F1F1"/>
<stop offset="0.35" stop-color="#BBBCBF"/>
<stop offset="0.6" stop-color="#F1F1F1"/>
<stop offset="0.82" stop-color="#BBBCBF"/>
<stop offset="1" stop-color="#BBBCBF"/>
</linearGradient>
<linearGradient id="paint2_linear_245_7498" x1="22.6928" y1="-0.309541" x2="48.4004" y2="48.0034" gradientUnits="userSpaceOnUse">
<stop stop-color="#F1F1F1"/>
<stop offset="0.35" stop-color="#BBBCBF"/>
<stop offset="0.6" stop-color="#F1F1F1"/>
<stop offset="0.82" stop-color="#BBBCBF"/>
<stop offset="1" stop-color="#BBBCBF"/>
</linearGradient>
<linearGradient id="paint3_linear_245_7498" x1="69.3594" y1="40.8015" x2="48.8225" y2="43.8622" gradientUnits="userSpaceOnUse">
<stop stop-color="#A5A7AA"/>
<stop offset="0.06" stop-color="#A5A7AA"/>
<stop offset="0.25" stop-color="#A0A2A5"/>
<stop offset="0.48" stop-color="#929496"/>
<stop offset="0.73" stop-color="#7B7C7E"/>
<stop offset="1" stop-color="#5A5A5C"/>
</linearGradient>
<linearGradient id="paint4_linear_245_7498" x1="-6.40133" y1="49.1855" x2="17.4834" y2="45.0237" gradientUnits="userSpaceOnUse">
<stop stop-color="#4365AD"/>
<stop offset="0.12" stop-color="#405DA4"/>
<stop offset="1" stop-color="#272560"/>
</linearGradient>
<linearGradient id="paint5_linear_245_7498" x1="20.1351" y1="36.1788" x2="28.6782" y2="34.1873" gradientUnits="userSpaceOnUse">
<stop stop-color="#4365AD"/>
<stop offset="0.12" stop-color="#405DA4"/>
<stop offset="1" stop-color="#272560"/>
</linearGradient>
<linearGradient id="paint6_linear_245_7498" x1="6.03841" y1="31.7194" x2="18.2457" y2="27.602" gradientUnits="userSpaceOnUse">
<stop stop-color="#4365AD"/>
<stop offset="0.12" stop-color="#405DA4"/>
<stop offset="1" stop-color="#272560"/>
</linearGradient>
<linearGradient id="paint7_linear_245_7498" x1="3.09725" y1="42.5411" x2="23.7568" y2="34.9843" gradientUnits="userSpaceOnUse">
<stop stop-color="#4365AD"/>
<stop offset="0.12" stop-color="#405DA4"/>
<stop offset="1" stop-color="#272560"/>
</linearGradient>
<linearGradient id="paint8_linear_245_7498" x1="1.263" y1="63.8751" x2="17.6028" y2="55.8698" gradientUnits="userSpaceOnUse">
<stop stop-color="#4365AD"/>
<stop offset="0.12" stop-color="#405DA4"/>
<stop offset="1" stop-color="#272560"/>
</linearGradient>
</defs>
</svg>
