<svg width="180" height="70" viewBox="0 0 180 70" fill="none" xmlns="http://www.w3.org/2000/svg">
<path d="M9.6709 12.1559L27.2414 2.88211L52.935 16.1627L29.0129 28.5712L9.6709 12.1559Z" fill="#292660"/>
<mask id="mask0_2903_6515" style="mask-type:luminance" maskUnits="userSpaceOnUse" x="0" y="17" width="31" height="52">
<path d="M0.711426 49.7275C0.711391 50.2834 0.85476 50.8295 1.12702 51.3105C1.39928 51.7915 1.79076 52.1902 2.26184 52.4664L29.4296 68.3974L30.5505 31.3569L0.711426 17.6728V49.7275Z" fill="white"/>
</mask>
<g mask="url(#mask0_2903_6515)">
<path d="M22.7829 4.26188L-21.0166 30.8684L8.47424 81.8087L52.2738 55.2022L22.7829 4.26188Z" fill="url(#paint0_linear_2903_6515)"/>
</g>
<path d="M33.6259 34.2469L31.9102 67.1112L29.4296 68.413L29.3483 57.0746L29.2669 45.7545L29.2288 39.933C29.2178 38.3296 28.8054 36.756 28.0311 35.3625C27.2568 33.969 26.1465 32.8023 24.8063 31.974L2.34571 18.6413L0.711426 17.6728L3.10566 16.1627L33.6259 34.2469Z" fill="#292660"/>
<mask id="mask1_2903_6515" style="mask-type:luminance" maskUnits="userSpaceOnUse" x="0" y="0" width="62" height="35">
<path d="M29.9229 23.8015L26.0138 21.4922C25.939 21.4471 25.8773 21.3825 25.835 21.3049C25.7927 21.2273 25.7713 21.1396 25.7732 21.0507C25.775 20.9619 25.7999 20.8751 25.8453 20.7994C25.8907 20.7237 25.9551 20.6618 26.0316 20.62L38.4197 13.9055C39.2865 13.442 40.2536 13.2105 41.2311 13.2323C42.2087 13.2542 43.165 13.5287 44.0113 14.0304C44.2494 14.17 44.4463 14.3728 44.5813 14.6174C44.7163 14.862 44.7844 15.1394 44.7784 15.4203C44.7724 15.7012 44.6926 15.9753 44.5473 16.2136C44.402 16.452 44.1966 16.6458 43.9528 16.7746L30.9472 23.8197C30.7911 23.906 30.6161 23.9499 30.4389 23.9473C30.2532 23.9471 30.0709 23.8968 29.9102 23.8015M18.0686 16.7954L14.1621 14.4861C14.0864 14.4422 14.0237 14.3782 13.9806 14.3009C13.9374 14.2235 13.9155 14.1357 13.917 14.0466C13.9186 13.9576 13.9436 13.8706 13.9894 13.7949C14.0352 13.7192 14.1002 13.6575 14.1774 13.6165L26.6315 6.87072C27.4818 6.41809 28.4298 6.19205 29.3879 6.21344C30.346 6.23482 31.2835 6.50294 32.1138 6.99309C32.3564 7.13634 32.5569 7.34381 32.6942 7.59374C32.8316 7.84367 32.9008 8.12686 32.8946 8.41361C32.8883 8.70036 32.8069 8.9801 32.6588 9.22352C32.5107 9.46693 32.3014 9.66505 32.0528 9.79709L19.0904 16.8136C18.939 16.8977 18.7695 16.9416 18.5973 16.9412C18.4116 16.941 18.2293 16.8907 18.0686 16.7954ZM23.9449 1.53348L21.6041 2.78318L7.30217 10.4324L0.36854 14.1398L0 14.3377L6.09997 17.9253L11.2926 20.9741L17.9898 24.9106L23.1799 27.9619L26.6493 30.0005C28.5428 31.1185 30.0286 32.8389 30.8811 34.9003L33.3236 33.6142L40.303 29.9406L42.4304 28.8211L54.7142 22.3513L61.1039 18.9797C60.7634 18.0611 60.2942 17.1981 59.7111 16.4179C59.3732 15.9611 58.9964 15.5359 58.5851 15.1473C58.0381 14.623 57.4344 14.1644 56.7856 13.7805L53.4815 11.8174L48.3219 8.75047L41.6577 4.7931L36.6532 1.82247L36.4956 1.73135C34.5238 0.60001 32.3024 0.00401044 30.0424 2.59926e-07C27.918 -0.000426924 25.8252 0.525704 23.9424 1.53348" fill="white"/>
</mask>
<g mask="url(#mask1_2903_6515)">
<path d="M48.119 -25.602L-13.9365 7.41802L12.9865 60.5089L75.0421 27.4889L48.119 -25.602Z" fill="url(#paint1_linear_2903_6515)"/>
</g>
<path d="M26.418 30.1359C27.9353 31.0295 29.1961 32.3167 30.0737 33.8678C30.9513 35.419 31.4148 37.1795 31.4175 38.9723V68.9545H31.9105V38.9723C31.908 37.0904 31.4219 35.2424 30.501 33.614C29.5802 31.9856 28.257 30.6343 26.6646 29.6959L0.12207 14.1137" fill="white"/>
<mask id="mask2_2903_6515" style="mask-type:luminance" maskUnits="userSpaceOnUse" x="30" y="18" width="32" height="52">
<path d="M42.4306 28.8159L30.8813 34.9004C31.3972 36.1564 31.6625 37.5055 31.6616 38.8681V67.9834C31.6618 68.3286 31.7485 68.668 31.9133 68.969C32.0781 69.2701 32.3155 69.5229 32.6029 69.7031C32.8903 69.8833 33.218 69.985 33.5547 69.9985C33.8914 70.0119 34.2259 69.9366 34.5261 69.7799L42.4306 65.6481L57.4264 57.814C58.7516 56.9742 59.8455 55.8016 60.6043 54.4074C61.3632 53.0132 61.7618 51.4435 61.7625 49.8472V44.0648L42.4332 54.2498V39.7013L61.7625 29.5215V22.6195C61.7638 21.489 61.5808 20.3662 61.2211 19.2974C61.1855 19.1906 61.1499 19.0865 61.1067 18.9798L42.4306 28.8159Z" fill="white"/>
</mask>
<g mask="url(#mask2_2903_6515)">
<path d="M55.1973 6.04585L10.3174 29.9267L37.4396 83.4103L82.3195 59.5295L55.1973 6.04585Z" fill="url(#paint2_linear_2903_6515)"/>
</g>
<mask id="mask3_2903_6515" style="mask-type:luminance" maskUnits="userSpaceOnUse" x="42" y="37" width="20" height="18">
<path d="M42.4307 39.7013V54.2498L61.7599 44.0648L47.087 37.2487L42.4307 39.7013Z" fill="white"/>
</mask>
<g mask="url(#mask3_2903_6515)">
<path d="M61.3222 34.2948L39.958 37.6357L42.8743 57.2037L64.2385 53.8627L61.3222 34.2948Z" fill="url(#paint3_linear_2903_6515)"/>
</g>
<mask id="mask4_2903_6515" style="mask-type:luminance" maskUnits="userSpaceOnUse" x="7" y="23" width="16" height="40">
<path d="M7.07617 30.4327L11.7274 33.1586V49.0844L7.07617 46.322V53.4323L22.9259 62.8284V55.6896L18.0409 52.8022V36.8478L22.9259 39.6987V32.5598L7.07617 23.3224V30.4327Z" fill="white"/>
</mask>
<g mask="url(#mask4_2903_6515)">
<path d="M22.4387 20.5153L0.410156 24.5428L7.57042 65.6358L29.599 61.6083L22.4387 20.5153Z" fill="url(#paint4_linear_2903_6515)"/>
</g>
<mask id="mask5_2903_6515" style="mask-type:luminance" maskUnits="userSpaceOnUse" x="18" y="34" width="5" height="6">
<path d="M18.041 36.8478L22.9261 39.6986L22.9312 34.2495L18.041 36.8478Z" fill="white"/>
</mask>
<g mask="url(#mask5_2903_6515)">
<path d="M22.6657 33.1221L16.8389 34.5474L18.304 40.8326L24.1309 39.4074L22.6657 33.1221Z" fill="url(#paint5_linear_2903_6515)"/>
</g>
<path d="M7.07861 30.4327V23.325L13.4531 27.0429L7.07861 30.4327Z" fill="#292660"/>
<mask id="mask6_2903_6515" style="mask-type:luminance" maskUnits="userSpaceOnUse" x="7" y="27" width="12" height="7">
<path d="M7.07617 30.4327L11.7274 33.1586L18.1476 29.7558L13.4506 27.0403L7.07617 30.4327Z" fill="white"/>
</mask>
<g mask="url(#mask6_2903_6515)">
<path d="M16.9678 23.5442L5.23486 27.6966L8.25938 36.6637L19.9923 32.5113L16.9678 23.5442Z" fill="url(#paint6_linear_2903_6515)"/>
</g>
<mask id="mask7_2903_6515" style="mask-type:luminance" maskUnits="userSpaceOnUse" x="11" y="29" width="12" height="21">
<path d="M11.7271 33.1586V49.0844L18.0532 45.7493L18.0405 36.8478L22.9307 34.2495L22.9256 32.5598L18.1473 29.7558L11.7271 33.1586Z" fill="white"/>
</mask>
<g mask="url(#mask7_2903_6515)">
<path d="M21.5534 25.9843L5.53076 32.1338L13.109 52.8521L29.1317 46.7026L21.5534 25.9843Z" fill="url(#paint7_linear_2903_6515)"/>
</g>
<path d="M7.07861 46.3246V53.4323L18.0459 47.629L18.0535 45.7493L11.7273 49.0844L7.07861 46.3246Z" fill="#292660"/>
<mask id="mask8_2903_6515" style="mask-type:luminance" maskUnits="userSpaceOnUse" x="7" y="47" width="16" height="16">
<path d="M7.07617 53.4323L22.9259 62.8284V55.6896L18.0409 52.8022L18.0434 47.629L7.07617 53.4323Z" fill="white"/>
</mask>
<g mask="url(#mask8_2903_6515)">
<path d="M19.7386 41.1195L1.12939 50.686L10.2668 69.3364L28.876 59.7699L19.7386 41.1195Z" fill="url(#paint8_linear_2903_6515)"/>
</g>
<mask id="mask9_2903_6515" style="mask-type:luminance" maskUnits="userSpaceOnUse" x="69" y="18" width="5" height="17">
<path d="M70.3835 18.6048C70.2316 18.5928 70.0808 18.6403 69.9616 18.7376C69.9095 18.798 69.87 18.8686 69.8455 18.9452C69.8211 19.0217 69.8121 19.1026 69.8193 19.1828V33.6064C69.8137 33.6849 69.8234 33.7638 69.8478 33.8384C69.8722 33.9131 69.9109 33.982 69.9616 34.0412C70.0191 34.0927 70.086 34.1319 70.1584 34.1565C70.2309 34.1811 70.3074 34.1906 70.3835 34.1844H73.0141C73.1734 34.1985 73.332 34.1512 73.4589 34.0516C73.5114 33.9915 73.5512 33.9209 73.5757 33.8443C73.6002 33.7676 73.6089 33.6867 73.6013 33.6064V19.1828C73.6067 19.1035 73.5964 19.0239 73.5711 18.9487C73.5457 18.8736 73.5059 18.8044 73.4538 18.7454C73.327 18.6459 73.1683 18.5985 73.0091 18.6127L70.3835 18.6048Z" fill="white"/>
</mask>
<g mask="url(#mask9_2903_6515)">
<path d="M73.6011 18.6049H69.8216V34.1844H73.6011V18.6049Z" fill="url(#paint9_linear_2903_6515)"/>
</g>
<mask id="mask10_2903_6515" style="mask-type:luminance" maskUnits="userSpaceOnUse" x="76" y="18" width="15" height="17">
<path d="M80.0443 19.3729C78.819 20.0485 77.7997 21.0575 77.0986 22.2888C76.38 23.5626 76.012 25.0121 76.0336 26.4831C76.0136 27.9221 76.3784 29.3393 77.0884 30.5811C77.7808 31.7897 78.784 32.7804 79.9884 33.445C81.2553 34.1465 82.6761 34.5049 84.1161 34.4864C85.1614 34.4913 86.1992 34.3061 87.1813 33.9396C88.139 33.5858 89.0285 33.0623 89.8094 32.3931C90.028 32.1849 90.1347 32.0156 90.1347 31.8724C90.1287 31.7363 90.0836 31.605 90.0051 31.4949L88.7673 29.6725C88.7094 29.5985 88.6438 29.5313 88.5716 29.472C88.5155 29.4279 88.4466 29.4041 88.3759 29.4043C88.2145 29.4244 88.0629 29.4943 87.9413 29.6048C86.896 30.4517 85.6013 30.9106 84.2686 30.9065C83.4892 30.9193 82.7206 30.7189 82.0421 30.3259C81.3921 29.9501 80.8577 29.3955 80.4993 28.7248C80.1237 28.0148 79.9329 27.2177 79.9452 26.4102C79.9299 25.585 80.1206 24.7695 80.4993 24.041C80.8525 23.3657 81.3881 22.809 82.0421 22.4372C82.7235 22.0532 83.4909 21.8576 84.2686 21.8697C85.583 21.8956 86.8549 22.3518 87.8981 23.1714C88.0217 23.2749 88.1735 23.3367 88.3327 23.3485C88.4192 23.3388 88.5021 23.3073 88.574 23.2569C88.6458 23.2065 88.7043 23.1387 88.7444 23.0595L90.0153 21.237C90.1047 21.1224 90.1579 20.9825 90.1678 20.8361C90.1576 20.7512 90.1296 20.6695 90.0857 20.5967C90.0418 20.5239 89.9831 20.4617 89.9136 20.4143C89.1453 19.7597 88.2761 19.2406 87.3414 18.8782C86.3728 18.5028 85.3448 18.314 84.3092 18.3211C82.8286 18.2957 81.3664 18.6597 80.0621 19.3781" fill="white"/>
</mask>
<g mask="url(#mask10_2903_6515)">
<path d="M90.1606 18.3158H76.0366V34.4734H90.1606V18.3158Z" fill="url(#paint10_linear_2903_6515)"/>
</g>
<mask id="mask11_2903_6515" style="mask-type:luminance" maskUnits="userSpaceOnUse" x="92" y="18" width="13" height="17">
<path d="M96.1563 30.7217C96.104 30.6461 96.0805 30.5535 96.0902 30.4613V28.3473C96.08 28.2551 96.1036 28.1623 96.1563 28.0869C96.2302 28.0336 96.3205 28.0095 96.4104 28.0192H98.6268C99.2157 27.9832 99.8044 28.094 100.342 28.3421C100.526 28.444 100.677 28.5978 100.777 28.7852C100.878 28.9727 100.924 29.1858 100.909 29.3991C100.922 29.6096 100.879 29.8198 100.784 30.007C100.689 30.1942 100.546 30.3513 100.37 30.4613C100.008 30.6818 99.4282 30.7928 98.6318 30.7946H96.4155C96.3702 30.8 96.3243 30.7958 96.2806 30.7824C96.2369 30.7689 96.1963 30.7465 96.1614 30.7165M96.1614 24.5513C96.1091 24.4757 96.0856 24.3831 96.0953 24.291V22.3227C96.0851 22.2305 96.1086 22.1378 96.1614 22.0623C96.1963 22.0323 96.2369 22.0099 96.2806 21.9964C96.3243 21.983 96.3702 21.9789 96.4155 21.9842H98.3624C99.1148 21.9842 99.6578 22.084 99.9916 22.2836C100.16 22.3872 100.297 22.5369 100.387 22.7159C100.476 22.8948 100.516 23.0959 100.5 23.2964C100.515 23.4984 100.476 23.7007 100.386 23.8812C100.297 24.0617 100.16 24.2134 99.9916 24.3196C99.6527 24.5279 99.1097 24.632 98.3624 24.632H96.4282C96.3829 24.6374 96.337 24.6332 96.2933 24.6198C96.2496 24.6064 96.209 24.584 96.1741 24.5539M92.875 18.6048C92.7222 18.5924 92.5705 18.6399 92.4505 18.7376C92.3984 18.798 92.3589 18.8686 92.3345 18.9452C92.31 19.0217 92.3011 19.1026 92.3082 19.1828V33.6064C92.2992 33.6848 92.3076 33.7642 92.3329 33.8387C92.3583 33.9133 92.3998 33.9809 92.4544 34.0366C92.509 34.0923 92.5752 34.1345 92.6481 34.1601C92.7209 34.1857 92.7985 34.194 92.875 34.1844H98.6318C100.602 34.1844 102.127 33.8025 103.207 33.0388C104.286 32.2751 104.826 31.0688 104.826 29.4199C104.839 28.6725 104.613 27.9412 104.183 27.3371C103.756 26.7442 103.149 26.3137 102.457 26.1134C103.02 25.8464 103.498 25.4223 103.837 24.8898C104.188 24.3091 104.365 23.6355 104.345 22.9527C104.345 21.4253 103.857 20.3197 102.879 19.6358C101.901 18.952 100.461 18.6109 98.5581 18.6127L92.875 18.6048Z" fill="white"/>
</mask>
<g mask="url(#mask11_2903_6515)">
<path d="M104.826 18.6049H92.3106V34.1844H104.826V18.6049Z" fill="url(#paint11_linear_2903_6515)"/>
</g>
<path d="M79.3964 39.053C79.5156 38.9556 79.6664 38.9082 79.8184 38.9202H82.4363C82.8277 38.9202 83.0208 39.1129 83.0208 39.4982V53.8619C83.0208 54.4399 82.848 54.7262 82.5125 54.7262C82.3448 54.7189 82.183 54.6609 82.0474 54.5596C81.812 54.3906 81.591 54.2016 81.3866 53.9947L73.5964 46.5017V53.8619C73.6041 53.9417 73.5954 54.0224 73.5709 54.0986C73.5464 54.1748 73.5066 54.2449 73.4541 54.3045C73.3285 54.405 73.1706 54.4534 73.0118 54.4399H70.3939C70.3176 54.449 70.2403 54.4404 70.1678 54.4146C70.0952 54.3888 70.0294 54.3465 69.9751 54.2909C69.9208 54.2353 69.8795 54.1678 69.8543 54.0935C69.8291 54.0192 69.8207 53.94 69.8297 53.8619V39.4904C69.8297 38.9124 70.0025 38.626 70.3507 38.626C70.5178 38.6344 70.6791 38.6913 70.8158 38.79C71.0507 38.9596 71.2709 39.1495 71.4741 39.3576L79.2668 46.848V39.4904C79.2586 39.4123 79.2658 39.3333 79.2881 39.2581C79.3103 39.183 79.3472 39.1132 79.3964 39.053Z" fill="#A5A7AA"/>
<path d="M96.3845 51.0292C96.4365 51.0895 96.4758 51.1602 96.4999 51.2368C96.5239 51.3135 96.5322 51.3943 96.5243 51.4744V53.8671C96.5243 54.2524 96.3311 54.445 95.9397 54.445H86.8304C86.7542 54.4542 86.6769 54.4456 86.6043 54.4198C86.5318 54.394 86.4659 54.3517 86.4116 54.2961C86.3573 54.2405 86.316 54.173 86.2908 54.0987C86.2656 54.0244 86.2572 53.9452 86.2662 53.8671V39.4904C86.2607 39.4108 86.2711 39.331 86.2969 39.2557C86.3227 39.1805 86.3633 39.1115 86.4161 39.053C86.5353 38.9556 86.6861 38.9082 86.838 38.9202H95.927C96.0048 38.9075 96.0844 38.9135 96.1596 38.9377C96.2348 38.9619 96.3034 39.0037 96.3601 39.0597C96.4168 39.1158 96.46 39.1846 96.4863 39.2607C96.5126 39.3368 96.5212 39.4181 96.5116 39.4982V41.8908C96.519 41.9705 96.5105 42.0508 96.4864 42.1269C96.4624 42.2031 96.4234 42.2733 96.3718 42.3334C96.2456 42.4346 96.0867 42.483 95.927 42.4688H90.3582C90.3131 42.4637 90.2674 42.4677 90.2238 42.4807C90.1802 42.4936 90.1395 42.5152 90.1041 42.5443C90.0518 42.6199 90.0283 42.7125 90.038 42.8047V44.5204C90.0278 44.6126 90.0514 44.7053 90.1041 44.7807C90.1784 44.8329 90.2686 44.856 90.3582 44.8458H95.2052C95.2831 44.8382 95.3618 44.8473 95.4361 44.8724C95.5105 44.8975 95.579 44.9381 95.6373 44.9916C95.7341 45.1208 95.7803 45.2824 95.7669 45.4446V47.8165C95.7786 47.9721 95.7323 48.1266 95.6373 48.2486C95.579 48.3022 95.5105 48.3428 95.4361 48.3679C95.3618 48.393 95.2831 48.402 95.2052 48.3944H90.3582C90.3131 48.3887 90.2673 48.3925 90.2236 48.4054C90.1799 48.4184 90.1392 48.4404 90.1041 48.4699C90.0518 48.5456 90.0283 48.6382 90.038 48.7303V50.5528C90.0273 50.645 90.0509 50.7379 90.1041 50.8131C90.139 50.8432 90.1796 50.8656 90.2233 50.879C90.267 50.8924 90.3129 50.8966 90.3582 50.8912H95.9499C96.1064 50.8812 96.261 50.9303 96.3845 51.0292Z" fill="#A5A7AA"/>
<path d="M110.074 42.3152C110.015 42.369 109.946 42.4097 109.872 42.4348C109.797 42.4599 109.718 42.4688 109.639 42.461H106.221C106.13 42.4512 106.039 42.4783 105.967 42.5365C105.938 42.5726 105.916 42.6141 105.903 42.6588C105.89 42.7035 105.886 42.7505 105.891 42.7969V53.8593C105.902 54.0149 105.856 54.1694 105.761 54.2915C105.703 54.345 105.634 54.3856 105.56 54.4107C105.485 54.4358 105.407 54.4448 105.329 54.4373H102.683C102.607 54.446 102.53 54.4371 102.458 54.4111C102.385 54.3851 102.32 54.3427 102.266 54.2872C102.212 54.2316 102.171 54.1643 102.146 54.0902C102.121 54.0161 102.112 53.9372 102.121 53.8593V42.7917C102.126 42.7453 102.122 42.6983 102.109 42.6536C102.096 42.6089 102.074 42.5673 102.045 42.5313C101.973 42.4736 101.882 42.4466 101.791 42.4558H98.3876C98.3113 42.465 98.234 42.4564 98.1614 42.4306C98.0889 42.4048 98.023 42.3625 97.9687 42.3069C97.9144 42.2512 97.8731 42.1837 97.8479 42.1094C97.8228 42.0351 97.8143 41.9559 97.8233 41.8778V39.4852C97.8157 39.4049 97.8244 39.3239 97.8489 39.2473C97.8734 39.1707 97.9132 39.1001 97.9656 39.04C98.0847 38.9424 98.2356 38.8949 98.3876 38.9072H109.639C109.717 38.8909 109.797 38.8945 109.873 38.9178C109.949 38.9411 110.018 38.9832 110.074 39.0405C110.129 39.0978 110.171 39.1684 110.193 39.246C110.216 39.3236 110.22 39.4058 110.204 39.4852V41.8778C110.217 42.0352 110.17 42.1918 110.074 42.3152Z" fill="#A5A7AA"/>
<path d="M118.187 54.5648C118.143 54.6321 118.084 54.6873 118.014 54.7259C117.945 54.7644 117.867 54.7851 117.788 54.7861C117.706 54.784 117.626 54.7616 117.554 54.7208C117.482 54.68 117.421 54.622 117.376 54.5518C117.19 54.2639 117.036 53.9557 116.916 53.6328L111.375 39.6232C111.321 39.5125 111.291 39.3905 111.289 39.2665C111.289 39.0322 111.462 38.9124 111.81 38.9124H114.535C114.738 38.8944 114.942 38.9407 115.119 39.0452C115.274 39.1967 115.387 39.3883 115.445 39.5997L118.042 46.5173L120.942 39.8887C121.053 39.6104 121.198 39.3479 121.374 39.1077C121.424 39.045 121.487 38.9946 121.558 38.9599C121.629 38.9252 121.707 38.9072 121.786 38.9072C121.863 38.9075 121.939 38.9257 122.008 38.9604C122.077 38.9951 122.138 39.0455 122.185 39.1077C122.355 39.3502 122.497 39.6123 122.607 39.8887L125.487 46.4496L128.061 39.5997C128.12 39.3862 128.236 39.1939 128.397 39.0452C128.578 38.9419 128.785 38.8957 128.992 38.9124H131.699C132.044 38.9124 132.207 39.0322 132.207 39.2665C132.206 39.3907 132.177 39.513 132.12 39.6232L126.608 53.6328C126.489 53.955 126.336 54.2631 126.153 54.5518C126.108 54.622 126.047 54.68 125.975 54.7208C125.903 54.7616 125.823 54.784 125.741 54.7861C125.666 54.784 125.593 54.7638 125.527 54.7272C125.461 54.6905 125.405 54.6385 125.362 54.5752C125.18 54.2995 125.025 54.0065 124.897 53.7005L121.758 46.5381L118.622 53.7005C118.503 54.0018 118.358 54.2912 118.187 54.5648Z" fill="#A5A7AA"/>
<path d="M133.846 42.5495C134.534 41.3347 135.536 40.3375 136.741 39.6674C138.015 38.9603 139.445 38.6016 140.894 38.626C142.352 38.6012 143.793 38.9549 145.083 39.6544C146.287 40.3151 147.288 41.3069 147.972 42.5183C148.656 43.7917 149.015 45.2215 149.015 46.6748C149.015 48.1281 148.656 49.5579 147.972 50.8314C147.279 52.0441 146.271 53.0357 145.06 53.6952C143.768 54.3992 142.324 54.7575 140.861 54.7367C139.422 54.7591 138 54.4089 136.728 53.7187C135.527 53.0637 134.53 52.0758 133.851 50.8678C133.167 49.5969 132.808 48.1692 132.808 46.7178C132.808 45.2664 133.167 43.8386 133.851 42.5677L133.846 42.5495ZM137.231 49.0427C137.574 49.6986 138.093 50.2406 138.726 50.6049C139.385 50.9722 140.123 51.1646 140.874 51.1646C141.624 51.1646 142.362 50.9722 143.021 50.6049C143.662 50.2297 144.19 49.6812 144.546 49.0193C144.93 48.3076 145.125 47.5049 145.111 46.6917C145.128 45.8659 144.938 45.0493 144.559 44.3199C144.204 43.6567 143.676 43.1077 143.034 42.7344C142.374 42.3636 141.633 42.1692 140.88 42.1692C140.127 42.1692 139.386 42.3636 138.726 42.7344C138.087 43.1092 137.565 43.6628 137.221 44.3303C136.851 45.0588 136.666 45.8708 136.682 46.6917C136.668 47.5104 136.857 48.3193 137.231 49.0427Z" fill="#A5A7AA"/>
<path d="M155.054 54.2967C154.928 54.3967 154.77 54.445 154.611 54.432H151.991C151.915 54.4408 151.838 54.4319 151.766 54.4059C151.693 54.3799 151.628 54.3375 151.574 54.282C151.52 54.2264 151.479 54.159 151.454 54.085C151.429 54.0109 151.42 53.9319 151.429 53.8541V39.4904C151.421 39.4103 151.43 39.3294 151.454 39.2528C151.478 39.1762 151.517 39.1055 151.569 39.0452C151.688 38.9483 151.839 38.9009 151.991 38.9124H156.947C159.213 38.9124 160.901 39.3376 162.013 40.1881C163.124 41.0386 163.681 42.3499 163.683 44.1221C163.683 45.9827 162.835 47.3348 161.141 48.1784L164.445 53.7213C164.534 53.8352 164.587 53.9741 164.598 54.1196C164.598 54.3279 164.417 54.432 164.056 54.432H161.232C161.002 54.4462 160.772 54.4043 160.561 54.3097C160.368 54.1706 160.212 53.9834 160.109 53.7655L156.645 47.603C156.613 47.5589 156.588 47.5107 156.568 47.4598C156.537 47.394 156.519 47.3222 156.515 47.2489C156.515 47.1005 156.66 47.0042 156.947 46.9599C157.679 46.8934 158.381 46.6293 158.98 46.1945C159.238 45.9997 159.444 45.7434 159.582 45.4479C159.72 45.1524 159.785 44.8268 159.771 44.4996C159.771 43.7445 159.525 43.1865 159.034 42.8255C158.543 42.4636 157.816 42.2814 156.848 42.2814H155.506C155.461 42.2653 155.412 42.2626 155.365 42.2737C155.319 42.2848 155.276 42.3091 155.242 42.3439C155.209 42.3788 155.185 42.4227 155.175 42.4706C155.164 42.5184 155.167 42.5684 155.183 42.6146V53.8541C155.193 53.933 155.186 54.0131 155.164 54.0893C155.141 54.1654 155.104 54.2361 155.054 54.2967Z" fill="#A5A7AA"/>
<path d="M169.943 54.2967C169.817 54.3967 169.659 54.445 169.501 54.432H166.88C166.804 54.4408 166.727 54.4319 166.655 54.4059C166.583 54.3799 166.517 54.3375 166.463 54.282C166.409 54.2264 166.368 54.1591 166.343 54.085C166.318 54.0109 166.309 53.9319 166.318 53.8541V39.4904C166.31 39.4103 166.319 39.3294 166.343 39.2528C166.367 39.1762 166.406 39.1055 166.458 39.0452C166.578 38.9483 166.728 38.9009 166.88 38.9124H169.501C169.659 38.8987 169.817 38.946 169.943 39.0452C169.995 39.1053 170.035 39.1759 170.06 39.2525C170.084 39.3291 170.093 39.4101 170.085 39.4904V53.8541C170.093 53.9339 170.084 54.0146 170.06 54.0908C170.035 54.167 169.995 54.2371 169.943 54.2967ZM175.628 39.0243C175.822 38.9378 176.033 38.8994 176.244 38.9124H179.294C179.596 38.9124 179.748 39.0165 179.748 39.2222C179.737 39.3436 179.692 39.4591 179.619 39.5555L174.612 46.4496L179.85 53.789C179.941 53.8841 179.994 54.0102 180 54.1431C180 54.1871 179.987 54.2301 179.965 54.2674C179.942 54.3046 179.909 54.3346 179.87 54.3539C179.764 54.411 179.645 54.4379 179.525 54.432H176.391C176.173 54.4446 175.955 54.4063 175.753 54.3201C175.572 54.2023 175.421 54.0427 175.311 53.8541L170.657 47.0849C170.546 46.9332 170.478 46.7529 170.461 46.5642C170.483 46.3724 170.559 46.1913 170.68 46.0435L175.201 39.5034C175.305 39.3118 175.452 39.1478 175.628 39.0243Z" fill="#A5A7AA"/>
<defs>
<linearGradient id="paint0_linear_2903_6515" x1="15.6964" y1="44.2597" x2="39.1328" y2="82.8407" gradientUnits="userSpaceOnUse">
<stop stop-color="#3872B7"/>
<stop offset="0.22" stop-color="#3460A3"/>
<stop offset="1" stop-color="#272560"/>
</linearGradient>
<linearGradient id="paint1_linear_2903_6515" x1="19.6589" y1="-1.24367" x2="45.3543" y2="47.0465" gradientUnits="userSpaceOnUse">
<stop stop-color="#F1F1F1"/>
<stop offset="0.35" stop-color="#BBBCBF"/>
<stop offset="0.6" stop-color="#F1F1F1"/>
<stop offset="0.82" stop-color="#BBBCBF"/>
<stop offset="1" stop-color="#BBBCBF"/>
</linearGradient>
<linearGradient id="paint2_linear_2903_6515" x1="22.6928" y1="-0.309544" x2="48.4004" y2="48.0034" gradientUnits="userSpaceOnUse">
<stop stop-color="#F1F1F1"/>
<stop offset="0.35" stop-color="#BBBCBF"/>
<stop offset="0.6" stop-color="#F1F1F1"/>
<stop offset="0.82" stop-color="#BBBCBF"/>
<stop offset="1" stop-color="#BBBCBF"/>
</linearGradient>
<linearGradient id="paint3_linear_2903_6515" x1="69.3594" y1="40.8015" x2="48.8225" y2="43.8623" gradientUnits="userSpaceOnUse">
<stop stop-color="#A5A7AA"/>
<stop offset="0.06" stop-color="#A5A7AA"/>
<stop offset="0.25" stop-color="#A0A2A5"/>
<stop offset="0.48" stop-color="#929496"/>
<stop offset="0.73" stop-color="#7B7C7E"/>
<stop offset="1" stop-color="#5A5A5C"/>
</linearGradient>
<linearGradient id="paint4_linear_2903_6515" x1="-6.40133" y1="49.1855" x2="17.4834" y2="45.0236" gradientUnits="userSpaceOnUse">
<stop stop-color="#4365AD"/>
<stop offset="0.12" stop-color="#405DA4"/>
<stop offset="1" stop-color="#272560"/>
</linearGradient>
<linearGradient id="paint5_linear_2903_6515" x1="20.1351" y1="36.1788" x2="28.6782" y2="34.1873" gradientUnits="userSpaceOnUse">
<stop stop-color="#4365AD"/>
<stop offset="0.12" stop-color="#405DA4"/>
<stop offset="1" stop-color="#272560"/>
</linearGradient>
<linearGradient id="paint6_linear_2903_6515" x1="6.03841" y1="31.7194" x2="18.2457" y2="27.602" gradientUnits="userSpaceOnUse">
<stop stop-color="#4365AD"/>
<stop offset="0.12" stop-color="#405DA4"/>
<stop offset="1" stop-color="#272560"/>
</linearGradient>
<linearGradient id="paint7_linear_2903_6515" x1="3.09725" y1="42.5411" x2="23.7568" y2="34.9843" gradientUnits="userSpaceOnUse">
<stop stop-color="#4365AD"/>
<stop offset="0.12" stop-color="#405DA4"/>
<stop offset="1" stop-color="#272560"/>
</linearGradient>
<linearGradient id="paint8_linear_2903_6515" x1="1.263" y1="63.8751" x2="17.6028" y2="55.8697" gradientUnits="userSpaceOnUse">
<stop stop-color="#4365AD"/>
<stop offset="0.12" stop-color="#405DA4"/>
<stop offset="1" stop-color="#272560"/>
</linearGradient>
<linearGradient id="paint9_linear_2903_6515" x1="72.0099" y1="20.6968" x2="72.0099" y2="94.0401" gradientUnits="userSpaceOnUse">
<stop stop-color="#3671B8"/>
<stop offset="0.23" stop-color="#335FA3"/>
<stop offset="1" stop-color="#282560"/>
</linearGradient>
<linearGradient id="paint10_linear_2903_6515" x1="83.5588" y1="20.6967" x2="83.5588" y2="94.04" gradientUnits="userSpaceOnUse">
<stop stop-color="#3671B8"/>
<stop offset="0.23" stop-color="#335FA3"/>
<stop offset="1" stop-color="#282560"/>
</linearGradient>
<linearGradient id="paint11_linear_2903_6515" x1="98.7871" y1="20.6968" x2="98.7871" y2="94.0401" gradientUnits="userSpaceOnUse">
<stop stop-color="#3671B8"/>
<stop offset="0.23" stop-color="#335FA3"/>
<stop offset="1" stop-color="#282560"/>
</linearGradient>
</defs>
</svg>
